<svg width="481" height="309" viewBox="0 0 481 309" fill="none" xmlns="http://www.w3.org/2000/svg">
<g clip-path="url(#clip0_104_7108)">
<rect width="480" height="307.814" transform="translate(0.522949 0.948975)" fill="white"/>
<path d="M82.9194 261.521C82.3484 262.381 71.0257 266.617 75.1044 274.704C77.332 279.121 75.4957 279.961 73.4166 279.283C71.6311 278.701 70.4176 276.285 69.3492 278.848C65.831 287.287 57.7914 291.412 57.6066 285.179C57.5054 281.809 53.49 282.448 52.5502 284.56C50.5583 289.044 47.2036 291.153 46.0126 287.687C44.8415 284.28 42.9259 282.9 41.4323 284.457C39.9405 286.012 38.8859 290.151 35.5552 287.67C34.2429 286.693 34.192 282.529 36.5204 280.062C37.8488 278.657 43.0917 275.502 38.4353 274.04C33.6373 272.531 36.421 269.493 39.1792 269.323C40.2065 269.259 49.67 267.913 47.2464 265.864C44.3864 263.442 46.2614 260.772 50.9809 261.394C53.1246 261.676 57.595 263.726 57.6908 261.841C57.7865 259.957 58.5176 257.37 61.7949 257.858C67.4456 258.701 81.7355 263.312 82.9228 261.523L82.9194 261.521Z" fill="#B8D99C"/>
<path d="M36.2154 284.735C36.2154 284.735 44.4336 273.661 59.4038 269.119C72.4092 265.173 78.9294 263.823 85.803 260.261" stroke="white" stroke-width="0.85142" stroke-miterlimit="10" stroke-linecap="round"/>
<path d="M48.0431 283.789C48.0431 283.789 48.8927 277.74 51.6204 272.284" stroke="white" stroke-width="0.85142" stroke-miterlimit="10" stroke-linecap="round"/>
<path d="M38.5226 272.442C38.4454 272.443 47.2454 271.44 53.7615 271.266" stroke="white" stroke-width="0.85142" stroke-miterlimit="10" stroke-linecap="round"/>
<path d="M63.0708 275.455C63.6289 273.315 64.295 270.684 65.0837 267.476" stroke="white" stroke-width="0.85142" stroke-miterlimit="10" stroke-linecap="round"/>
<path d="M47.73 263.259C47.73 263.259 58.5426 267.804 60.5979 268.747" stroke="white" stroke-width="0.85142" stroke-miterlimit="10" stroke-linecap="round"/>
<path d="M60.3848 259.917C60.3848 259.917 68.1418 265.131 74.0152 264.776" stroke="white" stroke-width="0.85142" stroke-miterlimit="10" stroke-linecap="round"/>
<path d="M354.502 23.2169C354.618 23.5256 354.909 23.7291 355.233 23.7291C355.556 23.7291 355.847 23.5256 355.963 23.2169L357.005 20.3865C357.037 20.3011 357.102 20.2289 357.186 20.196L359.973 19.1322C360.277 19.014 360.477 18.7184 360.477 18.3901C360.477 18.0617 360.277 17.7596 359.973 17.648L357.186 16.5841C357.102 16.5513 357.03 16.4856 356.998 16.4002L355.951 13.5698C355.815 13.2874 355.53 13.1035 355.22 13.1035C354.909 13.1035 354.625 13.2874 354.489 13.5698L353.441 16.4002C353.409 16.4856 353.344 16.5513 353.26 16.5841L350.473 17.648C350.169 17.7662 349.969 18.0617 349.969 18.3901C349.969 18.7184 350.169 19.014 350.473 19.1322L353.26 20.196C353.344 20.2289 353.409 20.2945 353.448 20.3865L354.496 23.2169H354.502Z" fill="#27AA27"/>
<path d="M454.97 40.5926C455.041 40.7897 455.229 40.921 455.436 40.921C455.643 40.921 455.824 40.7897 455.901 40.5926L456.561 38.7998C456.581 38.7473 456.626 38.7013 456.677 38.6816L458.443 38.0118C458.637 37.9395 458.766 37.7491 458.766 37.5389C458.766 37.3288 458.637 37.1383 458.443 37.0661L456.677 36.3897C456.626 36.37 456.581 36.324 456.561 36.2715L455.901 34.4786C455.817 34.2948 455.636 34.1831 455.436 34.1831C455.235 34.1831 455.061 34.3013 454.97 34.4786L454.311 36.2715C454.291 36.324 454.246 36.37 454.194 36.3897L452.429 37.0661C452.235 37.1383 452.105 37.3288 452.105 37.5389C452.105 37.7491 452.235 37.9395 452.429 38.0118L454.194 38.6882C454.246 38.7079 454.291 38.7539 454.311 38.8064L454.977 40.5992L454.97 40.5926Z" fill="#27AA27"/>
<path d="M445.823 25.6135C445.92 25.8762 446.166 26.0535 446.444 26.0535C446.722 26.0535 446.968 25.8762 447.065 25.6135L447.951 23.2099C447.977 23.1377 448.035 23.0786 448.106 23.0523L450.473 22.1526C450.732 22.0541 450.906 21.8046 450.906 21.5222C450.906 21.2398 450.732 20.9902 450.473 20.8917L448.106 19.9855C448.035 19.9592 447.977 19.9001 447.951 19.8278L447.065 17.4243C446.948 17.1813 446.709 17.0237 446.444 17.0237C446.179 17.0237 445.94 17.1813 445.823 17.4243L444.937 19.8278C444.911 19.9001 444.853 19.9592 444.782 19.9855L442.415 20.8917C442.157 20.9902 441.982 21.2398 441.982 21.5222C441.982 21.8046 442.157 22.0541 442.415 22.1526L444.782 23.0523C444.853 23.0786 444.911 23.1377 444.937 23.2099L445.83 25.6135H445.823Z" fill="#8EC641"/>
<path d="M334.686 35.539C334.783 35.8017 335.029 35.979 335.307 35.979C335.585 35.979 335.831 35.8017 335.928 35.539L336.814 33.1355C336.839 33.0632 336.898 33.0041 336.969 32.9779L339.336 32.0782C339.594 31.9796 339.769 31.7301 339.769 31.4477C339.769 31.1653 339.594 30.9158 339.336 30.8173L336.969 29.911C336.898 29.8847 336.839 29.8256 336.814 29.7534L335.928 27.3498C335.811 27.1068 335.572 26.9492 335.307 26.9492C335.042 26.9492 334.802 27.1068 334.686 27.3498L333.8 29.7534C333.774 29.8256 333.716 29.8847 333.645 29.911L331.278 30.8173C331.019 30.9158 330.845 31.1653 330.845 31.4477C330.845 31.7301 331.019 31.9796 331.278 32.0782L333.645 32.9779C333.716 33.0041 333.774 33.0632 333.8 33.1355L334.692 35.539H334.686Z" fill="#8EC641"/>
<path d="M354.603 277.835C354.7 278.098 354.945 278.275 355.223 278.275C355.501 278.275 355.747 278.098 355.844 277.835L356.73 275.431C356.756 275.359 356.814 275.3 356.885 275.274L359.252 274.374C359.511 274.276 359.685 274.026 359.685 273.744C359.685 273.461 359.511 273.212 359.252 273.113L356.885 272.207C356.814 272.181 356.756 272.122 356.73 272.049L355.844 269.646C355.728 269.403 355.488 269.245 355.223 269.245C354.958 269.245 354.719 269.403 354.603 269.646L353.717 272.049C353.691 272.122 353.632 272.181 353.561 272.207L351.194 273.113C350.936 273.212 350.761 273.461 350.761 273.744C350.761 274.026 350.936 274.276 351.194 274.374L353.561 275.274C353.632 275.3 353.691 275.359 353.717 275.431L354.609 277.835H354.603Z" fill="#8EC641"/>
<path d="M27.4052 119.334C27.5022 119.597 27.748 119.774 28.026 119.774C28.3041 119.774 28.5499 119.597 28.6469 119.334L29.5328 116.93C29.5587 116.858 29.6169 116.799 29.688 116.773L32.0549 115.873C32.3135 115.775 32.4881 115.525 32.4881 115.243C32.4881 114.96 32.3135 114.711 32.0549 114.612L29.688 113.706C29.6169 113.68 29.5587 113.621 29.5328 113.548L28.6469 111.145C28.5305 110.902 28.2912 110.744 28.026 110.744C27.7609 110.744 27.5216 110.902 27.4052 111.145L26.5193 113.548C26.4934 113.621 26.4352 113.68 26.3641 113.706L23.9972 114.612C23.7386 114.711 23.564 114.96 23.564 115.243C23.564 115.525 23.7386 115.775 23.9972 115.873L26.3641 116.773C26.4352 116.799 26.4934 116.858 26.5193 116.93L27.4117 119.334H27.4052Z" fill="#8EC641"/>
<path d="M433.729 279.178C433.833 279.453 434.092 279.634 434.381 279.634C434.669 279.634 434.928 279.453 435.032 279.178L435.96 276.654C435.989 276.578 436.047 276.514 436.122 276.485L438.607 275.536C438.877 275.431 439.056 275.167 439.056 274.875C439.056 274.582 438.877 274.312 438.607 274.213L436.122 273.264C436.047 273.235 435.983 273.177 435.954 273.101L435.02 270.577C434.899 270.325 434.646 270.161 434.369 270.161C434.092 270.161 433.839 270.325 433.718 270.577L432.783 273.101C432.755 273.177 432.697 273.235 432.622 273.264L430.137 274.213C429.866 274.318 429.688 274.582 429.688 274.875C429.688 275.167 429.866 275.431 430.137 275.536L432.622 276.485C432.697 276.514 432.755 276.572 432.789 276.654L433.723 279.178H433.729Z" fill="#27AA27"/>
<path d="M466.985 291.47C467.089 291.745 467.348 291.926 467.636 291.926C467.925 291.926 468.184 291.745 468.288 291.47L469.216 288.946C469.245 288.87 469.303 288.806 469.378 288.777L471.862 287.828C472.133 287.723 472.312 287.459 472.312 287.167C472.312 286.874 472.133 286.604 471.862 286.505L469.378 285.556C469.303 285.527 469.239 285.469 469.21 285.393L468.276 282.869C468.155 282.617 467.902 282.453 467.625 282.453C467.348 282.453 467.094 282.617 466.973 282.869L466.039 285.393C466.011 285.469 465.953 285.527 465.878 285.556L463.393 286.505C463.122 286.61 462.943 286.874 462.943 287.167C462.943 287.459 463.122 287.723 463.393 287.828L465.878 288.777C465.953 288.806 466.011 288.864 466.045 288.946L466.979 291.47H466.985Z" fill="#27AA27"/>
<path d="M445.046 288.352C445.11 288.528 445.277 288.645 445.461 288.645C445.646 288.645 445.807 288.528 445.876 288.352L446.465 286.754C446.482 286.707 446.522 286.666 446.568 286.649L448.142 286.051C448.315 285.987 448.431 285.817 448.431 285.63C448.431 285.442 448.315 285.273 448.142 285.208L446.568 284.605C446.522 284.588 446.482 284.547 446.465 284.5L445.876 282.901C445.802 282.737 445.64 282.638 445.461 282.638C445.283 282.638 445.127 282.743 445.046 282.901L444.458 284.5C444.441 284.547 444.401 284.588 444.354 284.605L442.78 285.208C442.607 285.273 442.492 285.442 442.492 285.63C442.492 285.817 442.607 285.987 442.78 286.051L444.354 286.654C444.401 286.672 444.441 286.713 444.458 286.76L445.052 288.358L445.046 288.352Z" fill="#27AA27"/>
<path d="M452.461 276.49C452.548 276.725 452.767 276.883 453.015 276.883C453.263 276.883 453.482 276.725 453.568 276.49L454.358 274.348C454.381 274.283 454.433 274.23 454.496 274.207L456.607 273.405C456.837 273.317 456.993 273.095 456.993 272.843C456.993 272.591 456.837 272.369 456.607 272.281L454.496 271.473C454.433 271.449 454.381 271.397 454.358 271.332L453.568 269.189C453.464 268.973 453.251 268.832 453.015 268.832C452.778 268.832 452.565 268.973 452.461 269.189L451.671 271.332C451.648 271.397 451.596 271.449 451.533 271.473L449.423 272.281C449.192 272.369 449.037 272.591 449.037 272.843C449.037 273.095 449.192 273.317 449.423 273.405L451.533 274.207C451.596 274.23 451.648 274.283 451.671 274.348L452.467 276.49H452.461Z" fill="#8EC641"/>
<path d="M57.2863 290.588C57.4135 290.926 57.7315 291.148 58.0849 291.148C58.4382 291.148 58.7563 290.926 58.8835 290.588L60.0213 287.495C60.0567 287.402 60.1273 287.323 60.2192 287.287L63.2652 286.124C63.5974 285.995 63.8165 285.672 63.8165 285.313C63.8165 284.954 63.5974 284.624 63.2652 284.502L60.2192 283.339C60.1273 283.304 60.0496 283.232 60.0142 283.139L58.8693 280.045C58.7209 279.737 58.41 279.536 58.0707 279.536C57.7315 279.536 57.4205 279.737 57.2721 280.045L56.1272 283.139C56.0919 283.232 56.0212 283.304 55.9293 283.339L52.8833 284.502C52.5511 284.631 52.332 284.954 52.332 285.313C52.332 285.672 52.5511 285.995 52.8833 286.124L55.9293 287.287C56.0212 287.323 56.0919 287.394 56.1343 287.495L57.2792 290.588H57.2863Z" fill="#27AA27"/>
<path d="M71.1597 301.835C71.2374 302.05 71.4424 302.193 71.6685 302.193C71.8947 302.193 72.0926 302.05 72.1774 301.835L72.8982 299.875C72.9194 299.818 72.9689 299.768 73.0254 299.746L74.9548 299.014C75.1668 298.935 75.3082 298.727 75.3082 298.497C75.3082 298.268 75.1668 298.06 74.9548 297.981L73.0254 297.241C72.9689 297.22 72.9194 297.17 72.8982 297.112L72.1774 295.153C72.0855 294.952 71.8876 294.83 71.6685 294.83C71.4494 294.83 71.2586 294.959 71.1597 295.153L70.4388 297.112C70.4176 297.17 70.3681 297.22 70.3116 297.241L68.3822 297.981C68.1702 298.06 68.0288 298.268 68.0288 298.497C68.0288 298.727 68.1702 298.935 68.3822 299.014L70.3116 299.753C70.3681 299.775 70.4176 299.825 70.4388 299.882L71.1667 301.842L71.1597 301.835Z" fill="#27AA27"/>
<path d="M80.2483 287.294C80.3543 287.581 80.6228 287.775 80.9267 287.775C81.2306 287.775 81.4992 287.581 81.6052 287.294L82.5734 284.667C82.6017 284.588 82.6653 284.524 82.7431 284.495L85.3297 283.512C85.6124 283.404 85.8032 283.131 85.8032 282.823C85.8032 282.514 85.6124 282.241 85.3297 282.134L82.7431 281.143C82.6653 281.115 82.6017 281.05 82.5734 280.971L81.6052 278.344C81.478 278.079 81.2165 277.906 80.9267 277.906C80.637 277.906 80.3755 278.079 80.2483 278.344L79.2801 280.971C79.2518 281.05 79.1882 281.115 79.1104 281.143L76.5238 282.134C76.2411 282.241 76.0503 282.514 76.0503 282.823C76.0503 283.131 76.2411 283.404 76.5238 283.512L79.1104 284.495C79.1882 284.524 79.2518 284.588 79.2801 284.667L80.2553 287.294H80.2483Z" fill="#8EC641"/>
<path d="M425.542 50.8933C424.599 41.8875 420.724 34.068 416.035 33.6212C407.666 32.8354 409.476 39.1911 403.746 38.4053C397.044 37.4885 401.59 26.9188 390.794 26.549C379.998 26.1792 384.718 37.658 377.699 41.1479C372.738 43.6208 371.547 38.1048 364.8 41.7565C362.063 43.2356 360.412 46.7563 359.703 50.8856H425.549L425.542 50.8933Z" fill="#B0D57C"/>
<path d="M128.016 260.99C127.073 269.996 123.198 277.815 118.509 278.262C110.141 279.048 111.95 272.692 106.22 273.478C99.5181 274.395 104.064 284.964 93.2682 285.334C82.4723 285.704 87.1918 274.225 80.1729 270.735C75.2122 268.262 74.0211 273.778 67.2736 270.127C64.537 268.647 62.8859 265.127 62.1772 260.997H128.023L128.016 260.99Z" fill="#B0D57C"/>
<path d="M47.1384 143.757C43.08 142.794 39.5563 138.835 39.355 134.044C39.0008 125.493 41.865 127.342 41.5108 121.487C41.0977 114.639 36.3346 119.284 36.168 108.253C36.0014 97.2219 41.1741 102.044 42.7468 94.8723C43.8611 89.8036 41.3754 88.5865 43.021 81.692C43.6876 78.8958 45.2741 77.2087 47.1349 76.4846L47.1349 143.765L47.1384 143.757Z" fill="#B0D57C"/>
<path d="M430.833 197.417C434.891 196.454 438.415 192.494 438.616 187.703C438.97 179.152 436.106 181.001 436.46 175.146C436.873 168.298 441.637 172.943 441.803 161.912C441.97 150.881 436.797 155.703 435.224 148.532C434.11 143.463 436.596 142.246 434.95 135.351C434.284 132.555 432.697 130.868 430.836 130.144L430.836 197.424L430.833 197.417Z" fill="#B0D57C"/>
<path d="M415.387 24.4876C415.387 29.2164 419.034 38.6165 423.635 38.5096C427.401 38.4225 432.05 29.2203 432.052 24.4916C432.052 19.7628 429.447 11.7067 423.708 11.681C417.753 11.6572 415.389 19.7589 415.389 24.4856" fill="#269035"/>
<path d="M423.923 17.8723C423.923 17.8723 423.923 30.937 423.923 40.5245C423.923 46.8101 423.923 51.7189 423.923 51.7189" stroke="#7EC680" stroke-width="3.15352" stroke-miterlimit="10" stroke-linecap="round"/>
<path d="M429.613 22.8254L423.923 33.1445" stroke="#7EC680" stroke-width="3.15352" stroke-miterlimit="10" stroke-linecap="round"/>
<path d="M419.045 21.1746L423.923 27.366" stroke="#7EC680" stroke-width="3.15352" stroke-miterlimit="10" stroke-linecap="round"/>
<path d="M429.343 98.6932C430.218 98.1563 434.956 86.8838 442.714 91.4123C446.951 93.8856 447.87 92.0649 447.306 89.9241C446.823 88.0857 444.505 86.7379 447.082 85.7796C455.567 82.6236 460.031 74.6741 453.903 74.1834C450.591 73.9167 451.421 69.877 453.548 69.0271C458.062 67.226 460.306 63.9278 456.953 62.5516C453.658 61.1986 452.396 59.1894 454.003 57.751C455.609 56.3144 459.737 55.4467 457.461 51.9494C456.565 50.5714 452.468 50.3172 449.922 52.5575C448.472 53.8358 445.104 58.9974 443.897 54.2057C442.653 49.2681 439.522 51.9423 439.216 54.7302C439.102 55.7686 437.302 65.2969 435.406 62.7401C433.165 59.7228 430.442 61.4937 430.819 66.3085C430.988 68.4955 432.783 73.1273 430.922 73.1326C429.062 73.138 426.478 73.7532 426.795 77.0994C427.341 82.869 431.165 97.5802 429.344 98.6968L429.343 98.6932Z" fill="#B8D99C"/>
<path d="M454.544 52.4739C454.544 52.4739 443.227 60.2668 438.004 75.2235C433.466 88.2172 431.809 94.762 427.958 101.558" stroke="white" stroke-width="0.85142" stroke-miterlimit="10" stroke-linecap="round"/>
<path d="M452.998 64.4221C452.998 64.4221 447.005 64.9875 441.502 67.4821" stroke="white" stroke-width="0.85142" stroke-miterlimit="10" stroke-linecap="round"/>
<path d="M442.314 54.2056C442.319 54.1274 440.887 63.0032 440.389 69.6032" stroke="white" stroke-width="0.85142" stroke-miterlimit="10" stroke-linecap="round"/>
<path d="M444.058 79.2524C441.926 79.7129 439.305 80.2588 436.109 80.9007" stroke="white" stroke-width="0.85142" stroke-miterlimit="10" stroke-linecap="round"/>
<path d="M432.82 63.094C432.82 63.094 436.756 74.2794 437.582 76.4094" stroke="white" stroke-width="0.85142" stroke-miterlimit="10" stroke-linecap="round"/>
<path d="M428.908 75.7639C428.908 75.7639 433.658 83.8841 433.014 89.8226" stroke="white" stroke-width="0.85142" stroke-miterlimit="10" stroke-linecap="round"/>
<path d="M5.84199 241.308C5.03219 240.9 3.9874 241.004 3.28989 241.59C2.59239 242.177 2.29519 243.22 2.60455 244.082C3.03847 245.288 4.49197 245.81 5.71666 246.125C7.67281 246.627 9.2383 246.942 11.1066 246.165C9.51796 246.199 8.89157 244.809 7.97756 243.65C7.31537 242.812 6.78916 241.786 5.84077 241.307L5.84199 241.308Z" fill="#A1CA38"/>
<path d="M37.1403 240.182C37.356 242.799 37.5692 245.417 37.7849 248.035C36.1193 246.828 34.4286 245.599 33.1595 243.968C31.8904 242.337 31.0784 240.22 31.4446 238.174C31.6911 236.801 32.6908 235.399 34.066 235.372C35.1089 235.349 36.0329 236.144 36.4963 237.094C36.9586 238.043 37.0526 239.128 37.1402 240.184L37.1403 240.182Z" fill="#A1CA38"/>
<path d="M40.1668 256.704C40.9148 254.514 41.7832 250.913 42.4134 250.136C40.5783 250.543 38.7168 250.961 37.1716 251.89C35.6264 252.819 34.4143 254.343 34.3368 256.259C34.2844 257.547 34.9447 259.147 36.2456 259.698C37.2331 260.118 38.2764 259.782 38.914 259.136C39.5517 258.49 39.8671 257.584 40.168 256.703L40.1668 256.704Z" fill="#A1CA38"/>
<path d="M57.0163 260.216L57.0086 260.224C56.8971 260.321 56.7266 260.307 56.6305 260.194C56.5677 260.12 50.1687 252.663 34.9759 247.143C22.4818 242.603 8.76065 247.175 8.62384 247.221C8.48326 247.269 8.33133 247.191 8.28341 247.05C8.23676 246.907 8.31204 246.752 8.45262 246.704C8.59072 246.656 22.4888 242.025 35.1564 246.629C50.4971 252.203 56.9739 259.764 57.038 259.84C57.1317 259.95 57.1216 260.117 57.0163 260.216Z" fill="#A1CA38"/>
<path d="M10.6243 246.243C10.6312 246.221 10.1341 246.331 9.97844 246.354C8.4498 246.717 7.31017 247.047 5.75415 247.741C4.80542 248.165 3.87756 248.692 3.18517 249.477C2.49287 250.259 2.06318 251.335 2.23952 252.371C2.41585 253.406 3.2986 254.334 4.33458 254.354C5.18 254.37 5.95169 253.813 6.46079 253.125C6.96989 252.438 7.34885 251.654 7.6481 250.849C8.35678 248.947 8.51503 247.579 10.7951 246.44L10.6255 246.244L10.6243 246.243Z" fill="#A1CA38"/>
<path d="M17.3724 245.124C15.5239 245.296 14.4313 246.017 13.3169 247.086C12.0586 248.29 11.4556 250.246 11.6946 251.983C11.8308 252.967 12.5022 254.014 13.4804 254.026C14.4523 254.039 15.1376 253.05 15.4504 252.116C15.8776 250.844 15.9589 249.48 16.2267 248.165C16.4581 247.026 16.7419 245.974 17.4882 245.175L17.3724 245.124Z" fill="#A1CA38"/>
<path d="M33.2479 246.73C30.6286 246.974 29.0811 247.998 27.5015 249.509C25.7189 251.214 24.8633 253.987 25.2026 256.447C25.3951 257.84 26.346 259.324 27.7315 259.34C29.1084 259.357 30.0805 257.957 30.5245 256.633C31.1291 254.83 31.2442 252.9 31.6245 251.035C31.9531 249.422 32.3551 247.932 33.4125 246.8L33.2492 246.729L33.2479 246.73Z" fill="#A1CA38"/>
<path d="M30.9564 245.645C29.6662 244.47 29.0203 242.807 28.4615 241.038C27.7963 238.935 27.3954 236.724 26.3711 234.778C25.837 233.763 25.1133 232.813 24.1219 232.256C23.1305 231.701 21.8378 231.607 20.8859 232.234C19.8578 232.911 19.4376 234.289 19.5979 235.522C19.7582 236.755 20.4027 237.866 21.1256 238.87C23.4602 242.114 26.5853 244.477 30.2669 245.788C30.518 245.736 30.7579 245.684 30.9565 245.643L30.9564 245.645Z" fill="#A1CA38"/>
<path d="M25.0706 244.835C24.366 245.68 23.4014 250.68 22.9286 251.981C22.6825 252.658 22.3108 253.313 21.7408 253.746C21.1707 254.178 20.374 254.349 19.7315 254.043C19.0355 253.713 18.6578 252.893 18.6539 252.112C18.65 251.331 18.9582 250.582 19.3237 249.894C20.5028 247.672 22.2496 245.928 24.4295 244.789C24.5901 244.8 24.9458 244.827 25.0706 244.835Z" fill="#A1CA38"/>
<path d="M17.3293 245.126C15.5698 243.484 15.0281 240.541 13.4783 238.631C12.7975 237.791 11.7167 237.109 10.6934 237.431C9.66757 237.752 9.1416 239.01 9.33282 240.081C9.52275 241.153 10.2611 242.043 11.0784 242.747C12.5904 244.052 14.4751 244.905 16.4395 245.193C16.6611 245.133 17.0876 245.194 17.3293 245.126Z" fill="#A1CA38"/>
<path d="M467.393 89.4147C468.203 89.0065 469.248 89.1104 469.945 89.6968C470.643 90.2833 470.94 91.3265 470.631 92.1889C470.197 93.3944 468.743 93.9162 467.519 94.2318C465.563 94.7337 463.997 95.0484 462.129 94.271C463.717 94.3052 464.344 92.915 465.258 91.7567C465.92 90.9188 466.446 89.8922 467.395 89.4133L467.393 89.4147Z" fill="#A1CA38"/>
<path d="M436.095 88.2877C435.879 90.9056 435.666 93.5235 435.45 96.1414C437.116 94.9346 438.807 93.7054 440.076 92.0744C441.345 90.4434 442.157 88.3264 441.791 86.2803C441.544 84.9068 440.545 83.5051 439.169 83.4779C438.126 83.4557 437.202 84.2506 436.739 85.2006C436.277 86.1493 436.183 87.2337 436.095 88.2903L436.095 88.2877Z" fill="#A1CA38"/>
<path d="M433.069 104.81C432.321 102.621 431.452 99.0195 430.822 98.242C432.657 98.6494 434.519 99.067 436.064 99.996C437.609 100.925 438.821 102.449 438.899 104.366C438.951 105.653 438.291 107.253 436.99 107.804C436.002 108.224 434.959 107.889 434.321 107.242C433.684 106.596 433.368 105.691 433.067 104.809L433.069 104.81Z" fill="#A1CA38"/>
<path d="M416.219 108.323L416.227 108.33C416.338 108.428 416.509 108.414 416.605 108.301C416.668 108.227 423.067 100.769 438.259 95.2492C450.754 90.7095 464.475 95.2813 464.612 95.3278C464.752 95.3753 464.904 95.2978 464.952 95.1564C464.999 95.0137 464.923 94.858 464.783 94.8104C464.645 94.7628 450.747 90.131 438.079 94.7351C422.738 100.31 416.261 107.871 416.197 107.946C416.104 108.057 416.114 108.224 416.219 108.323Z" fill="#A1CA38"/>
<path d="M462.611 94.349C462.604 94.3278 463.101 94.4374 463.257 94.4604C464.786 94.8239 465.925 95.1531 467.481 95.8477C468.43 96.2709 469.358 96.7981 470.05 97.5832C470.742 98.3659 471.172 99.4414 470.996 100.477C470.819 101.513 469.937 102.44 468.901 102.461C468.055 102.476 467.284 101.919 466.775 101.232C466.265 100.544 465.886 99.7609 465.587 98.9559C464.879 97.0531 464.72 95.6855 462.44 94.5466L462.61 94.3503L462.611 94.349Z" fill="#A1CA38"/>
<path d="M455.863 93.23C457.711 93.4029 458.804 94.1239 459.918 95.1925C461.177 96.3965 461.78 98.3524 461.541 100.09C461.405 101.074 460.733 102.121 459.755 102.132C458.783 102.145 458.098 101.156 457.785 100.222C457.358 98.95 457.276 97.5869 457.009 96.2712C456.777 95.1327 456.493 94.0805 455.747 93.281L455.863 93.23Z" fill="#A1CA38"/>
<path d="M439.987 94.8365C442.607 95.0808 444.154 96.1041 445.734 97.6155C447.516 99.3205 448.372 102.093 448.033 104.553C447.84 105.947 446.889 107.43 445.504 107.446C444.127 107.463 443.155 106.063 442.711 104.739C442.106 102.937 441.991 101.006 441.611 99.1414C441.282 97.5286 440.88 96.0381 439.823 94.9069L439.986 94.8353L439.987 94.8365Z" fill="#A1CA38"/>
<path d="M442.279 93.7517C443.569 92.5766 444.215 90.9137 444.774 89.1446C445.439 87.0417 445.84 84.8305 446.864 82.884C447.398 81.8696 448.122 80.9198 449.113 80.3625C450.105 79.8078 451.398 79.7136 452.349 80.3408C453.378 81.0179 453.798 82.3951 453.637 83.6282C453.477 84.8612 452.833 85.9729 452.11 86.9768C449.775 90.22 446.65 92.5833 442.968 93.8942C442.717 93.8421 442.477 93.7908 442.279 93.7492L442.279 93.7517Z" fill="#A1CA38"/>
<path d="M448.165 92.9415C448.869 93.7865 449.834 98.7866 450.307 100.087C450.553 100.765 450.925 101.42 451.495 101.852C452.065 102.285 452.861 102.456 453.504 102.15C454.2 101.819 454.578 101 454.581 100.218C454.585 99.4371 454.277 98.6889 453.912 98.0008C452.733 95.7787 450.986 94.0347 448.806 92.8958C448.645 92.9069 448.29 92.933 448.165 92.9415Z" fill="#A1CA38"/>
<path d="M455.906 93.2329C457.666 91.5908 458.207 88.647 459.757 86.7372C460.438 85.8972 461.519 85.2158 462.542 85.537C463.568 85.858 464.094 87.1167 463.903 88.1873C463.713 89.2591 462.974 90.1491 462.157 90.8533C460.645 92.1588 458.76 93.0116 456.796 93.2999C456.574 93.2391 456.148 93.3005 455.906 93.2329Z" fill="#A1CA38"/>
<path d="M460.098 171.007L460.098 121.063C460.098 121.063 481.039 133.083 481.039 141.817C481.039 149.944 466.256 150.249 465.516 155.438C464.776 160.626 467.743 159.673 467.735 163.871C467.723 167.817 460.098 171.007 460.098 171.007Z" fill="#E7F3F7"/>
<path d="M20.0397 226.627C13.9103 223.96 8.24438 219.354 6.80959 217.026C2.67999 210.331 11.8496 210.863 11.1424 205.477C10.3132 199.182 0.737128 203.45 0.403833 193.304C0.0705374 183.158 10.4677 187.592 13.6299 180.991C15.8654 176.327 11.4919 176.946 14.8005 170.602C15.5402 169.186 17.6619 167.317 20.0437 165.81L20.0437 226.627L20.0397 226.627Z" fill="#E7F3F7"/>
<path d="M37.3787 240.487C40.3221 240.288 47.1661 236.457 47.1289 234.64C47.0917 232.824 40.1049 229.483 37.158 229.645C33.1422 229.87 29.214 232.573 29.2776 235.566C29.3412 238.559 33.7527 240.735 37.384 240.482" fill="#3CB54A"/>
<path d="M20.099 227.398C23.0424 227.199 32.6455 224.727 32.6088 222.9C32.5716 221.084 25.1419 217.659 22.2219 217.246C16.8103 216.486 11.2854 219.138 11.3489 222.131C11.4125 225.124 16.4681 227.641 20.1043 227.393" fill="#3CB54A"/>
<path d="M54.3572 213.522C54.4213 216.721 51.9938 222.842 48.8487 222.902C45.7031 222.973 43.0241 216.952 42.9648 213.758C42.9007 210.558 45.3996 207.915 48.5399 207.85C51.6904 207.784 54.2931 210.322 54.3577 213.511" fill="#3CB54A"/>
<path d="M40.6658 201.538C40.5172 204.727 37.426 211.254 35.8833 211.242C34.4015 211.233 31.9987 204.513 32.1984 201.316C32.4491 197.246 34.6752 192.068 37.0095 192.304C38.985 192.508 40.8532 197.515 40.6658 201.538Z" fill="#3CB54A"/>
<path d="M28.7138 197.989C30.8215 201.781 32.5991 210.259 29.8606 211.834C27.1172 213.403 20.8957 207.475 18.788 203.682C16.6803 199.89 17.1928 195.538 19.9362 193.968C22.6795 192.399 26.611 194.202 28.7186 197.994" fill="#3CB54A"/>
<path d="M25.1115 203.058C25.1115 203.058 29.3315 213.376 40.5979 224.341C47.9891 231.532 54.1108 237.533 54.1108 237.533" stroke="#7EC680" stroke-width="1.41055" stroke-miterlimit="10" stroke-linecap="round"/>
<path d="M48.814 210.992L49.4551 232.747" stroke="#7EC680" stroke-width="1.41055" stroke-miterlimit="10" stroke-linecap="round"/>
<path d="M35.7908 201.463C34.089 209.769 38.5233 222.241 38.5233 222.241" stroke="#7EC680" stroke-width="1.41055" stroke-miterlimit="10" stroke-linecap="round"/>
<path d="M33.2192 235.183C39.8104 233.18 50.6664 234.651 50.6664 234.651" stroke="#7EC680" stroke-width="1.41055" stroke-miterlimit="10" stroke-linecap="round"/>
<path d="M19.3315 221.54C19.3315 221.54 30.4545 222.075 36.0244 224.559C41.5889 227.049 45.7458 229.352 45.7458 229.352" stroke="#7EC680" stroke-width="1.41055" stroke-miterlimit="10" stroke-linecap="round"/>
<path d="M391.56 269.915C390.414 267.981 385.526 264.646 384.34 265.297C383.154 265.949 383.359 271.855 384.483 273.804C386.016 276.459 389.154 278.2 391.107 277.125C393.06 276.049 392.974 272.297 391.555 269.914" fill="#3CB54A"/>
<path d="M388.883 286.186C387.737 284.252 382.794 278.57 381.602 279.225C380.416 279.877 380.719 286.113 381.453 288.243C382.817 292.187 386.473 295.032 388.426 293.956C390.378 292.881 390.295 288.573 388.878 286.184" fill="#3CB54A"/>
<path d="M367.914 267.662C370.002 266.515 374.878 266.056 376.003 268.175C377.134 270.291 374.085 274.19 371.998 275.332C369.909 276.479 367.304 275.69 366.178 273.576C365.048 271.455 365.825 268.809 367.907 267.665" fill="#3CB54A"/>
<path d="M364.728 281.11C366.884 280.112 372.256 279.964 372.78 281.018C373.285 282.029 369.68 285.981 367.502 286.948C364.73 288.181 360.546 288.452 359.897 286.782C359.35 285.368 362.01 282.37 364.728 281.11Z" fill="#3CB54A"/>
<path d="M366.508 290.467C368.283 287.725 373.264 283.591 375.247 284.912C377.229 286.237 375.463 292.515 373.688 295.257C371.912 297.999 368.864 299.151 366.883 297.825C364.901 296.5 364.735 293.203 366.51 290.461" fill="#3CB54A"/>
<path d="M371.096 291.169C371.096 291.169 376.448 284.74 379.797 273.293C381.993 265.784 383.841 259.549 383.841 259.549" stroke="#7EC680" stroke-width="1.41055" stroke-miterlimit="10" stroke-linecap="round"/>
<path d="M368.156 272.306L382.289 264.367" stroke="#7EC680" stroke-width="1.41055" stroke-miterlimit="10" stroke-linecap="round"/>
<path d="M366.36 284.453C372.427 282.747 379.127 275.429 379.127 275.429" stroke="#7EC680" stroke-width="1.41055" stroke-miterlimit="10" stroke-linecap="round"/>
<path d="M389.495 274.574C385.901 270.78 383.127 262.887 383.127 262.887" stroke="#7EC680" stroke-width="1.41055" stroke-miterlimit="10" stroke-linecap="round"/>
<path d="M385.283 288.729C385.283 288.729 381.8 280.976 381.518 276.33C381.242 271.685 381.328 268.062 381.328 268.062" stroke="#7EC680" stroke-width="1.41055" stroke-miterlimit="10" stroke-linecap="round"/>
<path d="M438.337 149.683C435.394 149.484 428.55 145.653 428.587 143.836C428.624 142.02 435.611 138.678 438.558 138.841C442.574 139.066 446.502 141.769 446.438 144.762C446.375 147.755 441.963 149.931 438.332 149.678" fill="#3CB54A"/>
<path d="M455.616 136.593C452.673 136.395 443.07 133.923 443.107 132.096C443.144 130.28 450.573 126.855 453.493 126.442C458.905 125.682 464.43 128.334 464.366 131.327C464.303 134.32 459.247 136.836 455.611 136.588" fill="#3CB54A"/>
<path d="M421.358 122.717C421.294 125.917 423.722 132.038 426.867 132.098C430.012 132.168 432.691 126.147 432.751 122.953C432.815 119.754 430.316 117.111 427.175 117.045C424.025 116.98 421.422 119.518 421.358 122.707" fill="#3CB54A"/>
<path d="M435.05 110.734C435.198 113.923 438.289 120.45 439.832 120.438C441.314 120.429 443.717 113.709 443.517 110.512C443.266 106.441 441.04 101.264 438.706 101.5C436.73 101.703 434.862 106.711 435.05 110.734Z" fill="#3CB54A"/>
<path d="M447.002 107.184C444.894 110.977 443.116 119.455 445.855 121.03C448.598 122.599 454.82 116.671 456.927 112.878C459.035 109.086 458.523 104.734 455.779 103.164C453.036 101.595 449.104 103.397 446.997 107.19" fill="#3CB54A"/>
<path d="M450.604 112.254C450.604 112.254 446.384 122.572 435.117 133.537C427.726 140.728 421.605 146.729 421.605 146.729" stroke="#7EC680" stroke-width="1.41055" stroke-miterlimit="10" stroke-linecap="round"/>
<path d="M426.901 120.188L426.26 141.943" stroke="#7EC680" stroke-width="1.41055" stroke-miterlimit="10" stroke-linecap="round"/>
<path d="M439.925 110.659C441.627 118.965 437.193 131.437 437.193 131.437" stroke="#7EC680" stroke-width="1.41055" stroke-miterlimit="10" stroke-linecap="round"/>
<path d="M442.496 144.379C435.905 142.376 425.049 143.847 425.049 143.847" stroke="#7EC680" stroke-width="1.41055" stroke-miterlimit="10" stroke-linecap="round"/>
<path d="M456.384 130.736C456.384 130.736 445.261 131.271 439.691 133.755C434.126 136.244 429.97 138.548 429.97 138.548" stroke="#7EC680" stroke-width="1.41055" stroke-miterlimit="10" stroke-linecap="round"/>
<path d="M401.062 42.369L402.296 42.774C402.296 42.774 402.908 41.1011 402.911 40.7709C402.912 40.6003 401.52 40.4923 401.511 40.7292C401.495 41.1575 401.062 42.369 401.062 42.369Z" fill="#F2F8E8"/>
<path d="M409.528 42.7297L410.763 42.6463C410.763 42.6463 410.584 41.3231 410.473 41.0175C410.416 40.8592 409.046 40.6738 409.12 40.8948C409.254 41.2949 409.528 42.7297 409.528 42.7297Z" fill="#F2F8E8"/>
<path d="M401.014 41.166C401.078 41.2519 402.752 41.5772 402.869 41.5342C402.987 41.4913 404.153 34.3883 404.519 32.8234C404.885 31.2585 406.274 29.0295 406.382 29.0209C406.489 29.0123 406.717 31.1345 406.984 33.2603C407.189 34.8989 408.788 41.3955 408.875 41.4704C408.962 41.5441 410.735 41.6754 410.848 41.5981C410.959 41.5195 409.786 34.8363 409.586 32.924C409.385 31.0118 409.24 25.4995 409.24 25.4995L403.337 25.8837C403.337 25.8837 402.422 29.8396 402.037 32.2293C401.652 34.6191 400.951 41.0826 401.015 41.1685" fill="#2D765F"/>
<g style="mix-blend-mode:multiply" opacity="0.2">
<g style="mix-blend-mode:multiply" opacity="0.2">
<g style="mix-blend-mode:multiply" opacity="0.2">
<path d="M408.279 23.7677C408.79 22.4286 409.101 22.7428 409.384 20.5593L409.43 20.3911C409.506 23.1319 409.39 26.1415 409.39 26.1415C409.39 26.1415 408.883 26.1869 407.972 26.2065C407.965 25.4529 407.99 24.5274 408.28 23.7677" fill="#333333"/>
</g>
</g>
</g>
<g style="mix-blend-mode:multiply" opacity="0.2">
<g style="mix-blend-mode:multiply" opacity="0.2">
<g style="mix-blend-mode:multiply" opacity="0.2">
<path d="M405.96 28.1348C406.119 28.1704 406.274 28.7449 406.382 29.021C406.274 29.0296 404.885 31.2586 404.519 32.8235C404.314 33.7023 403.855 36.324 403.474 38.4634C402.979 38.3087 403.446 35.4759 403.576 34.6867C404.167 31.1027 405.389 28.0084 405.96 28.1348Z" fill="#333333"/>
</g>
</g>
</g>
<path fill-rule="evenodd" clip-rule="evenodd" d="M410.976 42.8266C410.976 42.9727 410.976 43.1998 410.929 43.4796C410.765 43.4796 409.558 43.4821 406.765 43.4796C406.65 43.0868 406.65 42.9432 406.897 42.8438C407.145 42.7272 409.3 42.1062 409.3 42.1062C409.34 42.0877 409.396 42.0963 409.413 42.1368C409.413 42.1368 409.421 42.1552 409.441 42.208C409.512 42.3872 409.644 42.5382 409.644 42.5382C409.874 42.6487 410.462 42.656 410.615 42.5468C410.772 42.4351 410.756 42.2289 410.821 42.2289C410.936 42.2289 410.908 42.262 410.933 42.3516C410.933 42.3553 410.975 42.7051 410.975 42.8254" fill="#6F6E70"/>
<path fill-rule="evenodd" clip-rule="evenodd" d="M409.678 42.5529C409.737 42.8635 409.942 43.0942 410.186 43.093C410.44 43.093 410.613 42.8451 410.653 42.5161C410.642 42.5272 410.631 42.5382 410.616 42.548C410.47 42.6524 409.925 42.6499 409.678 42.5529Z" fill="#979798"/>
<path fill-rule="evenodd" clip-rule="evenodd" d="M402.588 42.8954C402.563 43.039 402.525 43.2624 402.431 43.53C402.269 43.5005 401.08 43.2931 398.329 42.8034C398.282 42.3971 398.307 42.2547 398.567 42.2007C398.83 42.1295 401.059 41.8939 401.059 41.8939C401.101 41.8828 401.156 41.9 401.167 41.9442C401.167 41.9442 401.17 41.9638 401.182 42.0191C401.222 42.2081 401.326 42.3799 401.326 42.3799C401.534 42.5284 402.113 42.6377 402.281 42.5579C402.455 42.4744 402.474 42.2695 402.539 42.2805C402.651 42.3001 402.618 42.3284 402.627 42.4204C402.627 42.4241 402.609 42.7764 402.588 42.8942" fill="#6F6E70"/>
<path fill-rule="evenodd" clip-rule="evenodd" d="M401.355 42.3997C401.362 42.7163 401.525 42.979 401.765 43.0207C402.015 43.0649 402.228 42.8513 402.322 42.5334C402.31 42.5433 402.297 42.5519 402.281 42.5592C402.12 42.6366 401.583 42.5396 401.355 42.3997Z" fill="#979798"/>
<path d="M408.559 15.4913C408.047 15.3599 406.247 15.495 405.919 15.495C405.868 15.495 405.819 15.495 405.769 15.495C405.739 15.4999 405.711 15.5035 405.686 15.5072C405.151 15.5784 404.916 15.6729 404.722 16.0301C404.268 16.8696 404.224 17.9927 404.224 17.9927C404.224 17.9927 402.112 26.296 402.439 26.3267C402.767 26.3574 404.11 26.1647 406.146 26.2077C408.183 26.2494 409.39 26.1426 409.39 26.1426C409.39 26.1426 409.675 18.7574 409.059 16.591C408.873 15.9368 408.756 15.6447 408.559 15.4925" fill="#61BD67"/>
<path d="M405.919 15.4938C405.867 15.4938 405.816 15.4938 405.767 15.4926C405.739 15.4975 405.71 15.5024 405.687 15.5049C405.63 15.5122 405.578 15.5208 405.528 15.5294C405.485 15.5662 405.392 15.6853 405.461 15.9627C405.627 16.6267 406.412 18.3782 406.412 18.3782C406.412 18.3782 407.741 16.5408 408.069 15.8731C408.142 15.7246 408.15 15.5662 408.159 15.4423C407.43 15.4042 406.188 15.4938 405.92 15.4938" fill="#C6E8C8"/>
<path d="M398.825 19.8486C398.256 19.5037 397.72 19.1134 397.72 19.1134C397.365 18.7734 397.171 18.388 397.171 18.388C397.171 18.388 396.878 17.7694 396.673 17.4933C396.619 17.4221 396.534 17.3411 396.534 17.3411C396.345 17.4294 396.677 18.0419 396.686 18.1254C396.693 18.2088 396.227 18.7035 395.382 18.4494C394.991 18.3316 395.006 18.6065 395.3 18.7354C395.343 18.7538 395.329 18.7845 395.359 18.8287C395.378 18.8557 395.428 18.8765 395.441 18.8851C395.753 19.0742 396.363 19.165 396.732 19.0152C396.732 19.0152 397.439 19.8462 398.222 20.6857L398.825 19.8474V19.8486Z" fill="#FBBCA2"/>
<path d="M406.536 23.3009C406.512 23.2891 406.536 23.3009 406.536 23.3009V23.3009Z" fill="#61BD67"/>
<g style="mix-blend-mode:multiply" opacity="0.2">
<g style="mix-blend-mode:multiply" opacity="0.2">
<g style="mix-blend-mode:multiply" opacity="0.2">
<path d="M407.444 20.9668C407.175 21.8493 407.404 22.7576 407.476 23.0374C407.738 24.0758 408.185 24.2427 408.186 25.0454C408.186 25.5892 407.983 25.9328 407.868 26.2078C408.844 26.1894 409.391 26.1403 409.391 26.1403C409.391 26.1403 409.557 21.8616 409.363 18.863C408.56 19.1294 407.726 20.0438 407.445 20.9668" fill="#333333"/>
</g>
</g>
</g>
<path d="M405.154 23.105L405.822 23.1676C405.927 23.1774 406.022 23.1062 406.044 23.0019L406.497 20.8367L404.912 20.6882L404.968 22.9012C404.97 23.008 405.051 23.0952 405.156 23.105" fill="#F2F8E8"/>
<path d="M404.91 20.6919C404.906 20.7336 405.261 20.8011 405.694 20.8416C406.125 20.8821 406.491 20.8821 406.496 20.8404C406.499 20.7987 406.136 20.7717 405.705 20.7312C405.273 20.6907 404.915 20.6502 404.911 20.6919" fill="#C6E8C8"/>
<path d="M404.838 22.1868C404.838 22.1868 404.832 21.8603 404.871 21.7941C404.771 21.648 404.793 21.4737 404.941 21.459C405.086 21.4442 405.138 21.659 405.439 21.7339C405.552 21.7621 405.787 21.7855 405.917 21.7523C406.118 21.6922 406.123 21.6038 406.187 21.5731C406.262 21.5375 406.346 21.5461 406.406 21.5878C406.549 21.6873 406.269 21.8738 406.421 22.1807C406.462 22.2298 406.979 22.4053 407.375 22.5133L407.499 23.51C407.334 23.4265 406.91 23.251 406.741 23.1822C406.459 23.0681 406.29 22.9846 406.101 22.8963C405.883 23.0448 405.241 22.679 405.046 22.5955C404.8 22.49 404.801 22.3071 404.838 22.188" fill="#FBBCA2"/>
<path d="M411.662 20.1408C411.393 19.1331 410.727 17.087 409.895 16.245C409.642 15.9885 409.356 15.7982 409.1 15.6608C408.954 15.6092 408.773 15.5491 408.573 15.4939C408.518 15.4779 408.443 15.4669 408.356 15.457C408.321 16.3236 408.513 17.6516 408.752 18.7845L408.599 18.8373C408.599 18.8373 408.833 19.4424 409.089 20.1408C409.171 20.4169 409.249 20.6342 409.315 20.7692C409.529 21.378 409.712 21.945 409.726 22.1414C409.762 22.6336 409.689 23.0239 408.988 22.8595C408.288 22.695 406.896 22.1513 406.896 22.1513L406.534 23.2976C406.563 23.3099 406.682 23.359 407.088 23.537C407.767 23.8352 410.185 24.7877 410.804 24.7546C411.632 24.7104 412.079 24.0869 412.169 22.7735C412.21 22.166 411.951 21.1043 411.661 20.1383" fill="#61BD67"/>
<path d="M405.919 15.4938C405.867 15.4938 405.816 15.4938 405.767 15.4926C405.739 15.4975 405.71 15.5024 405.687 15.5049C405.63 15.5122 405.578 15.5208 405.528 15.5294C405.485 15.5662 405.392 15.6853 405.461 15.9627C405.627 16.6267 406.412 18.3782 406.412 18.3782C406.412 18.3782 407.741 16.5408 408.069 15.8731C408.142 15.7246 408.15 15.5662 408.159 15.4423C407.43 15.4042 406.188 15.4938 405.92 15.4938" fill="#C6E8C8"/>
<path d="M405.46 15.9626C405.391 15.6852 405.484 15.5662 405.526 15.5293C405.545 15.5269 405.566 15.5232 405.585 15.5208C404.722 15.6349 404.209 16.1602 403.457 16.9863C403.12 17.341 402.097 18.7893 402.102 18.8077C401.2 20.0854 400.799 20.2646 400.264 20.218C399.868 20.1836 398.657 19.3723 398.127 19.0127L397.553 20.1345C397.965 20.5887 398.867 21.4835 399.286 21.8909C400.322 22.8974 401.121 22.9514 401.858 22.3549C402.263 22.0272 403.522 20.9029 404.048 20.2278C404.211 20.2352 404.349 19.9148 404.425 19.8252C404.623 19.5945 405.118 17.9976 405.158 17.6356C405.179 17.4367 405.442 16.9826 405.647 16.5407C405.564 16.3161 405.496 16.1124 405.458 15.9651" fill="#61BD67"/>
<path fill-rule="evenodd" clip-rule="evenodd" d="M407.819 13.1054C407.727 13.573 407.874 15.3969 407.874 15.3969C407.874 15.3969 407.825 15.5565 407.461 15.8768C407.142 16.1567 406.128 16.3224 405.791 15.7222V15.6375L405.919 13.7277C405.919 13.7277 407.91 12.6377 407.82 13.1054" fill="#FBBCA2"/>
<path d="M407.761 13.6111C407.761 13.6111 407.118 14.7599 406.068 14.8176C405.175 14.8667 404.494 14.5709 404.494 13.0845L404.489 12.6733L404.59 10.3683L408.234 10.2996C408.307 10.6224 408.287 11.5319 408.261 11.8326C408.07 12.8341 407.866 12.893 407.761 13.6098" fill="#FBBCA2"/>
<path d="M407.063 9.61459C408.29 9.6821 408.504 10.583 408.485 11.2839C408.459 12.2167 407.865 13.4318 407.792 13.6748C407.792 13.6748 407.653 13.2575 407.763 13.0746C407.959 12.7481 408 12.4339 407.897 12.2154C407.796 11.9982 407.607 12.2204 407.508 12.364C407.432 12.4744 407.256 12.3824 407.275 11.819C407.298 11.1317 407.211 10.6849 407.021 10.6702C406.944 10.664 406.823 10.6076 406.831 11.0445C406.841 11.5968 404.444 11.641 404.46 10.9893C404.481 10.1816 404.71 9.48449 407.065 9.61459" fill="#AB3D2B"/>
<g style="mix-blend-mode:multiply" opacity="0.2">
<g style="mix-blend-mode:multiply" opacity="0.2">
<g style="mix-blend-mode:multiply" opacity="0.2">
<path fill-rule="evenodd" clip-rule="evenodd" d="M406.028 14.8151C406.218 14.8053 406.394 14.7575 406.557 14.6887C406.411 14.8336 406.098 15.1159 405.823 15.1858L405.84 14.8188C405.901 14.8188 405.964 14.8188 406.029 14.8139" fill="#333333"/>
</g>
</g>
</g>
<path d="M405.13 12.7112C405.393 12.6005 405.518 12.294 405.409 12.0266C405.3 11.7592 404.998 11.6322 404.735 11.7429C404.472 11.8536 404.347 12.1601 404.456 12.4275C404.565 12.6949 404.867 12.8219 405.13 12.7112Z" stroke="#326D35" stroke-width="0.277847" stroke-miterlimit="10"/>
<path d="M406.481 12.7115C406.744 12.6007 406.869 12.2942 406.76 12.0268C406.651 11.7594 406.349 11.6324 406.086 11.7431C405.823 11.8538 405.698 12.1604 405.807 12.4278C405.916 12.6952 406.218 12.8222 406.481 12.7115Z" stroke="#326D35" stroke-width="0.277847" stroke-miterlimit="10"/>
<path d="M405.796 12.062C405.737 12.0435 405.672 12.0325 405.605 12.0325C405.537 12.0325 405.471 12.0435 405.414 12.062" stroke="#326D35" stroke-width="0.277847" stroke-miterlimit="10"/>
<path d="M406.818 12.1431L407.355 12.3051" stroke="#326D35" stroke-width="0.253802" stroke-miterlimit="10" stroke-linecap="round"/>
<path fill-rule="evenodd" clip-rule="evenodd" d="M398.338 24.5079L398.196 26.3956H397.055L396.889 24.4907L398.338 24.5079Z" fill="#69BEAD"/>
<path d="M398.416 24.2378H396.81V24.5618H398.416V24.2378Z" fill="#69BEAD"/>
<path fill-rule="evenodd" clip-rule="evenodd" d="M398.31 24.8809L398.224 26.0211H397.022L396.923 24.8809H398.31Z" fill="#3A9880"/>
<path fill-rule="evenodd" clip-rule="evenodd" d="M396.895 24.5605L396.903 24.6649H398.325L398.334 24.5605H396.895Z" fill="#E9EBEC"/>
<path d="M375.013 43.3706C375.013 43.3706 374.979 43.5277 375.065 43.6529H378.811C378.896 43.5277 378.863 43.3706 378.863 43.3706C378.85 43.3203 378.721 43.2822 378.553 43.2552C378.796 42.5188 379.342 40.793 379.342 40.1806C379.342 39.3926 378.202 37.198 378.202 37.198H376.081C376.081 37.198 374.941 39.3938 374.941 40.1806C374.941 40.7881 375.312 42.4856 375.484 43.2331C375.244 43.2601 375.03 43.3043 375.013 43.3706Z" fill="#5A5C5D"/>
<path d="M375.105 39.3975C375.105 39.3975 374.838 40.3217 374.827 40.7734C374.81 41.5196 374.905 42.8477 374.905 42.8477C374.905 42.8477 374.626 43.2404 374.665 43.4282C374.705 43.616 374.845 43.7596 375.686 43.6528C376.495 43.551 376.197 42.8084 376.197 42.8084L375.103 39.3975H375.105Z" fill="#5A5C5D"/>
<path d="M378.957 39.4133C378.957 39.4133 379.309 39.7938 379.366 40.2418C379.464 41.0212 379.263 42.8991 379.263 42.8991C379.263 42.8991 379.571 43.2391 379.532 43.4269C379.493 43.6147 379.436 43.7313 378.512 43.6515C377.699 43.5816 378.001 42.8071 378.001 42.8071L378.957 39.4121V39.4133Z" fill="#5A5C5D"/>
<g opacity="0.7">
<g opacity="0.7">
<path opacity="0.7" d="M376.48 43.6553H377.321C377.577 42.6525 378.068 40.2468 378.054 39.8688C378.036 39.3926 377.826 38.4119 377.826 38.4119L376.244 38.4573C376.244 38.4573 375.925 39.1041 376 39.9805C376.063 40.7169 376.38 42.9594 376.479 43.6565" fill="#979798"/>
</g>
</g>
<path d="M378.513 37.7809C378.145 38.1418 376.365 38.0976 375.827 37.7048L375.639 38.105C376.215 39.2587 377.969 39.2649 378.654 38.1393L378.512 37.7797L378.513 37.7809Z" fill="#58A0D4"/>
<path d="M375.43 35.2182C375.587 34.8622 377.215 34.899 377.215 34.899C377.215 34.899 378.826 34.8622 378.983 35.2182C379.14 35.5741 379.44 36.4185 379.44 36.4185L379.042 37.0003C379.042 37.0003 378.478 37.8816 378.328 38.1074C378.178 38.3321 377.689 38.6696 377.198 38.6892C376.707 38.6708 376.236 38.3333 376.086 38.1074C375.936 37.8828 375.372 37.0003 375.372 37.0003L374.974 36.4185C374.974 36.4185 375.274 35.5741 375.431 35.2182" fill="#5A5C5D"/>
<path d="M376.013 34.9015C376.013 34.9015 374.324 35.2034 374.28 35.6416C374.237 36.0786 374.565 36.9942 375.028 36.9107C375.491 36.8273 376.443 34.8094 376.013 34.9015Z" fill="#979798"/>
<path d="M378.214 34.9015C378.214 34.9015 379.903 35.2034 379.947 35.6416C379.99 36.0786 379.662 36.9942 379.199 36.9107C378.736 36.8273 377.784 34.8094 378.214 34.9015Z" fill="#979798"/>
<path d="M377.235 38.0251C377.235 38.0251 377.692 38.0374 377.719 38.1405C377.75 38.3369 377.305 38.6057 377.235 38.6057C377.165 38.6057 376.721 38.3369 376.752 38.1405C376.779 38.0374 377.235 38.0251 377.235 38.0251Z" fill="#979798"/>
<path d="M387.772 13.5471C387.727 13.1519 386.584 10.8358 390.11 10.6321L390.43 10.9254L390.777 13.5017V13.5471C390.862 14.4935 390.439 14.8519 389.334 14.9034L388.638 14.9501L388.049 14.8801L387.976 14.2431C387.873 14.0344 387.803 13.8012 387.774 13.5484" fill="#FBBCA2"/>
<path d="M390.433 10.9536L390.164 10.9647L390.489 13.309L391.03 13.3323C391.03 13.3323 390.711 12.2375 390.487 11.2506L390.433 10.9536Z" fill="#FBBCA2"/>
<path d="M384.127 27.1847C384.348 26.9515 384.391 26.787 384.418 26.6385C384.451 26.4544 384.191 26.8803 383.968 26.9417C383.839 26.9674 383.781 26.9466 383.733 26.8729C383.733 26.8729 383.714 26.8423 383.723 26.8202C383.769 26.7269 384.673 26.0224 384.977 25.8763L386.183 23.446C386.183 23.446 387.222 23.7308 387.22 23.6903C387.222 23.7185 386.272 25.1779 385.745 25.9708C385.638 26.1328 385.431 26.3807 385.356 26.4507C385.252 26.5477 385.116 26.7355 385.073 26.8005C384.928 27.0337 384.788 27.2105 384.566 27.4142C384.31 27.6487 383.668 27.9899 383.384 27.7002C383.38 27.6965 383.375 27.6928 383.373 27.6892C383.373 27.6892 383.372 27.6879 383.37 27.6867C383.233 27.5419 383.708 27.6278 384.127 27.1847Z" fill="#FBBCA2"/>
<path d="M385.304 24.3298C385.304 24.3298 384.816 25.0724 384.893 25.1399C384.97 25.2074 386.38 26.0151 386.435 26.0347C386.491 26.0543 386.739 25.9451 386.89 25.707C387.042 25.4689 387.141 25.3142 386.676 25.0626C386.21 24.811 385.485 24.5213 385.303 24.3311" fill="#9F9DC8"/>
<path d="M385.304 24.3298C385.304 24.3298 384.816 25.0724 384.893 25.1399C384.97 25.2074 386.38 26.0151 386.435 26.0347C386.491 26.0543 386.739 25.9451 386.89 25.707C387.042 25.4689 387.141 25.3142 386.676 25.0626C386.21 24.811 385.485 24.5213 385.303 24.3311" fill="#5795AD"/>
<path d="M389.799 42.774L388.789 42.7004L388.729 41.3613L389.834 41.3232L389.799 42.774Z" fill="#BEE4C0"/>
<path d="M382.92 40.7243L382.194 40.0075L383 38.9446L383.869 39.6393L382.92 40.7243Z" fill="#BEE4C0"/>
<path d="M386.362 25.0073C386.484 28.0746 386.461 28.7988 386.213 32.1483C386.084 33.8888 384.14 35.9213 382.361 39.2586C382.209 39.5434 384.229 40.707 384.411 40.4406C386.182 37.8569 388.562 34.8658 388.942 33.4653C389.427 31.6831 389.078 26.4716 389.078 26.4716L388.894 25.0589L386.362 25.0098V25.0073Z" fill="#006316"/>
<path d="M390.373 24.9963C390.373 24.9963 391.847 32.5105 391.577 33.9981C391.459 34.6523 390.597 42.1922 390.597 42.1922C390.597 42.1922 389.651 42.1639 389.043 42.1026C388.668 42.0645 388.23 41.9872 388.23 41.9872C388.14 41.5748 389.131 35.1727 388.852 34.0889C388.572 33.0051 385.975 25.4812 385.975 25.4812L390.372 24.9951L390.373 24.9963Z" fill="#178029"/>
<path d="M390.895 25.5744C390.947 25.9439 390.865 26.0899 390.147 26.2568C390.068 26.2752 388.181 26.8104 387.89 26.8889C386.704 27.2142 385.586 27.7076 385.023 27.1798C384.61 26.7944 386.144 20.709 386.652 18.0345C386.976 16.3272 387.166 15.9086 387.754 15.684C388.018 15.5834 389.16 15.916 389.527 15.905C389.527 15.905 389.715 16.2793 389.95 17.9719C390.342 20.7863 390.76 24.6195 390.895 25.5732" fill="#7EC6EB"/>
<g opacity="0.16">
<g opacity="0.16">
<path opacity="0.16" d="M389.109 36.8311C389.213 39.1484 388.928 41.1896 388.709 42.0622C388.45 42.0266 388.231 41.9874 388.231 41.9874C388.155 41.6449 388.828 37.1612 388.897 35.0366C388.993 35.438 389.073 36.0112 389.111 36.8311" fill="#201D1D"/>
</g>
</g>
<path d="M387.443 13.2097C387.308 14.949 387.457 15.7075 387.405 15.8842C387.348 16.0782 387.818 16.3359 388.236 16.3764C388.661 16.4181 389.579 16.3163 389.586 16.0732L389.487 15.678L389.304 13.7964C389.304 13.7964 387.483 12.6942 387.443 13.2085" fill="#FBBCA2"/>
<g style="mix-blend-mode:multiply" opacity="0.2">
<g style="mix-blend-mode:multiply" opacity="0.2">
<g style="mix-blend-mode:multiply" opacity="0.2">
<path fill-rule="evenodd" clip-rule="evenodd" d="M389.427 14.961L388.637 14.8076C388.637 14.8076 389.096 15.2802 389.463 15.3501L389.426 14.961H389.427Z" fill="#2D2D2D"/>
</g>
</g>
</g>
<path fill-rule="evenodd" clip-rule="evenodd" d="M388.601 42.6206C388.523 42.8317 388.552 42.914 388.552 43.0183C388.552 43.1459 388.611 43.4098 388.652 43.6541H392.482C392.753 43.4037 392.66 43.2331 392.306 43.0981C392.054 43.0257 391.895 42.9336 391.75 42.9115L389.94 42.3076C389.905 42.2917 389.821 42.2708 389.805 42.3064L389.766 42.4009L389.717 42.5224C389.512 42.6194 389.347 42.6673 389.22 42.6673C389.116 42.6673 388.973 42.6243 388.791 42.5396C388.721 42.5077 388.639 42.5384 388.606 42.6096C388.605 42.612 388.604 42.6157 388.602 42.6194" fill="#D5D5D8"/>
<path fill-rule="evenodd" clip-rule="evenodd" d="M389.242 43.2134C388.986 43.2134 388.774 42.9655 388.778 42.6587C388.778 42.6145 388.78 42.5752 388.784 42.5384C388.786 42.5384 388.788 42.5384 388.79 42.5408C388.972 42.6255 389.115 42.6685 389.219 42.6685C389.342 42.6685 389.503 42.6231 389.697 42.5322C389.701 42.5715 389.704 42.6132 389.704 42.6599C389.709 42.9655 389.497 43.2147 389.242 43.2147" fill="#6EBAE8"/>
<path fill-rule="evenodd" clip-rule="evenodd" d="M382.154 39.7717C381.963 39.8883 381.937 39.9706 381.873 40.0528C381.794 40.1534 381.679 40.3965 381.562 40.6149C381.677 40.707 382.621 41.468 384.563 43.0317C384.929 43.0059 384.961 42.8144 384.765 42.4843C384.611 42.2695 384.544 42.0964 384.443 41.9872L383.394 40.3732C383.376 40.3388 383.323 40.2688 383.289 40.286C383.289 40.286 383.202 40.3351 383.201 40.3363L383.089 40.4002C382.87 40.3474 382.71 40.2799 382.61 40.2001C382.529 40.135 382.443 40.0111 382.351 39.8294C382.316 39.7594 382.233 39.7325 382.164 39.7668C382.161 39.768 382.158 39.7705 382.155 39.7717" fill="#D5D5D8"/>
<path fill-rule="evenodd" clip-rule="evenodd" d="M382.294 40.6407C382.094 40.4787 382.081 40.151 382.27 39.9141C382.297 39.8797 382.323 39.8502 382.349 39.8232C382.349 39.8245 382.351 39.8269 382.351 39.8282C382.442 40.0098 382.529 40.1338 382.61 40.1988C382.706 40.2762 382.86 40.3412 383.069 40.394C383.048 40.4271 383.025 40.4615 382.996 40.4983C382.813 40.7413 382.495 40.8015 382.294 40.6395" fill="#6EBAE8"/>
<path d="M387.889 26.8902C387.819 26.9099 387.75 26.9295 387.68 26.9492C388.095 26.4226 388.89 25.3302 389.222 24.2869C389.683 22.8447 389.337 19.5308 389.337 19.5308L390.316 20.7999C390.326 20.8833 390.337 20.9656 390.346 21.0478C390.349 21.0711 390.352 21.0957 390.355 21.119C390.365 21.1988 390.374 21.2786 390.384 21.3571V21.3657C390.396 21.4529 390.406 21.5388 390.417 21.6247L390.424 21.6824C390.432 21.756 390.442 21.8297 390.45 21.9033C390.45 21.9144 390.453 21.9242 390.454 21.9352C390.465 22.0199 390.475 22.1046 390.484 22.1881C390.485 22.2003 390.487 22.2126 390.489 22.2261C390.498 22.2998 390.507 22.3734 390.516 22.4458C390.517 22.4606 390.519 22.4753 390.52 22.49C390.53 22.5698 390.54 22.6496 390.548 22.7281C390.548 22.7379 390.551 22.7465 390.552 22.7564C390.562 22.8361 390.571 22.9159 390.58 22.9945C390.595 23.1258 390.61 23.2522 390.626 23.3774C390.647 23.564 390.669 23.742 390.69 23.9126C390.692 23.9383 390.696 23.9641 390.699 23.9911C390.705 24.0476 390.713 24.1028 390.719 24.1568L390.721 24.1752C390.728 24.2391 390.736 24.3017 390.743 24.3618C390.744 24.3741 390.747 24.3863 390.748 24.3986C390.754 24.4538 390.761 24.5066 390.767 24.5582C390.767 24.5655 390.768 24.5729 390.769 24.5803C390.777 24.6367 390.783 24.692 390.789 24.746C390.79 24.7582 390.791 24.7693 390.794 24.7816C390.798 24.8221 390.803 24.8613 390.808 24.8994C390.811 24.9141 390.812 24.9289 390.814 24.9436C390.82 24.9902 390.825 25.0356 390.831 25.0798C390.831 25.0884 390.834 25.0958 390.835 25.1044C390.84 25.1424 390.844 25.178 390.848 25.2136C390.849 25.2234 390.85 25.232 390.852 25.2418C390.856 25.2823 390.861 25.3216 390.866 25.3584V25.3707C390.872 25.4026 390.876 25.4333 390.879 25.4615C390.879 25.4701 390.882 25.4775 390.883 25.4861C390.888 25.5168 390.892 25.5462 390.895 25.5732C390.901 25.6199 390.906 25.6628 390.907 25.7021C390.907 25.7217 390.907 25.7414 390.907 25.7598C390.904 25.8334 390.885 25.896 390.844 25.9513C390.824 25.9783 390.798 26.0041 390.766 26.0286C390.733 26.0532 390.695 26.0765 390.649 26.0986C390.533 26.1538 390.371 26.2041 390.147 26.2569C390.067 26.2753 388.181 26.8104 387.889 26.889" fill="#5795AD"/>
<path d="M393.953 23.4277C393.953 23.4277 394.71 23.8819 394.669 23.9764C394.628 24.0709 393.704 25.421 393.663 25.4628C393.622 25.5045 393.351 25.5155 393.113 25.3682C392.874 25.221 392.719 25.1252 393.03 24.6932C393.341 24.2611 393.87 23.6806 393.953 23.4277Z" fill="#9F9DC8"/>
<path d="M396.387 25.0859C396.975 25.2246 398.46 24.7582 398.614 25.5929C398.701 26.0642 398.175 25.9991 397.568 25.9832C396.978 25.9684 396.67 25.9733 395.76 25.6788L394.808 25.4701L393.226 24.7386L393.941 24.012L395.084 24.6514L396.386 25.0859H396.387Z" fill="#FBBCA2"/>
<path d="M396.896 25.1423C396.896 25.1423 397.641 25.0233 397.712 24.9607C397.785 24.8981 397.302 24.7545 396.646 24.9287C395.99 25.103 395.898 25.049 395.898 25.049L396.895 25.1435L396.896 25.1423Z" fill="#FBBCA2"/>
<path d="M393.063 22.9858C392.029 22.2629 390.118 18.5979 389.047 17.0698C388.925 16.8955 388.535 16.715 388.274 16.6426C387.43 16.4082 386.359 17.217 387.077 18.8433C387.735 20.3322 390.428 23.3516 391.355 23.9334C392.54 24.6759 393.421 25.3927 393.507 25.3657C393.593 25.3387 394.537 24.0991 394.506 23.9591C394.474 23.8192 394.096 23.7075 393.063 22.9846" fill="#7EC6EB"/>
<path d="M393.953 23.4277C393.953 23.4277 394.71 23.8819 394.669 23.9764C394.628 24.0709 393.704 25.421 393.663 25.4628C393.622 25.5045 393.351 25.5155 393.113 25.3682C392.874 25.221 392.719 25.1252 393.03 24.6932C393.341 24.2611 393.87 23.6806 393.953 23.4277Z" fill="#5795AD"/>
<path d="M382.226 17.4787C382.297 17.1546 382.445 16.8735 382.64 16.6293C383.117 16.0291 384.003 16.1727 384.218 15.6388C384.5 14.9392 383.512 14.2801 383.916 13.4933C384.531 12.2941 385.782 12.6403 386.276 12.2794C386.846 11.8621 386.452 11.2484 387.051 10.5279C387.526 9.95716 388.356 9.6405 389.105 9.79392C389.311 9.83565 389.704 9.92893 389.924 10.1143C390.297 10.3413 390.404 10.6322 390.404 10.6322C390.481 10.9661 390.423 11.2177 390.272 11.4841C390.065 11.8486 389.756 12.0032 389.453 11.9615C388.782 11.8707 388.628 11.975 388.528 12.1714C388.465 12.2954 388.582 12.3936 388.644 12.6488C388.765 13.1484 388.551 13.7474 388.204 14.0554C387.862 14.3598 387.788 14.339 387.658 14.5636C387.37 15.0558 388.163 15.8499 387.915 16.3445C387.73 16.7128 386.97 16.806 386.85 17.0073C386.731 17.2086 387.035 17.7254 387.07 18.0347C387.232 19.4535 386.274 20.7497 384.93 20.9289C383.587 21.1068 382.276 20.1605 382.157 18.7367C382.115 18.2237 382.143 17.8125 382.226 17.4811" fill="#163F59"/>
<path d="M384.114 26.862C383.87 29.7354 383.601 38.5493 380.112 39.4048C379.296 39.4968 378.845 39.0992 378.612 38.8021C378.467 38.618 378.322 38.4278 378.316 38.4106L378.079 38.5481C378.083 38.5603 378.488 39.6699 379.864 39.6699C379.965 39.6699 380.071 39.6638 380.182 39.6515C384.169 38.7248 384.037 29.4972 384.388 26.6018" fill="#58A0D4"/>
<path d="M91.6851 43.6761C91.6851 43.8977 81.5674 44.0781 69.0877 44.0781C56.6079 44.0781 46.4902 43.8977 46.4902 43.6761C46.4902 43.4545 56.6079 43.2742 69.0877 43.2742C81.5674 43.2742 91.6851 43.4545 91.6851 43.6761Z" fill="#ECECEC"/>
<path d="M52.5989 21.3516L44.9865 18.0013C44.6955 17.8731 44.3596 18.01 44.2334 18.3033L52.5989 21.986V21.3516Z" fill="#B3B2B4"/>
<path d="M50.9855 14.7031V42.5072C50.9855 43.1134 51.3 43.6044 51.6894 43.6044H70.1191V14.7031H50.9834H50.9855Z" fill="#B4B3B6"/>
<g opacity="0.9">
<path opacity="0.9" d="M70.1211 21.2971H50.9854V21.5122H70.1211V21.2971Z" fill="white"/>
</g>
<g opacity="0.9">
<path opacity="0.9" d="M70.1211 15.8286H50.9854V16.0328H70.1211V15.8286Z" fill="white"/>
</g>
<g opacity="0.9">
<path opacity="0.9" d="M70.1211 29.3516H50.9854V29.5558H70.1211V29.3516Z" fill="white"/>
</g>
<path d="M63.3006 32.3367H57.8042V32.5996H63.3006V32.3367Z" fill="white"/>
<path d="M63.3006 34.918H57.8042V35.1809H63.3006V34.918Z" fill="white"/>
<path d="M63.3006 37.5012H57.8042V37.7641H63.3006V37.5012Z" fill="white"/>
<path d="M63.3006 40.0845H57.8042V40.3474H63.3006V40.0845Z" fill="white"/>
<path opacity="0.9" d="M50.9854 17.4841H60.3564C60.8014 17.4841 61.163 17.8513 61.163 18.3032V20.0305C61.163 20.3434 60.9126 20.5976 60.6046 20.5976H50.9875V17.4841H50.9854Z" fill="white"/>
<path d="M68.6805 19.648C68.9249 19.648 69.1231 19.4467 69.1231 19.1983C69.1231 18.9499 68.9249 18.7485 68.6805 18.7485C68.436 18.7485 68.2378 18.9499 68.2378 19.1983C68.2378 19.4467 68.436 19.648 68.6805 19.648Z" fill="#E6E8EA"/>
<path d="M69.1922 18.1379H68.1294V18.416H69.1922V18.1379Z" fill="#E6E8EA"/>
<path d="M69.1922 17.5383H68.1294V17.8164H69.1922V17.5383Z" fill="#E6E8EA"/>
<path d="M52.2159 13.1018H61.0007C61.2874 13.1018 61.5184 13.3365 61.5184 13.6276V15.4049H50.9878V14.3489C50.9878 13.6602 51.5376 13.1018 52.2159 13.1018Z" fill="#B4B3B6"/>
<path d="M59.2526 13.1018H64.8603C65.04 13.1018 65.1855 13.2495 65.1855 13.432V13.7406C65.1855 13.7536 65.1748 13.7623 65.1641 13.7623H59.2505V13.0996L59.2526 13.1018Z" fill="#B4B3B6"/>
<path d="M75.9688 43.5955L78.4078 38.5005L83.0056 35.4609L84.2187 38.0204C84.2187 38.0204 80.9495 41.5597 77.9371 43.5977H75.9688V43.5955Z" fill="#5696C8"/>
<path d="M79.8236 19.1353L79.5156 21.8903C79.5156 21.8903 80.1764 22.1185 80.2106 22.1119C80.2427 22.1054 80.4138 20.1674 80.2363 18.5596L79.8236 19.1353Z" fill="#EBBEB5"/>
<path d="M77.8279 23.7697C78.7842 23.7914 79.5694 23.4981 79.7834 21.9012L79.8561 21.4101L80.237 18.5595L76.4179 18.0598C76.2682 18.4335 76.112 18.9745 75.9986 19.3308L75.4637 19.257C75.4637 19.257 75.3247 19.4742 75.3097 19.8393C75.284 20.4737 75.4637 21.2081 75.406 21.899C75.406 21.899 75.0294 23.3786 74.9289 23.6458C74.8283 23.9131 74.6058 24.1586 74.6058 24.1586C74.3319 24.428 74.8155 24.4649 74.9759 24.6214C75.406 25.0451 76.2511 25.7534 76.7325 25.7295C76.7667 25.7295 76.8886 25.7295 76.9165 25.56C76.9207 25.5274 76.9229 25.4948 76.9207 25.4557C76.9742 24.0413 77.5455 23.8023 77.8322 23.7697H77.8279Z" fill="#EBBEB5"/>
<path d="M81.4393 16.9952C81.2916 16.2 80.408 15.8415 78.9168 15.9349C78.429 15.9653 77.9647 16.0783 77.5604 16.2413C77.3186 16.0783 77.0383 15.9653 76.7281 15.924C75.6712 15.7785 75.117 16.4846 74.9801 17.5123C74.9758 17.5514 74.9737 17.5883 74.9716 17.6274C73.4226 17.5318 75.1342 20.7583 75.3117 21.1928C75.3845 21.3558 75.3973 21.3949 75.4465 21.3688C75.5385 21.3449 75.515 21.2537 75.4401 20.8778C75.3695 20.528 75.3117 20.289 75.4915 20.0435C75.669 19.8001 75.8958 19.9066 76.022 20.0978C76.0862 20.1956 76.1419 20.2825 76.2339 20.2173C76.3729 20.1195 76.2274 19.4395 76.3515 18.7855C76.5056 17.9729 79.6207 18.7703 80.4615 18.8094H80.4679C81.4671 18.4683 81.5398 17.534 81.4393 16.993V16.9952Z" fill="#CAB067"/>
<path opacity="0.3" d="M77.6644 23.7676C77.0442 23.7046 76.5053 23.4373 76.1226 23.0549C76.3385 23.4308 76.7962 23.7611 77.3907 23.9783C77.5318 23.8458 77.6794 23.7937 77.7906 23.7763C77.7478 23.7741 77.705 23.7719 77.6622 23.7676H77.6644Z" fill="#272223"/>
<path d="M76.2618 38.0639C76.2618 38.0639 74.9374 39.4696 69.8262 38.6114C69.8262 38.6114 70.5429 28.995 74.4004 24.1347C74.4732 24.05 74.6486 24.0673 74.6657 24.0739C74.6828 24.0804 74.7962 24.3715 75.4039 24.654C76.9143 25.3601 76.8801 24.8756 76.9657 24.9408C76.9892 24.9582 77.0192 25.0168 77.0598 25.1233C77.5562 26.466 76.2618 38.0617 76.2618 38.0617V38.0639Z" fill="#86CAEB"/>
<path d="M95.376 42.0662L94.1779 43.1634L92.1582 41.1623L93.6473 40.3171L95.376 42.0662Z" fill="#91B8B8"/>
<path d="M93.3673 42.3682C93.316 42.1596 93.7118 42.2726 94.0049 42.2248C95.1581 42.0314 95.111 41.7229 95.2629 41.6533C95.4127 41.5838 96.0995 42.2161 98.07 41.8076C98.8209 41.6512 99.0734 42.0705 99.1376 42.3443L93.7139 43.4784C93.7139 43.4784 93.4529 42.7158 93.3695 42.3682H93.3673Z" fill="#9E9E9F"/>
<path d="M93.6452 43.3546C93.6495 43.3307 94.4111 43.1373 95.6884 42.957C96.9657 42.7766 99.1908 42.2812 99.1908 42.2812L99.2421 42.4811C99.2421 42.4811 97.5305 42.8548 96.5934 43.0243C95.6585 43.1938 93.7564 43.6609 93.7372 43.6544C93.7179 43.6479 93.6409 43.3785 93.6452 43.3546Z" fill="#BCBBBD"/>
<path d="M95.1171 41.449L93.7906 42.8504C93.7906 42.8504 93.5446 42.3507 91.5891 41.4816C89.6335 40.6125 82.4405 35.4306 81.6489 35.0178C82.3956 34.19 82.5625 34.3899 83.6344 34.1487C84.595 33.9315 89.9994 36.5561 95.1171 41.449Z" fill="#5696C8"/>
<path opacity="0.2" d="M75.9688 43.5955L78.4078 38.5005L83.0056 35.4609L84.2187 38.0204C84.2187 38.0204 80.9495 41.5597 77.9371 43.5977H75.9688V43.5955Z" fill="#272223"/>
<path opacity="0.2" d="M95.1171 41.449L93.7906 42.8504C93.7906 42.8504 93.5446 42.3507 91.5891 41.4816C89.6335 40.6125 82.4405 35.4306 81.6489 35.0178C82.3956 34.19 82.5625 34.3899 83.6344 34.1487C84.595 33.9315 89.9994 36.5561 95.1171 41.449Z" fill="#272223"/>
<path d="M93.9788 42.0966L92.894 43.1765L90.8315 41.2232L92.2992 40.3433L93.9788 42.0966Z" fill="#91B8B8"/>
<path d="M92.0039 42.4964C92.0039 42.2813 92.3398 42.3747 92.6372 42.3986C93.8032 42.4942 93.8439 42.0879 94.0065 42.0553C94.1691 42.0249 94.8794 42.8179 96.8884 42.907C97.6543 42.9396 97.8554 43.4067 97.8533 43.6892L92.0702 43.448C92.0702 43.448 92.0039 42.8549 92.0039 42.4964Z" fill="#9E9E9F"/>
<path d="M92.034 43.3112C92.0426 43.2894 92.8299 43.2894 94.1115 43.4263C95.3931 43.5632 97.8963 43.6501 97.8963 43.6501V43.8565C97.8963 43.8565 95.9215 43.7805 94.9737 43.7153C94.0259 43.6501 92.0683 43.6371 92.0533 43.624C92.0383 43.611 92.0255 43.3329 92.0362 43.3112H92.034Z" fill="#BCBBBD"/>
<path d="M70.5681 43.5957C70.3905 43.5262 69.094 42.8679 69.8385 38.5399C69.8385 38.5399 73.8951 38.5877 74.6974 38.5399C75.8206 38.4703 78.7774 35.698 82.2755 33.7686C82.6306 33.5731 83.0393 33.4449 83.4223 33.4775C83.8266 33.5122 84.154 33.5839 84.507 33.8208C86.2015 34.9658 93.587 41.0689 93.5956 41.3253C93.602 41.5816 92.1643 42.6267 91.9525 42.6311C91.7406 42.6354 90.6623 42.0423 88.8972 41.0341C87.0359 39.9717 84.4514 38.642 83.5143 38.5377C82.8296 38.4616 80.4141 40.8842 76.2228 43.5936H70.5681V43.5957Z" fill="#5696C8"/>
<path opacity="0.12" d="M73.17 31.1808C73.6086 29.4405 73.8311 29.862 75.2346 31.5068C75.6261 31.9652 76.2038 32.3367 76.8114 32.491C76.6081 34.818 76.3792 36.9776 76.2936 37.7576C75.6026 38.2161 75.0549 38.5159 74.6954 38.5376C74.6462 38.5398 74.5863 38.5441 74.5157 38.5463C74.582 38.3595 74.6526 38.1357 74.6826 37.8445C74.7874 36.8364 74.2911 36.2041 73.6385 34.9266C72.8127 33.3166 72.9196 32.1738 73.17 31.1808Z" fill="#272223"/>
<path opacity="0.2" d="M76.2228 43.5957H70.5681C70.3905 43.5261 69.094 42.8678 69.8385 38.5398C69.8385 38.5398 69.8728 38.5398 69.9348 38.5398C70.1017 39.7587 69.9947 41.2209 70.6644 42.1487C71.3619 43.1155 73.5848 43.1307 75.5232 43.0938C76.1458 43.0807 76.6935 43.0286 77.1685 42.9678C76.8625 43.1742 76.548 43.3827 76.2228 43.5957Z" fill="#272223"/>
<path d="M88.0458 27.2438L86.9803 32.895L80.6089 33.3252L80.6431 33.8401L87.4061 33.3817L88.5464 27.3394C88.5721 27.2004 88.4823 27.0635 88.3453 27.0374C88.2084 27.0113 88.0736 27.1026 88.0479 27.2416L88.0458 27.2438Z" fill="#BCBBBD"/>
<path d="M81.598 32.2846C81.598 32.2846 82.5394 31.9522 82.625 31.9196C83.008 31.774 84.1184 31.4198 84.6682 31.9913C85.3379 32.6887 85.4192 32.8864 85.3251 32.9842C85.2972 33.0124 85.1967 33.0668 85.0812 33.019C84.803 32.9016 84.3837 32.5279 84.1569 32.5431C83.8124 32.5649 83.2027 32.8582 82.886 32.7256C82.5202 32.5736 81.2236 33.3383 81.2236 33.3383L81.6002 32.2868L81.598 32.2846Z" fill="#EBBEB5"/>
<path d="M77.004 26.0185C77.004 26.0185 76.8071 30.0423 76.7301 31.296C76.7109 31.6045 76.8114 32.0455 77.0788 32.1933C78.5658 33.0102 81.9355 31.913 81.9355 31.913L82.8127 33.4469C82.8127 33.4469 81.0776 34.0031 80.2838 34.1922C78.048 34.7267 76.2038 35.0547 74.4986 34.7831C72.2992 34.4312 74.2932 25.7295 74.2932 25.7295" fill="#86CAEB"/>
<path d="M68.8785 40.5343L69.1096 43.4262C69.1181 43.5326 69.2059 43.6152 69.3107 43.613H71.1421C71.247 43.6087 71.3347 43.5283 71.3432 43.4218L71.57 40.5321C71.5722 40.493 71.5422 40.4604 71.5037 40.4604H68.9448C68.9063 40.4604 68.8764 40.493 68.8785 40.5321V40.5343Z" fill="#E6E8EA"/>
<path d="M70.0035 41.386C69.935 41.386 69.873 41.4077 69.8196 41.4424C69.7768 41.4729 69.7404 41.512 69.7126 41.5576C69.6784 41.6141 69.6592 41.6836 69.6592 41.7553V42.8677L69.9179 42.4962H70.3478C70.5381 42.4962 70.6921 42.3311 70.6921 42.1247V41.3838H70.0035V41.386ZM70.3478 42.1268H70.0035V41.7553H70.3478V42.1268Z" fill="#98CD49"/>
<path d="M69.6592 42.4983V42.8688L69.922 42.4983H69.6592Z" fill="#43BD54"/>
<path d="M69.918 42.4984H70.005L69.9789 42.4114L69.918 42.4984Z" fill="#C0DFA6"/>
<path d="M70.696 41.7565V41.386L70.4854 41.6824L70.696 41.7565Z" fill="#C0DFA6"/>
<path d="M70.0052 41.8792L69.8472 41.9921L69.9792 42.4115L70.1784 42.1268H70.0052V41.8792Z" fill="#11AD56"/>
<path d="M70.4871 41.6824L70.6978 41.386L70.3481 41.6344L70.4871 41.6824Z" fill="#42C3A6"/>
<path d="M70.1753 41.7558H70.3512V41.8801L70.4902 41.6817L70.3512 41.6338L70.1753 41.7558Z" fill="#00BCA6"/>
<path d="M70.6918 41.386H70.0032C69.9348 41.386 69.8728 41.4077 69.8193 41.4424L70.3475 41.6315L70.6918 41.3838V41.386Z" fill="#C0DFA6"/>
<path d="M69.8494 41.9922L69.6592 42.1267V42.4976H69.9207L69.9812 42.4108L69.8494 41.9922Z" fill="#70C451"/>
<path d="M69.7135 41.5576C69.6787 41.6141 69.6592 41.6836 69.6592 41.7553V42.1269L69.8504 41.9922L69.7135 41.5576Z" fill="#78CFC6"/>
<path d="M70.0044 41.8793V41.7555H70.1755L70.3465 41.6317L69.8183 41.4426C69.7756 41.473 69.7392 41.5122 69.7114 41.5578L69.8461 41.9923L70.0023 41.8793H70.0044Z" fill="#AFD441"/>
<path d="M69.0942 42.6918L69.0792 42.4984C69.0621 42.5918 69.0129 42.6353 69.0129 42.6353C68.9594 42.6722 68.8547 42.7178 68.7349 42.7113C68.6194 42.7048 68.5211 42.6505 68.4419 42.5505C68.3714 42.4614 68.2473 42.2594 68.2174 41.9074C68.1704 41.3729 68.3265 41.1578 68.4248 41.0774C68.474 41.0383 68.5296 41.0079 68.5959 40.9905C68.6579 40.9753 68.8418 40.9471 68.9466 41.1361C68.9573 41.1578 68.968 41.1752 68.9787 41.1904L68.9124 40.6929C68.891 40.7059 68.8589 40.7168 68.8183 40.7233C68.7798 40.7233 68.737 40.7233 68.6921 40.7233C68.5617 40.7341 68.4141 40.7733 68.2858 40.8797C68.1746 40.9731 68.0912 41.1057 68.0378 41.2752C67.9822 41.4577 67.9651 41.6793 67.9864 41.9335C68.0207 42.3333 68.1575 42.5788 68.2666 42.7135C68.3863 42.8634 68.5446 42.9503 68.7221 42.959C68.752 42.959 68.782 42.959 68.8119 42.9568C68.8269 42.9568 69.045 42.9481 69.1155 42.9438C69.1027 42.8221 69.0942 42.6896 69.0942 42.6896V42.6918Z" fill="#E6E8EA"/>
<path opacity="0.09" d="M70.9449 40.4626C70.8829 41.0775 71.0646 41.8966 71.0582 42.9917C71.0582 43.0634 71.0582 43.1481 71.0112 43.2437C70.9171 43.4458 70.6947 43.5544 70.4316 43.6131H71.1416C71.2464 43.6131 71.3341 43.5305 71.3426 43.424L71.5693 40.5343C71.5714 40.4952 71.5415 40.4626 71.503 40.4626H70.9449Z" fill="#5A5B5E"/>
<path d="M128.023 34.0129H98.8467V4.38379H128.023V34.0129ZM123.254 9.22674H103.616V29.17H123.254V9.22457V9.22674Z" fill="#E9F3F7"/>
<path d="M414.155 262.424H413.592V291.406H414.155V262.424Z" fill="#A9D6AB"/>
<path d="M397.819 262.424H397.257V291.406H397.819V262.424Z" fill="#A9D6AB"/>
<path d="M402.933 280.303C402.933 280.303 402.67 283.977 402.602 284.703C402.533 285.426 402.36 286.17 402.36 286.17L404.647 286.524C404.647 286.524 404.66 283.827 404.754 283.034C404.848 282.241 404.917 280.349 404.917 280.349L402.933 280.305V280.303Z" fill="#EAAB94"/>
<path d="M406.283 288.607L405.813 288.74C405.813 288.74 405.988 289.075 406.093 289.631C406.119 289.774 406.213 290.05 406.213 290.05C406.551 290.054 406.328 288.964 406.307 288.829C406.298 288.777 406.251 288.699 406.286 288.607H406.283Z" fill="#EACBA9"/>
<path d="M414.563 290.087H396.21V291.551H414.563V290.087Z" fill="#44BA54"/>
<path d="M397.693 298.389L396.925 301.865L396.985 302.463L393.194 303.327L392.918 303.056C392.918 303.056 395.079 302.067 395.543 301.691C396.007 301.315 396.307 297.817 396.307 297.817L397.695 298.387L397.693 298.389Z" fill="#EAAB94"/>
<path fill-rule="evenodd" clip-rule="evenodd" d="M397.3 302.495C397.317 302.663 397.347 302.921 397.325 303.247C397.135 303.269 395.667 303.432 392.43 303.79C392.248 303.356 392.231 303.191 392.505 303.047C392.777 302.882 395.267 301.744 395.267 301.744C395.31 301.717 395.368 301.733 395.393 301.776L395.47 301.893L395.725 302.339C396.005 302.434 396.688 302.367 396.852 302.224C397.017 302.08 396.882 301.861 397.013 301.835C397.143 301.809 397.156 301.859 397.197 301.959C397.197 301.963 397.289 302.356 397.304 302.495H397.3Z" fill="#6CC272"/>
<path d="M405.291 286.969L399.489 287.069C399.489 287.069 396.568 287.082 395.976 289.787C395.511 291.91 394.876 300.322 394.876 300.322L398.254 300.666C398.254 300.666 398.383 293.635 399.949 291.349C400.811 290.091 403.057 290.128 405.291 290.141V286.967V286.969Z" fill="#2B9B3D"/>
<path opacity="0.12" d="M405.291 286.969L399.489 287.069C399.489 287.069 396.568 287.082 395.976 289.787C395.511 291.91 394.876 300.322 394.876 300.322L398.254 300.666C398.254 300.666 398.383 293.635 399.949 291.349C400.811 290.091 403.057 290.128 405.291 290.141V286.967V286.969Z" fill="#272223"/>
<path d="M400.59 298.88L401.232 303.049L398.1 304.716L397.71 304.409C397.71 304.409 399.634 303.195 399.779 302.808C399.925 302.421 399.007 298.915 399.007 298.915L400.59 298.882V298.88Z" fill="#EAAB94"/>
<path d="M401.377 291.467C400.387 292.503 401.303 301.287 401.303 301.287L397.015 301.122C397.015 301.122 395.32 287.871 399.082 287.043C399.828 286.878 400.312 286.928 404.107 286.889C404.563 286.884 404.454 285.794 404.454 285.794C405.962 285.527 410.169 285.068 410.169 285.068C410.744 286.739 411.243 288.39 410.783 289.661C410.325 290.932 409.614 291.145 408.249 291.236C406.72 291.339 401.899 290.921 401.377 291.467Z" fill="#2B9B3D"/>
<g style="mix-blend-mode:multiply" opacity="0.1">
<path d="M414.148 286.741C412.751 285.909 408.994 284.162 408.99 285.991C408.988 287.649 407.984 289.183 407.113 289.748C405.059 291.08 403.448 289.505 402.066 290.452C400.554 291.488 401.846 296.129 403.686 298.241C406.108 301.02 409.522 299.718 412.693 297.337C416.57 294.426 416.542 288.168 414.146 286.743L414.148 286.741Z" fill="#3A3A3A"/>
</g>
<path d="M401.157 275.975C401.324 275.499 401.607 275.141 401.994 274.843C402.548 274.42 402.974 273.992 403.333 273.375C404.005 272.219 403.706 270.522 404.146 269.24C404.155 269.214 404.388 269.559 404.401 269.538C404.369 270.107 404.566 270.722 404.792 271.226C405.111 271.941 405.608 272.768 406.339 273.068C406.474 273.461 406.656 273.809 406.831 274.187C407.039 274.637 407.069 274.765 407.409 274.654C407.422 275.31 407.356 275.934 407.246 276.397C406.819 278.226 405.419 279.473 403.472 279.167C401.859 278.913 400.59 277.598 401.157 275.973V275.975Z" fill="#704A40"/>
<path d="M409.508 275.547C409.508 275.547 408.468 275.447 408.365 275.323C407.987 274.863 407.903 272.332 407.903 272.332L405.691 273.396C405.691 273.396 405.888 274.487 405.871 275.221C405.862 275.536 405.387 275.621 404.927 275.704L404.839 277.585L406.5 278.93L409.578 277.027L409.512 275.547H409.508Z" fill="#EAAB94"/>
<path d="M406.598 274.094C405.603 274.448 404.627 274.385 404.324 273.394C404.324 273.394 403.904 272.034 404.063 269.792C404.063 269.764 404.311 269.442 404.311 269.442C404.85 269.025 405.873 268.26 406.855 268.629C408.506 269.249 408.085 271.013 408.102 271.35C408.117 271.643 408.209 271.988 407.997 272.536C407.997 272.536 407.591 273.74 406.598 274.094Z" fill="#EAAB94"/>
<path d="M405.721 277.281C407.028 277.392 407.858 277.281 407.963 275.454C407.963 275.454 410.321 276.514 410.023 276.401C410.023 276.401 409.865 278.435 410.034 281.022C410.338 285.624 410.603 285.466 410.631 286.046C410.642 286.28 407.518 286.361 407.409 286.352C407.062 286.322 404.416 286.406 404.349 286.167C404.283 285.928 404.131 282.007 404.016 281.32C403.827 280.206 403.566 279.108 403.999 278.391C404.431 277.677 404.397 275.899 404.397 275.899L405.231 275.606C405.231 275.606 404.313 277.162 405.719 277.281H405.721Z" fill="#5696C8"/>
<path d="M404.505 275.788C404.086 275.993 403.757 276.043 403.194 277.342C402.834 278.174 402.633 279.295 402.533 280.892C402.526 281.009 403.759 281.331 403.759 281.331C403.759 281.331 404.565 281.67 404.696 281.666C405.214 281.65 405.265 280.431 404.893 278.635C404.428 276.388 405.256 275.76 405.357 275.567C405.374 275.536 404.544 275.767 404.505 275.786V275.788Z" fill="#5696C8"/>
<path opacity="0.2" d="M407.158 273.766C406.998 273.9 406.811 274.018 406.598 274.094C406.33 274.189 406.065 274.252 405.815 274.276C405.828 274.391 405.838 274.511 405.849 274.63C406.072 274.613 406.309 274.554 406.512 274.433C406.811 274.25 407.021 274.013 407.16 273.768L407.158 273.766Z" fill="#78797C"/>
<g style="mix-blend-mode:multiply" opacity="0.1">
<path d="M410.63 286.048C410.602 285.483 410.35 285.618 410.057 281.37C409.685 281.466 408.872 281.796 408.84 282.874C408.8 284.221 409.026 285.392 408.988 286.298C409.807 286.25 410.637 286.17 410.63 286.048Z" fill="#3A3A3A"/>
</g>
<path d="M405.404 287.558L403.535 285.7C403.5 285.663 403.457 285.639 403.41 285.626L398.128 284.275C398.064 284.26 397.942 284.449 397.965 284.512L398.49 285.922C398.524 286.011 398.599 286.078 398.691 286.1L405.231 287.723C405.332 287.754 405.447 287.599 405.407 287.551L405.404 287.558Z" fill="#9E9E9F"/>
<path d="M405.411 287.532L403.654 285.609C403.62 285.572 403.577 285.548 403.53 285.535L398.164 284.286C398.1 284.271 398.044 284.336 398.068 284.399L398.609 285.833C398.644 285.922 398.718 285.989 398.81 286.011L405.351 287.634C405.411 287.649 405.454 287.575 405.411 287.53V287.532Z" fill="#BCBBBD"/>
<path d="M398.461 284.553C398.502 284.575 398.958 285.696 398.958 285.696L404.488 287.082L403.404 285.761L398.461 284.553Z" fill="#DBDBDD"/>
<path d="M405.117 286.791C405.117 286.791 402.779 286.876 402.606 286.869C402.432 286.865 402.005 286.739 402.005 286.739C401.78 286.661 401.527 286.532 401.346 286.389C401.147 286.233 401.037 286.165 401.037 286.165C400.941 286.198 400.95 286.287 401.035 286.4C401.294 286.743 401.403 286.769 401.403 286.769C401.403 286.769 401.348 286.761 401.215 286.726C401.215 286.726 400.834 286.635 400.809 286.619C400.642 286.559 400.415 286.478 400.372 286.519C400.376 286.606 400.396 286.637 400.432 286.691C400.548 286.863 400.618 286.993 401.003 287.163C401.403 287.343 401.566 287.434 401.983 287.402C402.492 287.362 404.527 287.73 405.186 287.782L405.12 286.787L405.117 286.791Z" fill="#EAAB94"/>
<path d="M409.957 281.238C409.957 281.238 410.612 285.046 409.66 286.052C408.667 287.104 405.019 286.7 404.153 286.815C404.061 286.828 404.024 287.508 404.067 287.571C404.11 287.634 410.259 288.779 411.23 287.979C412.653 286.806 412 280.636 412 280.636L411.2 280.846L409.955 281.238H409.957Z" fill="#EAAB94"/>
<path d="M408.288 275.532C408.613 275.532 409.719 275.423 410.211 275.741C411.647 276.664 411.829 279.337 412.171 280.66C412.216 280.834 411.292 281.001 410.241 281.333C409.704 281.503 409.368 281.753 409.334 281.579C408.919 279.469 407.552 275.536 408.288 275.532Z" fill="#5696C8"/>
<path d="M409.908 274.439C409.55 272.264 409.262 271.147 408.953 270.028C408.707 269.192 408.397 268.581 407.218 268.153C404.816 267.284 403.543 268.647 403.588 270.013C403.592 270.146 403.923 270.339 404.06 270.298C404.771 270.087 405.507 270.391 406.174 270.033C406.662 269.772 406.885 269.292 407.148 268.834C407.109 269.277 407.069 270.018 407.242 270.437C407.486 271.028 407.886 270.939 408.04 271.51C408.128 271.834 407.899 272.292 407.693 273.379C407.473 274.546 407.334 275.604 407.308 276.794C407.291 277.605 407.109 278.446 408.286 279.071C408.767 279.328 409.262 279.291 409.715 279.002C411.093 278.124 410.062 275.877 409.903 274.439H409.908Z" fill="#704A40"/>
<path d="M110.357 25.8056C110.49 26.1601 110.825 26.3939 111.196 26.3939C111.567 26.3939 111.902 26.1601 112.035 25.8056L113.231 22.5546C113.268 22.4565 113.343 22.3736 113.439 22.3359L116.641 21.1139C116.99 20.9781 117.22 20.6387 117.22 20.2615C117.22 19.8844 116.99 19.5374 116.641 19.4092L113.439 18.1872C113.343 18.1495 113.261 18.0741 113.224 17.976L112.021 14.725C111.865 14.4007 111.538 14.1895 111.181 14.1895C110.825 14.1895 110.498 14.4007 110.342 14.725L109.139 17.976C109.101 18.0741 109.027 18.1495 108.931 18.1872L105.729 19.4092C105.38 19.545 105.15 19.8844 105.15 20.2615C105.15 20.6387 105.38 20.9781 105.729 21.1139L108.931 22.3359C109.027 22.3736 109.101 22.449 109.146 22.5546L110.349 25.8056H110.357Z" fill="#27AA27"/>
<path d="M124.937 37.6254C125.019 37.8516 125.234 38.0025 125.472 38.0025C125.709 38.0025 125.917 37.8516 126.007 37.6254L126.764 35.5661C126.786 35.5058 126.838 35.453 126.898 35.4304L128.926 34.661C129.148 34.578 129.297 34.3592 129.297 34.1179C129.297 33.8765 129.148 33.6578 128.926 33.5748L126.898 32.7978C126.838 32.7752 126.786 32.7224 126.764 32.6621L126.007 30.6029C125.91 30.3917 125.702 30.2634 125.472 30.2634C125.242 30.2634 125.041 30.3992 124.937 30.6029L124.179 32.6621C124.157 32.7224 124.105 32.7752 124.046 32.7978L122.018 33.5748C121.795 33.6578 121.646 33.8765 121.646 34.1179C121.646 34.3592 121.795 34.578 122.018 34.661L124.046 35.4379C124.105 35.4605 124.157 35.5133 124.179 35.5737L124.944 37.6329L124.937 37.6254Z" fill="#27AA27"/>
<path d="M134.49 22.3435C134.601 22.6452 134.883 22.8488 135.203 22.8488C135.522 22.8488 135.804 22.6452 135.916 22.3435L136.933 19.5828C136.963 19.4998 137.03 19.4319 137.112 19.4017L139.83 18.3683C140.127 18.2552 140.328 17.9686 140.328 17.6442C140.328 17.3199 140.127 17.0332 139.83 16.9201L137.112 15.8792C137.03 15.849 136.963 15.7811 136.933 15.6981L135.916 12.9374C135.782 12.6583 135.507 12.4773 135.203 12.4773C134.898 12.4773 134.623 12.6583 134.49 12.9374L133.472 15.6981C133.442 15.7811 133.375 15.849 133.294 15.8792L130.575 16.9201C130.278 17.0332 130.078 17.3199 130.078 17.6442C130.078 17.9686 130.278 18.2552 130.575 18.3683L133.294 19.4017C133.375 19.4319 133.442 19.4998 133.472 19.5828L134.497 22.3435H134.49Z" fill="#8EC641"/>
<path d="M339.119 18.1381C338.889 18.1381 338.667 18.1614 338.449 18.2023C338.457 18.0856 338.462 17.9671 338.462 17.8485C338.462 14.9101 336.116 12.5274 333.222 12.5274C332.331 12.5274 331.492 12.7548 330.758 13.1532C330.025 9.26439 326.658 6.32397 322.613 6.32397C319.528 6.32397 316.837 8.03614 315.409 10.5743C314.104 9.278 312.321 8.47924 310.351 8.47924C306.355 8.47924 303.117 11.7675 303.117 15.8254C303.117 16.1461 303.138 16.4629 303.177 16.7719C302.568 16.5367 301.91 16.4065 301.221 16.4065C298.186 16.4065 295.727 18.9038 295.727 21.9861H342.904C342.904 19.8619 341.208 18.1401 339.117 18.1401" fill="#DFF2F8"/>
<g clip-path="url(#clip1_104_7108)">
<path d="M48.1835 122.927C73.5707 122.927 94.1502 143.507 94.1502 168.894C94.1502 194.281 73.5707 214.861 48.1835 214.861C22.7963 214.861 2.2168 194.277 2.2168 168.89C2.2168 143.507 22.7963 122.927 48.1835 122.927Z" fill="#EBF3E0"/>
<path d="M73.3467 266.613L73.3467 244.772L97.7203 244.772L97.7203 266.613L73.3467 266.613Z" fill="#96CAE5"/>
<path d="M51.2094 292.438C51.1345 292.632 50.9451 292.758 50.7361 292.754C50.5271 292.75 50.3457 292.616 50.2747 292.423L49.6436 290.628C49.6239 290.573 49.5805 290.53 49.5293 290.506L47.7624 289.804C47.5691 289.729 47.4429 289.54 47.4469 289.331C47.4508 289.122 47.5849 288.94 47.7782 288.869L49.5727 288.234C49.6279 288.214 49.6713 288.175 49.691 288.12L50.393 286.349C50.4837 286.172 50.6651 286.061 50.8663 286.065C51.0635 286.069 51.2449 286.187 51.3277 286.369L51.9627 288.163C51.9824 288.218 52.0218 288.262 52.0771 288.282L53.8439 288.984C54.0372 289.058 54.1634 289.248 54.1595 289.457C54.1555 289.666 54.0214 289.847 53.8282 289.918L52.0337 290.553C51.9785 290.573 51.9351 290.616 51.9154 290.668L51.2094 292.438Z" fill="#A1CA38"/>
<path d="M44.0671 298.709C44.0237 298.816 43.9212 298.883 43.8068 298.883C43.6924 298.879 43.5938 298.808 43.5544 298.701L43.2073 297.723C43.1955 297.692 43.1718 297.668 43.1442 297.656L42.1779 297.274C42.0714 297.23 42.0044 297.128 42.0044 297.017C42.0083 296.903 42.0793 296.804 42.1858 296.765L43.1639 296.418C43.1955 296.406 43.2191 296.386 43.231 296.355L43.6135 295.388C43.6609 295.29 43.7634 295.231 43.8699 295.231C43.9803 295.235 44.075 295.298 44.1223 295.396L44.4694 296.374C44.4812 296.406 44.5009 296.426 44.5325 296.438L45.4987 296.82C45.6052 296.864 45.6723 296.966 45.6723 297.08C45.6683 297.195 45.5973 297.293 45.4908 297.333L44.5127 297.68C44.4812 297.692 44.4575 297.715 44.4457 297.743L44.0671 298.709Z" fill="#27A527"/>
<path d="M35.1698 296.327C35.1382 296.41 35.0554 296.461 34.9687 296.461C34.8819 296.461 34.803 296.402 34.7715 296.319L34.5033 295.554C34.4954 295.531 34.4757 295.511 34.4559 295.503L33.7027 295.203C33.6198 295.172 33.5646 295.089 33.5686 295.002C33.5686 294.911 33.6277 294.836 33.7105 294.805L34.4757 294.533C34.4993 294.525 34.519 294.505 34.5269 294.485L34.8267 293.732C34.8661 293.657 34.945 293.61 35.0278 293.61C35.1146 293.61 35.1895 293.661 35.225 293.74L35.4971 294.505C35.505 294.529 35.5248 294.549 35.5445 294.556L36.2978 294.856C36.3806 294.888 36.4358 294.971 36.4319 295.057C36.4319 295.144 36.3727 295.223 36.2899 295.254L35.5248 295.527C35.5011 295.535 35.4814 295.554 35.4735 295.578L35.1698 296.327Z" fill="#B5D699"/>
<path d="M48.5894 160.002L48.5894 173.305L48.1831 173.305L48.1831 160.002L48.5894 160.002Z" fill="#D9D9D9"/>
<path d="M96.8727 154.791L97.6852 156.613L48.5791 156.613L48.6422 154.791L96.8727 154.791Z" fill="#8C8C8C"/>
<path d="M97.6851 187.987L97.6851 156.609L51.2254 156.609C51.0676 156.609 50.9414 156.735 50.9414 156.893L50.9414 187.991L97.6851 187.991L97.6851 187.987Z" fill="#CDCBCB"/>
<path d="M48.1964 171.509L45.6959 171.509C45.2069 171.509 44.8125 171.904 44.8125 172.393L44.8125 184.812C44.8125 186.567 46.2363 187.991 47.9913 187.991L54.7789 187.991C54.7867 187.991 58.5769 187.979 58.5769 187.979L58.5769 156.609C58.5769 156.609 54.7828 156.609 54.7631 156.609L48.579 156.609C48.579 156.609 48.575 156.609 48.575 156.613L48.575 171.13C48.575 171.34 48.4054 171.509 48.1964 171.509Z" fill="#CDCBCB"/>
<path d="M50.6143 187.991L50.6143 156.609L50.9455 156.609L50.9455 187.991L50.6143 187.991Z" fill="#808080"/>
<path d="M80.5527 167.754L80.5527 176.785L80.182 176.785L80.182 167.754L80.5527 167.754Z" fill="#E5E5E5"/>
<path d="M84.856 167.754L84.856 176.785L84.4852 176.785L84.4852 167.754L84.856 167.754Z" fill="#E5E5E5"/>
<path d="M89.1558 167.754L89.1558 176.785L88.785 176.785L88.785 167.754L89.1558 167.754Z" fill="#E5E5E5"/>
<path d="M93.459 167.754L93.459 176.785L93.0883 176.785L93.0883 167.754L93.459 167.754Z" fill="#E5E5E5"/>
<path d="M55.5125 167.12L55.5125 161.779C55.5125 160.797 54.7197 160.005 53.7377 160.005L53.43 160.005C52.448 160.005 51.6553 160.797 51.6553 161.779L51.6553 167.12C51.6553 168.102 52.448 168.894 53.43 168.894L53.7377 168.894C54.7158 168.894 55.5125 168.098 55.5125 167.12Z" fill="#D5E7F6"/>
<path d="M55.2913 158.459C55.2913 158.862 54.9646 159.188 54.5617 159.188C54.1587 159.188 53.832 158.862 53.832 158.459C53.832 158.056 54.1587 157.729 54.5617 157.729C54.9646 157.729 55.2913 158.056 55.2913 158.459Z" fill="#D5E7F6"/>
<path d="M53.2979 157.611L53.2979 159.358L52.8482 159.358L52.8482 157.611L53.2979 157.611Z" fill="#D5E7F6"/>
<path d="M52.3267 157.611L52.3267 159.358L51.8771 159.358L51.8771 157.611L52.3267 157.611Z" fill="#D5E7F6"/>
<path d="M69.8335 187.932L69.8335 156.613L70.1648 156.613L70.1648 187.932L69.8335 187.932Z" fill="#808080"/>
<path d="M75.543 187.932L75.543 156.613L75.8743 156.613L75.8743 187.932L75.543 187.932Z" fill="#808080"/>
<path d="M47.171 157.106C46.7924 157.106 46.4808 157.414 46.4808 157.796L46.4808 166.575C45.4909 167.088 44.8125 168.121 44.8125 169.312L44.8125 180.821L47.167 180.821L47.167 166.315L47.171 157.106Z" fill="#A6A6A6"/>
<path d="M65.4276 170.062L58.8018 170.062C58.0367 170.062 57.4175 170.681 57.4175 171.446L57.4175 187.987L65.4316 187.987L65.4316 170.062L65.4276 170.062Z" fill="#D8D6D6"/>
<path d="M52.4753 165.59L48.2715 162.566L50.2865 159.765L54.4903 162.789L52.4753 165.59Z" fill="white" stroke="#6A7885" stroke-width="0.345135" stroke-miterlimit="10"/>
<path d="M35.6353 221.952L35.6353 192.874L97.6893 192.874L97.6893 221.952L35.6353 221.952Z" fill="#2DA34A"/>
<path d="M48.5635 198.868L48.5635 197.161L49.2103 197.161L49.2103 198.868L48.5635 198.868Z" fill="#3CB04A"/>
<path d="M48.5635 203.747L48.5635 202.039L49.2103 202.039L49.2103 203.747L48.5635 203.747Z" fill="#3CB04A"/>
<path d="M48.5635 208.63L48.5635 206.922L49.2103 206.922L49.2103 208.63L48.5635 208.63Z" fill="#3CB04A"/>
<path d="M48.5635 213.508L48.5635 211.801L49.2103 211.801L49.2103 213.508L48.5635 213.508Z" fill="#3CB04A"/>
<path d="M48.5635 218.391L48.5635 216.683L49.2103 216.683L49.2103 218.391L48.5635 218.391Z" fill="#3CB04A"/>
<path d="M45.6846 198.868L45.6846 197.161L48.5636 197.161L48.5636 198.868L45.6846 198.868Z" fill="#9DCF9F"/>
<path d="M45.6846 203.747L45.6846 202.039L48.5636 202.039L48.5636 203.747L45.6846 203.747Z" fill="#9DCF9F"/>
<path d="M45.6846 208.63L45.6846 206.922L48.5636 206.922L48.5636 208.63L45.6846 208.63Z" fill="#9DCF9F"/>
<path d="M45.6846 213.508L45.6846 211.801L48.5636 211.801L48.5636 213.508L45.6846 213.508Z" fill="#9DCF9F"/>
<path d="M45.6846 218.391L45.6846 216.683L48.5636 216.683L48.5636 218.391L45.6846 218.391Z" fill="#9DCF9F"/>
<path d="M54.4746 198.872L54.4746 197.165L55.1214 197.165L55.1214 198.872L54.4746 198.872Z" fill="#3CB04A"/>
<path d="M54.4746 203.755L54.4746 202.047L55.1214 202.047L55.1214 203.755L54.4746 203.755Z" fill="#3CB04A"/>
<path d="M54.4746 208.634L54.4746 206.926L55.1214 206.926L55.1214 208.634L54.4746 208.634Z" fill="#3CB04A"/>
<path d="M54.4746 213.512L54.4746 211.804L55.1214 211.804L55.1214 213.512L54.4746 213.512Z" fill="#3CB04A"/>
<path d="M54.4746 218.395L54.4746 216.687L55.1214 216.687L55.1214 218.395L54.4746 218.395Z" fill="#3CB04A"/>
<path d="M51.5962 198.872L51.5962 197.165L54.4753 197.165L54.4753 198.872L51.5962 198.872Z" fill="#9DCF9F"/>
<path d="M51.5962 203.755L51.5962 202.047L54.4753 202.047L54.4753 203.755L51.5962 203.755Z" fill="#9DCF9F"/>
<path d="M51.5962 208.634L51.5962 206.926L54.4753 206.926L54.4753 208.634L51.5962 208.634Z" fill="#9DCF9F"/>
<path d="M51.5962 213.512L51.5962 211.804L54.4753 211.804L54.4753 213.512L51.5962 213.512Z" fill="#9DCF9F"/>
<path d="M51.5962 218.395L51.5962 216.687L54.4753 216.687L54.4753 218.395L51.5962 218.395Z" fill="#9DCF9F"/>
<path d="M60.3911 198.872L60.3911 197.165L61.0379 197.165L61.0379 198.872L60.3911 198.872Z" fill="#3CB04A"/>
<path d="M60.3916 203.755L60.3916 202.047L61.0384 202.047L61.0384 203.755L60.3916 203.755Z" fill="#3CB04A"/>
<path d="M60.3916 208.634L60.3916 206.926L61.0384 206.926L61.0384 208.634L60.3916 208.634Z" fill="#3CB04A"/>
<path d="M60.3916 213.512L60.3916 211.804L61.0384 211.804L61.0384 213.512L60.3916 213.512Z" fill="#3CB04A"/>
<path d="M60.3916 218.395L60.3916 216.687L61.0384 216.687L61.0384 218.395L60.3916 218.395Z" fill="#3CB04A"/>
<path d="M57.5122 198.872L57.5122 197.165L60.3913 197.165L60.3913 198.872L57.5122 198.872Z" fill="#9DCF9F"/>
<path d="M57.5122 203.755L57.5122 202.047L60.3913 202.047L60.3913 203.755L57.5122 203.755Z" fill="#9DCF9F"/>
<path d="M57.5122 208.634L57.5122 206.926L60.3913 206.926L60.3913 208.634L57.5122 208.634Z" fill="#9DCF9F"/>
<path d="M57.5122 213.512L57.5122 211.804L60.3913 211.804L60.3913 213.512L57.5122 213.512Z" fill="#9DCF9F"/>
<path d="M57.5122 218.395L57.5122 216.687L60.3913 216.687L60.3913 218.395L57.5122 218.395Z" fill="#9DCF9F"/>
<path d="M66.3027 198.872L66.3027 197.165L66.9495 197.165L66.9495 198.872L66.3027 198.872Z" fill="#3CB04A"/>
<path d="M66.3027 203.755L66.3027 202.047L66.9495 202.047L66.9495 203.755L66.3027 203.755Z" fill="#3CB04A"/>
<path d="M66.3027 208.634L66.3027 206.926L66.9495 206.926L66.9495 208.634L66.3027 208.634Z" fill="#3CB04A"/>
<path d="M66.3027 213.512L66.3027 211.804L66.9495 211.804L66.9495 213.512L66.3027 213.512Z" fill="#3CB04A"/>
<path d="M66.3027 218.395L66.3027 216.687L66.9495 216.687L66.9495 218.395L66.3027 218.395Z" fill="#3CB04A"/>
<path d="M63.4238 198.872L63.4238 197.165L66.3029 197.165L66.3029 198.872L63.4238 198.872Z" fill="#9DCF9F"/>
<path d="M63.4238 203.755L63.4238 202.047L66.3029 202.047L66.3029 203.755L63.4238 203.755Z" fill="#9DCF9F"/>
<path d="M63.4238 208.634L63.4238 206.926L66.3029 206.926L66.3029 208.634L63.4238 208.634Z" fill="#9DCF9F"/>
<path d="M63.4238 213.512L63.4238 211.804L66.3029 211.804L66.3029 213.512L63.4238 213.512Z" fill="#9DCF9F"/>
<path d="M63.4238 218.395L63.4238 216.687L66.3029 216.687L66.3029 218.395L63.4238 218.395Z" fill="#9DCF9F"/>
<path d="M72.2148 198.872L72.2148 197.165L72.8617 197.165L72.8617 198.872L72.2148 198.872Z" fill="#3CB04A"/>
<path d="M72.2148 203.755L72.2148 202.047L72.8617 202.047L72.8617 203.755L72.2148 203.755Z" fill="#3CB04A"/>
<path d="M72.2148 208.634L72.2148 206.926L72.8617 206.926L72.8617 208.634L72.2148 208.634Z" fill="#3CB04A"/>
<path d="M72.2148 213.512L72.2148 211.804L72.8617 211.804L72.8617 213.512L72.2148 213.512Z" fill="#3CB04A"/>
<path d="M72.2148 218.395L72.2148 216.687L72.8617 216.687L72.8617 218.395L72.2148 218.395Z" fill="#3CB04A"/>
<path d="M69.3354 198.872L69.3354 197.165L72.2145 197.165L72.2145 198.872L69.3354 198.872Z" fill="#9DCF9F"/>
<path d="M69.3354 203.755L69.3354 202.047L72.2145 202.047L72.2145 203.755L69.3354 203.755Z" fill="#9DCF9F"/>
<path d="M69.3354 208.634L69.3354 206.926L72.2145 206.926L72.2145 208.634L69.3354 208.634Z" fill="#9DCF9F"/>
<path d="M69.3354 213.512L69.3354 211.804L72.2145 211.804L72.2145 213.512L69.3354 213.512Z" fill="#9DCF9F"/>
<path d="M69.3354 218.395L69.3354 216.687L72.2145 216.687L72.2145 218.395L69.3354 218.395Z" fill="#9DCF9F"/>
<path d="M78.1313 198.872L78.1313 197.165L78.7782 197.165L78.7782 198.872L78.1313 198.872Z" fill="#3CB04A"/>
<path d="M78.1313 203.755L78.1313 202.047L78.7782 202.047L78.7782 203.755L78.1313 203.755Z" fill="#3CB04A"/>
<path d="M78.1313 208.634L78.1313 206.926L78.7782 206.926L78.7782 208.634L78.1313 208.634Z" fill="#3CB04A"/>
<path d="M78.1313 213.512L78.1313 211.804L78.7782 211.804L78.7782 213.512L78.1313 213.512Z" fill="#3CB04A"/>
<path d="M78.1313 218.395L78.1313 216.687L78.7782 216.687L78.7782 218.395L78.1313 218.395Z" fill="#3CB04A"/>
<path d="M75.2524 198.872L75.2524 197.165L78.1315 197.165L78.1315 198.872L75.2524 198.872Z" fill="#9DCF9F"/>
<path d="M75.2524 203.755L75.2524 202.047L78.1315 202.047L78.1315 203.755L75.2524 203.755Z" fill="#9DCF9F"/>
<path d="M75.2524 208.634L75.2524 206.926L78.1315 206.926L78.1315 208.634L75.2524 208.634Z" fill="#9DCF9F"/>
<path d="M75.2524 213.512L75.2524 211.804L78.1315 211.804L78.1315 213.512L75.2524 213.512Z" fill="#9DCF9F"/>
<path d="M75.2524 218.395L75.2524 216.687L78.1315 216.687L78.1315 218.395L75.2524 218.395Z" fill="#9DCF9F"/>
<path d="M84.043 198.872L84.043 197.165L84.6898 197.165L84.6898 198.872L84.043 198.872Z" fill="#3CB04A"/>
<path d="M84.043 203.755L84.043 202.047L84.6898 202.047L84.6898 203.755L84.043 203.755Z" fill="#3CB04A"/>
<path d="M84.043 208.634L84.043 206.926L84.6898 206.926L84.6898 208.634L84.043 208.634Z" fill="#3CB04A"/>
<path d="M84.043 213.512L84.043 211.804L84.6898 211.804L84.6898 213.512L84.043 213.512Z" fill="#3CB04A"/>
<path d="M84.043 218.395L84.043 216.687L84.6898 216.687L84.6898 218.395L84.043 218.395Z" fill="#3CB04A"/>
<path d="M81.1641 198.872L81.1641 197.165L84.0431 197.165L84.0431 198.872L81.1641 198.872Z" fill="#9DCF9F"/>
<path d="M81.1641 203.755L81.1641 202.047L84.0431 202.047L84.0431 203.755L81.1641 203.755Z" fill="#9DCF9F"/>
<path d="M81.1641 208.634L81.1641 206.926L84.0431 206.926L84.0431 208.634L81.1641 208.634Z" fill="#9DCF9F"/>
<path d="M81.1641 213.512L81.1641 211.804L84.0431 211.804L84.0431 213.512L81.1641 213.512Z" fill="#9DCF9F"/>
<path d="M81.1641 218.395L81.1641 216.687L84.0431 216.687L84.0431 218.395L81.1641 218.395Z" fill="#9DCF9F"/>
<path d="M89.959 198.872L89.959 197.165L90.6058 197.165L90.6058 198.872L89.959 198.872Z" fill="#3CB04A"/>
<path d="M89.959 203.755L89.959 202.047L90.6058 202.047L90.6058 203.755L89.959 203.755Z" fill="#3CB04A"/>
<path d="M89.959 208.634L89.959 206.926L90.6058 206.926L90.6058 208.634L89.959 208.634Z" fill="#3CB04A"/>
<path d="M89.959 213.512L89.959 211.804L90.6058 211.804L90.6058 213.512L89.959 213.512Z" fill="#3CB04A"/>
<path d="M89.959 218.395L89.959 216.687L90.6058 216.687L90.6058 218.395L89.959 218.395Z" fill="#3CB04A"/>
<path d="M87.0801 198.872L87.0801 197.165L89.9592 197.165L89.9592 198.872L87.0801 198.872Z" fill="#9DCF9F"/>
<path d="M87.0801 203.755L87.0801 202.047L89.9592 202.047L89.9592 203.755L87.0801 203.755Z" fill="#9DCF9F"/>
<path d="M87.0801 208.634L87.0801 206.926L89.9592 206.926L89.9592 208.634L87.0801 208.634Z" fill="#9DCF9F"/>
<path d="M87.0801 213.512L87.0801 211.804L89.9592 211.804L89.9592 213.512L87.0801 213.512Z" fill="#9DCF9F"/>
<path d="M87.0801 218.395L87.0801 216.687L89.9592 216.687L89.9592 218.395L87.0801 218.395Z" fill="#9DCF9F"/>
<path d="M92.9951 203.755L92.9951 197.165L97.6884 197.165L97.6884 203.755L92.9951 203.755Z" fill="#3CB04A"/>
<path d="M92.9951 210.491L92.9951 205.21L97.6884 205.21L97.6884 210.491L92.9951 210.491Z" fill="#3CB04A"/>
<path d="M92.9951 218.395L92.9951 211.804L97.6884 211.804L97.6884 218.395L92.9951 218.395Z" fill="#3CB04A"/>
<path d="M92.9917 207.888L92.9917 207.671L97.685 207.671L97.685 207.888L92.9917 207.888Z" fill="#61B867"/>
<path d="M40.5728 218.391L40.5728 209.237L41.4917 209.237L41.4917 218.391L40.5728 218.391Z" fill="#3CB04A"/>
<path d="M40.5728 206.315L40.5728 197.161L41.4917 197.161L41.4917 206.315L40.5728 206.315Z" fill="#3CB04A"/>
<path d="M42.8959 207.774C42.8959 208.802 42.0625 209.635 41.0344 209.635C40.0063 209.635 39.1729 208.802 39.1729 207.774C39.1729 206.746 40.0063 205.912 41.0344 205.912C42.0625 205.912 42.8959 206.746 42.8959 207.774Z" fill="#3CB04A"/>
<path d="M29.4189 245.068L29.4189 222.035L97.6413 222.035L97.6413 245.068L29.4189 245.068Z" fill="#97C65D"/>
<path d="M36.9761 228.874L36.9761 226.811L37.8714 226.811L37.8714 228.874L36.9761 228.874Z" fill="#68AB9E"/>
<path d="M36.9761 234.766L36.9761 232.703L37.8714 232.703L37.8714 234.766L36.9761 234.766Z" fill="#68AB9E"/>
<path d="M36.9761 240.654L36.9761 238.592L37.8714 238.592L37.8714 240.654L36.9761 240.654Z" fill="#68AB9E"/>
<path d="M32.9888 228.874L32.9888 226.811L36.9722 226.811L36.9722 228.874L32.9888 228.874Z" fill="#C0DBD5"/>
<path d="M32.9888 234.766L32.9888 232.703L36.9722 232.703L36.9722 234.766L32.9888 234.766Z" fill="#C0DBD5"/>
<path d="M32.9888 240.654L32.9888 238.592L36.9722 238.592L36.9722 240.654L32.9888 240.654Z" fill="#C0DBD5"/>
<path d="M45.1592 228.874L45.1592 226.811L46.0545 226.811L46.0545 228.874L45.1592 228.874Z" fill="#68AB9E"/>
<path d="M45.1592 234.766L45.1592 232.703L46.0545 232.703L46.0545 234.766L45.1592 234.766Z" fill="#68AB9E"/>
<path d="M45.1592 240.654L45.1592 238.592L46.0545 238.592L46.0545 240.654L45.1592 240.654Z" fill="#68AB9E"/>
<path d="M41.1763 228.874L41.1763 226.811L45.1597 226.811L45.1597 228.874L41.1763 228.874Z" fill="#C0DBD5"/>
<path d="M41.1763 234.766L41.1763 232.703L45.1597 232.703L45.1597 234.766L41.1763 234.766Z" fill="#C0DBD5"/>
<path d="M41.1763 240.654L41.1763 238.592L45.1597 238.592L45.1597 240.654L41.1763 240.654Z" fill="#C0DBD5"/>
<path d="M53.3438 228.874L53.3438 226.811L54.239 226.811L54.239 228.874L53.3438 228.874Z" fill="#68AB9E"/>
<path d="M53.3438 234.766L53.3438 232.703L54.239 232.703L54.239 234.766L53.3438 234.766Z" fill="#68AB9E"/>
<path d="M53.3438 240.654L53.3438 238.592L54.239 238.592L54.239 240.654L53.3438 240.654Z" fill="#68AB9E"/>
<path d="M49.3599 228.874L49.3599 226.811L53.3432 226.811L53.3432 228.874L49.3599 228.874Z" fill="#C0DBD5"/>
<path d="M49.3599 234.766L49.3599 232.703L53.3432 232.703L53.3432 234.766L49.3599 234.766Z" fill="#C0DBD5"/>
<path d="M49.3599 240.654L49.3599 238.592L53.3432 238.592L53.3432 240.654L49.3599 240.654Z" fill="#C0DBD5"/>
<path d="M61.5308 228.874L61.5308 226.811L62.426 226.811L62.426 228.874L61.5308 228.874Z" fill="#68AB9E"/>
<path d="M61.5308 234.766L61.5308 232.703L62.426 232.703L62.426 234.766L61.5308 234.766Z" fill="#68AB9E"/>
<path d="M61.5308 240.654L61.5308 238.592L62.426 238.592L62.426 240.654L61.5308 240.654Z" fill="#68AB9E"/>
<path d="M57.543 228.874L57.543 226.811L61.5264 226.811L61.5264 228.874L57.543 228.874Z" fill="#C0DBD5"/>
<path d="M57.543 234.766L57.543 232.703L61.5264 232.703L61.5264 234.766L57.543 234.766Z" fill="#C0DBD5"/>
<path d="M57.543 240.654L57.543 238.592L61.5264 238.592L61.5264 240.654L57.543 240.654Z" fill="#C0DBD5"/>
<path d="M69.7144 228.874L69.7144 226.811L70.6096 226.811L70.6096 228.874L69.7144 228.874Z" fill="#68AB9E"/>
<path d="M69.7144 234.766L69.7144 232.703L70.6096 232.703L70.6096 234.766L69.7144 234.766Z" fill="#68AB9E"/>
<path d="M69.7144 240.654L69.7144 238.592L70.6096 238.592L70.6096 240.654L69.7144 240.654Z" fill="#68AB9E"/>
<path d="M65.731 228.874L65.731 226.811L69.7143 226.811L69.7143 228.874L65.731 228.874Z" fill="#C0DBD5"/>
<path d="M65.731 234.766L65.731 232.703L69.7143 232.703L69.7143 234.766L65.731 234.766Z" fill="#C0DBD5"/>
<path d="M65.731 240.654L65.731 238.592L69.7143 238.592L69.7143 240.654L65.731 240.654Z" fill="#C0DBD5"/>
<path d="M77.8984 228.874L77.8984 226.811L78.7937 226.811L78.7937 228.874L77.8984 228.874Z" fill="#68AB9E"/>
<path d="M77.8984 234.766L77.8984 232.703L78.7937 232.703L78.7937 234.766L77.8984 234.766Z" fill="#68AB9E"/>
<path d="M77.8984 240.654L77.8984 238.592L78.7937 238.592L78.7937 240.654L77.8984 240.654Z" fill="#68AB9E"/>
<path d="M73.9146 228.874L73.9146 226.811L77.8979 226.811L77.8979 228.874L73.9146 228.874Z" fill="#C0DBD5"/>
<path d="M73.9146 234.766L73.9146 232.703L77.8979 232.703L77.8979 234.766L73.9146 234.766Z" fill="#C0DBD5"/>
<path d="M73.9146 240.654L73.9146 238.592L77.8979 238.592L77.8979 240.654L73.9146 240.654Z" fill="#C0DBD5"/>
<path d="M86.0859 228.874L86.0859 226.811L86.9812 226.811L86.9812 228.874L86.0859 228.874Z" fill="#68AB9E"/>
<path d="M86.0859 234.766L86.0859 232.703L86.9812 232.703L86.9812 234.766L86.0859 234.766Z" fill="#68AB9E"/>
<path d="M86.0859 240.654L86.0859 238.592L86.9812 238.592L86.9812 240.654L86.0859 240.654Z" fill="#68AB9E"/>
<path d="M82.0986 228.874L82.0986 226.811L86.082 226.811L86.082 228.874L82.0986 228.874Z" fill="#C0DBD5"/>
<path d="M82.0986 234.766L82.0986 232.703L86.082 232.703L86.082 234.766L82.0986 234.766Z" fill="#C0DBD5"/>
<path d="M82.0986 240.654L82.0986 238.592L86.082 238.592L86.082 240.654L82.0986 240.654Z" fill="#C0DBD5"/>
<path d="M91.1494 230.869L91.1494 226.168L97.6451 226.168L97.6451 230.869L91.1494 230.869Z" fill="#68AB9E"/>
<path d="M91.1494 241.203L91.1494 236.501L97.6451 236.501L97.6451 241.203L91.1494 241.203Z" fill="#68AB9E"/>
<path d="M91.1494 235.673L91.1494 231.907L97.6451 231.907L97.6451 235.673L91.1494 235.673Z" fill="#68AB9E"/>
<path d="M91.145 233.82L91.145 233.666L97.6407 233.666L97.6407 233.82L91.145 233.82Z" fill="#8AC3B9"/>
<path d="M91.6071 186.962C91.6071 190.353 88.8578 193.102 85.4664 193.102C82.075 193.102 79.3257 190.353 79.3257 186.962C79.3257 183.57 82.075 180.821 85.4664 180.821C88.8578 180.821 91.6071 183.57 91.6071 186.962Z" fill="#89C141"/>
<path d="M97.5584 187.293L84.6893 187.293C84.5553 187.293 84.4448 187.182 84.4448 187.048C84.4448 186.914 84.5553 186.804 84.6893 186.804L97.5584 186.804L97.5584 187.293Z" fill="#558A40"/>
<path d="M94.3951 192.258C95.1681 191.485 96.0121 189.387 95.2391 188.614C94.4661 187.841 92.3679 188.681 91.5949 189.458C90.8219 190.235 90.8219 191.485 91.5949 192.262C92.3679 193.039 93.6181 193.035 94.3951 192.258Z" fill="#89C141"/>
<path d="M92.2258 191.596C92.1311 191.501 92.1311 191.343 92.2258 191.249L96.4774 186.997L97.1715 186.997L92.5728 191.596C92.4782 191.69 92.3244 191.69 92.2258 191.596Z" fill="#558A40"/>
</g>
</g>
<defs>
<clipPath id="clip0_104_7108">
<rect width="480" height="307.814" fill="white" transform="translate(0.522949 0.948975)"/>
</clipPath>
<clipPath id="clip1_104_7108">
<rect width="180.278" height="99.7897" fill="white" transform="matrix(4.37114e-08 1 1 -4.37114e-08 0.241699 118.605)"/>
</clipPath>
</defs>
</svg>
