<svg width="572" height="138" viewBox="0 0 572 138" fill="none" xmlns="http://www.w3.org/2000/svg">
<g clip-path="url(#clip0_2_18072)">
<path d="M190.213 133.667C182.185 122.352 173.717 114.572 171.299 116.287C169.024 117.901 172.922 127.355 180.081 137.894H193.074C192.179 136.508 191.223 135.093 190.21 133.667" fill="#19892B"/>
<path d="M193.71 123.263C188.784 110.295 182.545 100.635 179.773 101.686C177.002 102.74 178.749 114.106 183.675 127.075C185.192 131.067 186.833 134.745 188.458 137.894H198.088C197.232 133.698 195.742 128.619 193.707 123.263" fill="#89C240"/>
<path d="M201.751 121.74C201.751 107.867 199.348 96.6206 196.384 96.6206C193.42 96.6206 191.017 107.867 191.017 121.74C191.017 127.893 191.49 133.529 192.277 137.896H200.494C201.278 133.529 201.753 127.893 201.753 121.74" fill="#19892B"/>
<path d="M203.749 134.878C210.255 122.626 213.408 111.567 210.791 110.177C208.173 108.787 200.776 117.592 194.27 129.844C192.794 132.622 191.494 135.337 190.391 137.894H202.09C202.646 136.915 203.202 135.909 203.749 134.878Z" fill="#89C240"/>
<path d="M217.545 122.57C215.3 120.754 206.76 127.572 198.256 137.896H211.548C216.713 130.244 219.295 123.987 217.545 122.57Z" fill="#19892B"/>
<path d="M74.1074 136.145C70.7835 131.46 67.277 128.238 66.2754 128.948C65.3337 129.617 66.9475 133.531 69.912 137.895H75.2925C74.9218 137.321 74.5259 136.735 74.1065 136.145" fill="#19892B"/>
<path d="M75.5555 131.837C73.5159 126.467 70.9323 122.467 69.7847 122.902C68.6371 123.339 69.3607 128.045 71.4004 133.415C72.0285 135.068 72.708 136.591 73.3811 137.895H77.3687C77.0139 136.158 76.3971 134.055 75.5546 131.837" fill="#89C240"/>
<path d="M78.8851 131.206C78.8851 125.462 77.8901 120.805 76.6629 120.805C75.4357 120.805 74.4407 125.462 74.4407 131.206C74.4407 133.754 74.6363 136.088 74.9621 137.896H78.3646C78.6895 136.088 78.886 133.754 78.886 131.206" fill="#19892B"/>
<path d="M79.7126 136.647C82.4066 131.573 83.7124 126.994 82.6284 126.418C81.5445 125.843 78.4817 129.488 75.7877 134.562C75.1764 135.712 74.6382 136.837 74.1814 137.895H79.0255C79.2558 137.49 79.4861 137.073 79.7126 136.647Z" fill="#89C240"/>
<path d="M85.4253 131.55C84.4958 130.798 80.9593 133.621 77.4379 137.896H82.9419C85.0808 134.728 86.1498 132.137 85.4253 131.55Z" fill="#19892B"/>
<path d="M376.908 135.491C369.922 129.055 362.551 124.63 360.446 125.605C358.467 126.523 361.859 131.901 368.09 137.895H379.399C378.62 137.107 377.788 136.302 376.906 135.491" fill="#19892B"/>
<path d="M379.952 129.573C375.665 122.197 370.235 116.703 367.822 117.301C365.41 117.9 366.931 124.365 371.218 131.741C372.539 134.012 373.967 136.104 375.382 137.895H383.763C383.018 135.509 381.721 132.619 379.95 129.573" fill="#89C240"/>
<path d="M386.951 128.707C386.951 120.816 384.859 114.419 382.28 114.419C379.7 114.419 377.609 120.816 377.609 128.707C377.609 132.207 378.02 135.412 378.705 137.896H385.857C386.539 135.412 386.953 132.207 386.953 128.707" fill="#19892B"/>
<path d="M388.69 136.18C394.352 129.211 397.097 122.921 394.819 122.13C392.54 121.339 386.103 126.347 380.44 133.316C379.155 134.897 378.024 136.441 377.064 137.895H387.246C387.73 137.338 388.214 136.766 388.69 136.18Z" fill="#89C240"/>
<path d="M400.698 129.179C398.744 128.146 391.311 132.024 383.909 137.896H395.478C399.974 133.544 402.221 129.985 400.698 129.179Z" fill="#19892B"/>
<path d="M259.812 48.4426C259.812 64.3682 272.722 77.2805 288.65 77.2805C304.577 77.2805 317.488 64.3705 317.488 48.4426C317.488 32.5147 304.577 19.6046 288.65 19.6046C272.722 19.6046 259.812 32.5147 259.812 48.4426Z" fill="#3CB54A"/>
<path d="M269.01 20.4229C269.01 31.2691 277.803 40.0627 288.65 40.0627C299.496 40.0627 308.289 31.2691 308.289 20.4229C308.289 9.57678 299.496 0.783203 288.65 0.783203C277.803 0.783203 269.01 9.57678 269.01 20.4229Z" fill="#89C240"/>
<path d="M288.65 54.2139L300.187 42.6737H309.481" stroke="#19892B" stroke-width="1.13028" stroke-linecap="round" stroke-linejoin="round"/>
<path d="M288.65 20.5653V137.599" stroke="#19892B" stroke-width="1.13028" stroke-linecap="round" stroke-linejoin="round"/>
<path d="M288.65 70.6029L274.564 56.5173" stroke="#19892B" stroke-width="1.13028" stroke-linecap="round" stroke-linejoin="round"/>
<path d="M498.621 69.1077C498.621 81.286 488.749 91.16 476.569 91.16C464.389 91.16 454.517 81.2878 454.517 69.1077C454.517 56.9277 464.389 47.0554 476.569 47.0554C488.749 47.0554 498.621 56.9277 498.621 69.1077Z" fill="#3CB54A"/>
<path d="M491.588 47.6812C491.588 55.9752 484.863 62.6996 476.569 62.6996C468.275 62.6996 461.551 55.9752 461.551 47.6812C461.551 39.3871 468.275 32.6627 476.569 32.6627C484.863 32.6627 491.588 39.3871 491.588 47.6812Z" fill="#A1DAA6"/>
<path d="M476.569 73.521L467.746 64.6963H460.64" stroke="#19892B" stroke-width="0.864322" stroke-linecap="round" stroke-linejoin="round"/>
<path d="M476.569 47.79V137.285" stroke="#19892B" stroke-width="0.864322" stroke-linecap="round" stroke-linejoin="round"/>
<path d="M476.569 86.0537L487.34 75.2825" stroke="#19892B" stroke-width="0.864322" stroke-linecap="round" stroke-linejoin="round"/>
<path d="M191.865 73.5058C191.865 90.1416 205.352 103.629 221.988 103.629C238.624 103.629 252.111 90.1416 252.111 73.5058C252.111 56.87 238.624 43.3829 221.988 43.3829C205.352 43.3829 191.865 56.87 191.865 73.5058Z" fill="#27A627"/>
<path d="M199.15 40.8555C199.15 53.4679 209.374 63.6919 221.986 63.6919C234.599 63.6919 244.823 53.4679 244.823 40.8555C244.823 28.2432 234.599 18.0192 221.986 18.0192C209.374 18.0192 199.15 28.2432 199.15 40.8555Z" fill="#3CB54A"/>
<path d="M209.631 13.6578C209.631 20.6152 215.27 26.2543 222.227 26.2543C229.185 26.2543 234.824 20.6152 234.824 13.6578C234.824 6.70041 229.185 1.06128 222.227 1.06128C215.27 1.06128 209.631 6.70041 209.631 13.6578Z" fill="#3CB54A"/>
<path d="M221.988 61.1487L231.71 51.4263" stroke="#19892B" stroke-width="0.880014" stroke-linecap="round" stroke-linejoin="round"/>
<path d="M221.988 38.9618V137.599" stroke="#19892B" stroke-width="0.880014" stroke-linecap="round" stroke-linejoin="round"/>
<path d="M221.988 81.125L210.118 69.2571" stroke="#19892B" stroke-width="0.880014" stroke-linecap="round" stroke-linejoin="round"/>
<path d="M0.499878 74.6712C0.499878 91.307 13.987 104.794 30.6228 104.794C47.2585 104.794 60.7457 91.307 60.7457 74.6712C60.7457 58.0354 47.2585 44.5483 30.6228 44.5483C13.987 44.5483 0.499878 58.0354 0.499878 74.6712Z" fill="#27A627"/>
<path d="M7.78467 42.0209C7.78467 54.6333 18.0087 64.8573 30.621 64.8573C43.2334 64.8573 53.4574 54.6333 53.4574 42.0209C53.4574 29.4086 43.2334 19.1846 30.621 19.1846C18.0087 19.1846 7.78467 29.4086 7.78467 42.0209Z" fill="#3CB54A"/>
<path d="M18.2656 14.8232C18.2656 21.7806 23.9048 27.4197 30.8621 27.4197C37.8195 27.4197 43.4587 21.7806 43.4587 14.8232C43.4587 7.86581 37.8195 2.22668 30.8621 2.22668C23.9048 2.22668 18.2656 7.86581 18.2656 14.8232Z" fill="#3CB54A"/>
<path d="M30.6228 62.3141L40.3452 52.5917" stroke="#19892B" stroke-width="0.880014" stroke-linecap="round" stroke-linejoin="round"/>
<path d="M30.6228 40.1272V138.764" stroke="#19892B" stroke-width="0.880014" stroke-linecap="round" stroke-linejoin="round"/>
<path d="M30.6228 82.2904L18.7532 70.4225" stroke="#19892B" stroke-width="0.880014" stroke-linecap="round" stroke-linejoin="round"/>
<path d="M336.325 67.5727C336.325 82.9099 348.76 95.3442 364.097 95.3442C379.434 95.3442 391.868 82.9099 391.868 67.5727C391.868 52.2355 379.434 39.8013 364.097 39.8013C348.76 39.8013 336.325 52.2355 336.325 67.5727Z" fill="#27A627"/>
<path d="M343.042 37.4711C343.042 49.0989 352.467 58.5248 364.095 58.5248C375.723 58.5248 385.149 49.0989 385.149 37.4711C385.149 25.8433 375.723 16.4174 364.095 16.4174C352.467 16.4174 343.042 25.8433 343.042 37.4711Z" fill="#3CB54A"/>
<path d="M333.392 54.2138C333.392 60.6281 338.591 65.827 345.005 65.827C351.42 65.827 356.619 60.6281 356.619 54.2138C356.619 47.7995 351.42 42.6006 345.005 42.6006C338.591 42.6006 333.392 47.7995 333.392 54.2138Z" fill="#70D17B"/>
<path d="M364.097 56.1801L373.06 47.2167" stroke="#19892B" stroke-width="0.811319" stroke-linecap="round" stroke-linejoin="round"/>
<path d="M364.097 35.7251L364.097 136.943" stroke="#19892B" stroke-width="0.811319" stroke-linecap="round" stroke-linejoin="round"/>
<path d="M364.097 74.597L353.154 63.6555" stroke="#19892B" stroke-width="0.811319" stroke-linecap="round" stroke-linejoin="round"/>
<path d="M266.299 108.771C266.93 115.593 263.338 123.255 263.078 123.279C262.92 123.293 257.881 116.43 257.25 109.61C256.62 102.79 256.333 98.9626 259.8 98.5263C263.657 98.0402 265.669 101.951 266.299 108.773" fill="#269035"/>
<path d="M263.04 127.339C261.111 123.878 258.374 120.969 254.949 118.763C253.647 117.924 252.216 117.192 250.672 117.079C249.128 116.966 247.449 117.596 246.684 118.944C245.977 120.189 246.189 121.812 246.956 123.024C247.72 124.236 248.956 125.079 250.256 125.678C252.754 126.828 255.532 127.172 258.193 127.859C260.015 128.329 261.749 128.883 263.173 129.901L263.04 127.339Z" fill="#89C240"/>
<path d="M263.813 134.578C264.789 132.338 266.693 130.748 268.772 129.229C271.245 127.421 273.978 125.918 276.09 123.698C277.188 122.54 278.12 121.157 278.411 119.588C278.703 118.019 278.255 116.249 277.01 115.252C275.663 114.174 273.664 114.212 272.113 114.967C270.56 115.72 269.383 117.07 268.381 118.474C265.144 123.013 263.417 128.223 263.318 133.721C263.498 134.033 263.673 134.331 263.813 134.578Z" fill="#61B967"/>
<path d="M260.515 104.139C262.373 112.449 263.526 125.083 263.526 137.894" stroke="#61B967" stroke-width="0.666865" stroke-miterlimit="10" stroke-linecap="round"/>
<path d="M454.202 48.7042C454.202 64.1234 441.703 76.6222 426.284 76.6222C410.865 76.6222 398.366 64.1234 398.366 48.7042C398.366 33.285 410.865 20.7863 426.284 20.7863C441.703 20.7863 454.202 33.285 454.202 48.7042Z" fill="#C3DF9E"/>
<path d="M453.403 21.9478C453.403 33.6376 443.927 43.1123 432.239 43.1123C420.551 43.1123 411.074 33.6355 411.074 21.9478C411.074 10.26 420.549 0.783203 432.239 0.783203C443.929 0.783203 453.403 10.26 453.403 21.9478Z" fill="#3CB54A"/>
<path d="M434.28 39.5947L425.268 30.5825" stroke="#19892B" stroke-width="1.03707" stroke-linecap="round" stroke-linejoin="round"/>
<path d="M434.28 19.0315V136.943" stroke="#19892B" stroke-width="1.03707" stroke-linecap="round" stroke-linejoin="round"/>
<path d="M434.28 58.1087L445.279 47.1095" stroke="#19892B" stroke-width="1.03707" stroke-linecap="round" stroke-linejoin="round"/>
<path d="M310.233 90.2152C310.233 98.4952 316.945 105.207 325.225 105.207C333.505 105.207 340.217 98.4952 340.217 90.2152C340.217 81.9353 333.505 75.2235 325.225 75.2235C316.945 75.2235 310.233 81.9353 310.233 90.2152Z" fill="#C3DF9E"/>
<path d="M310.662 75.8472C310.662 82.1246 315.751 87.2124 322.027 87.2124C328.303 87.2124 333.392 82.1235 333.392 75.8472C333.392 69.571 328.304 64.4821 322.027 64.4821C315.75 64.4821 310.662 69.571 310.662 75.8472Z" fill="#3CB54A"/>
<path d="M320.931 85.3235L325.771 80.484" stroke="#19892B" stroke-width="0.556899" stroke-linecap="round" stroke-linejoin="round"/>
<path d="M320.931 74.2812V137.599" stroke="#19892B" stroke-width="0.556899" stroke-linecap="round" stroke-linejoin="round"/>
<path d="M320.931 95.2654L315.025 89.3589" stroke="#19892B" stroke-width="0.556899" stroke-linecap="round" stroke-linejoin="round"/>
<path d="M70.6499 66.5079C70.6499 78.9306 80.7197 89.0004 93.1423 89.0004C105.565 89.0004 115.635 78.9306 115.635 66.5079C115.635 54.0853 105.565 44.0155 93.1423 44.0155C80.7197 44.0155 70.6499 54.0853 70.6499 66.5079Z" fill="#C3DF9E"/>
<path d="M71.2932 44.9514C71.2932 54.3695 78.9282 62.0028 88.3446 62.0028C97.761 62.0028 105.396 54.3678 105.396 44.9514C105.396 35.535 97.7627 27.8999 88.3446 27.8999C78.9266 27.8999 71.2932 35.535 71.2932 44.9514Z" fill="#3CB54A"/>
<path d="M86.7002 59.1688L93.9609 51.9081" stroke="#19892B" stroke-width="0.556899" stroke-linecap="round" stroke-linejoin="round"/>
<path d="M86.7003 42.6018V137.599" stroke="#19892B" stroke-width="0.556899" stroke-linecap="round" stroke-linejoin="round"/>
<path d="M86.7003 74.0849L77.8387 65.2233" stroke="#19892B" stroke-width="0.556899" stroke-linecap="round" stroke-linejoin="round"/>
<path d="M558.495 18.7257C558.495 28.4817 550.587 36.3901 540.831 36.3901C531.075 36.3901 523.166 28.4817 523.166 18.7257C523.166 8.96961 531.075 1.06128 540.831 1.06128C550.587 1.06128 558.495 8.96961 558.495 18.7257Z" fill="#27A627"/>
<path d="M570.957 58.3792C570.957 75.7849 556.847 89.8955 539.441 89.8955C522.035 89.8955 507.925 75.7849 507.925 58.3792C507.925 40.9736 522.035 26.863 539.441 26.863C556.847 26.863 570.957 40.9736 570.957 58.3792Z" fill="#3CB54A"/>
<path d="M545.853 38.7308C545.853 53.2276 534.101 64.98 519.604 64.98C505.107 64.98 493.355 53.2276 493.355 38.7308C493.355 24.2339 505.107 12.4833 519.604 12.4833C534.101 12.4833 545.853 24.2356 545.853 38.7308Z" fill="#27A627"/>
<path d="M529.778 57.6066L519.606 47.4344" stroke="#19892B" stroke-width="0.874042" stroke-linecap="round" stroke-linejoin="round"/>
<path d="M529.778 34.3938V137.622" stroke="#19892B" stroke-width="0.874042" stroke-linecap="round" stroke-linejoin="round"/>
<path d="M529.778 78.5066L542.196 66.0883" stroke="#19892B" stroke-width="0.874042" stroke-linecap="round" stroke-linejoin="round"/>
<path d="M458.896 134.673C452.779 126.051 446.325 120.121 444.482 121.428C442.749 122.658 445.719 129.862 451.176 137.894H461.077C460.394 136.838 459.667 135.76 458.896 134.673Z" fill="#3CB54A"/>
<path d="M461.561 126.745C457.806 116.862 453.052 109.501 450.941 110.301C448.829 111.104 450.161 119.766 453.913 129.647C455.069 132.69 456.321 135.493 457.56 137.892H464.897C464.246 134.695 463.109 130.823 461.561 126.743" fill="#19892B"/>
<path d="M467.687 125.583C467.687 115.01 465.856 106.44 463.598 106.44C461.339 106.44 459.508 115.01 459.508 125.583C459.508 130.274 459.87 134.566 460.467 137.894H466.728C467.328 134.566 467.687 130.271 467.687 125.583Z" fill="#3CB54A"/>
<path d="M469.211 135.597C474.168 126.261 476.571 117.834 474.577 116.773C472.583 115.713 466.946 122.425 461.988 131.761C460.865 133.879 459.872 135.948 459.031 137.896H467.947C468.372 137.15 468.795 136.384 469.213 135.597" fill="#89C240"/>
<path d="M479.724 126.216C478.013 124.832 471.505 130.027 465.024 137.896H475.154C479.089 132.064 481.058 127.296 479.724 126.216Z" fill="#3CB54A"/>
<path d="M500.803 130.92C502.342 132.322 507.605 133.965 508.5 133.072C509.393 132.177 507.655 127.012 506.133 125.59C504.058 123.652 500.783 122.952 499.311 124.423C497.839 125.895 498.904 129.189 500.803 130.92Z" fill="#3CB54A"/>
<path d="M522.624 126.591C521.053 128.162 516.796 129.871 515.225 128.3C513.654 126.729 515.363 122.472 516.934 120.901C518.505 119.33 521.053 119.33 522.624 120.901C524.195 122.472 524.195 125.02 522.624 126.591Z" fill="#269035"/>
<path d="M521.186 122.552L510.584 133.348" stroke="#7EC680" stroke-width="0.793456" stroke-miterlimit="10" stroke-linecap="round"/>
<path d="M501.427 126.245L510.218 134.878" stroke="#7EC680" stroke-width="0.793456" stroke-miterlimit="10" stroke-linecap="round"/>
<path d="M500.536 106.402C500.536 111.803 504.816 122.538 510.214 122.416C514.633 122.316 520.088 111.807 520.09 106.407C520.09 101.006 517.034 91.8057 510.3 91.7763C503.312 91.7492 500.539 101.002 500.539 106.4" fill="#269035"/>
<path d="M510.664 98.7568C510.664 98.7568 510.469 113.774 510.474 124.794C510.476 132.019 510.458 137.661 510.458 137.661" stroke="#7EC680" stroke-width="0.793456" stroke-miterlimit="10" stroke-linecap="round"/>
<path d="M517.246 104.334L510.537 116.287" stroke="#7EC680" stroke-width="0.793456" stroke-miterlimit="10" stroke-linecap="round"/>
<path d="M505.001 102.824L510.397 109.567" stroke="#7EC680" stroke-width="0.793456" stroke-miterlimit="10" stroke-linecap="round"/>
<path d="M153.83 106.402C153.83 111.803 158.109 122.538 163.508 122.416C167.927 122.316 173.382 111.807 173.384 106.407C173.384 101.006 170.328 91.8057 163.594 91.7763C156.606 91.7492 153.832 101.002 153.832 106.4" fill="#269035"/>
<path d="M163.958 98.7568C163.958 98.7568 163.763 113.774 163.768 124.794C163.77 132.019 163.752 137.661 163.752 137.661" stroke="#7EC680" stroke-width="0.793456" stroke-miterlimit="10" stroke-linecap="round"/>
<path d="M170.54 104.334L163.831 116.287" stroke="#7EC680" stroke-width="0.793456" stroke-miterlimit="10" stroke-linecap="round"/>
<path d="M158.295 102.824L163.691 109.567" stroke="#7EC680" stroke-width="0.793456" stroke-miterlimit="10" stroke-linecap="round"/>
<path d="M119.1 64.714C119.1 77.3168 129.623 102.369 142.898 102.084C153.766 101.852 167.18 77.3273 167.186 64.7246C167.186 52.1218 159.67 30.6512 143.109 30.5827C125.926 30.5194 119.105 52.1113 119.105 64.7087" fill="#269035"/>
<path d="M144.004 46.8727C144.004 46.8727 143.526 81.9167 143.537 107.634C143.543 124.494 143.499 137.661 143.499 137.661" stroke="#7EC680" stroke-width="0.793456" stroke-miterlimit="10" stroke-linecap="round"/>
<path d="M160.192 59.8868L143.693 87.7828" stroke="#7EC680" stroke-width="0.793456" stroke-miterlimit="10" stroke-linecap="round"/>
<path d="M130.079 56.363L143.348 72.0993" stroke="#7EC680" stroke-width="0.793456" stroke-miterlimit="10" stroke-linecap="round"/>
<path d="M548.065 91.9186C548.042 91.9367 548.017 91.9412 547.994 91.948V91.9005C548.017 91.9118 548.04 91.9186 548.065 91.9186Z" fill="#E20613"/>
<g opacity="0.13">
<g opacity="0.13">
<path opacity="0.13" d="M537.167 96.2272C535.229 96.7404 533.667 97.1586 532.442 97.4909C532.589 95.0608 533.498 92.382 533.638 91.8937C536.904 91.419 541.258 91.5072 543.804 91.6293C544.525 91.6993 544.975 91.7604 544.995 91.7694C544.941 91.7129 544.805 93.1913 544.828 93.1732C545.327 93.2523 545.786 93.3202 546.222 93.3857C544.968 93.8536 541.636 95.0427 537.169 96.225" fill="#1A1A1B"/>
</g>
</g>
<g style="mix-blend-mode:multiply" opacity="0.15">
<g style="mix-blend-mode:multiply" opacity="0.15">
<g style="mix-blend-mode:multiply" opacity="0.15">
<path d="M477.901 65.7517L478.442 65.4443L479.54 65.2815C479.54 65.2815 479.151 66.3847 477.96 66.5226L477.901 65.7517Z" fill="#333333"/>
</g>
</g>
</g>
<g style="mix-blend-mode:multiply" opacity="0.15">
<g style="mix-blend-mode:multiply" opacity="0.15">
<g style="mix-blend-mode:multiply" opacity="0.15">
<path d="M301.973 68.0148C303.538 69.4887 305.301 68.6274 305.301 68.6274L305.278 68.216C303.78 68.9665 301.973 68.0148 301.973 68.0148Z" fill="black"/>
</g>
</g>
</g>
<path d="M309.466 78.9227C309.466 78.9227 309.462 78.9227 309.458 78.9269C309.462 78.9248 309.464 78.9248 309.466 78.9227Z" fill="#C6AD7F"/>
<g style="mix-blend-mode:multiply" opacity="0.15">
<g style="mix-blend-mode:multiply" opacity="0.15">
<g style="mix-blend-mode:multiply" opacity="0.15">
<path d="M307.659 72.0795C306.872 73.2844 306.088 74.487 305.301 75.6919L304.15 77.4528C303.954 77.7535 303.757 78.0541 303.56 78.3548C303.362 78.66 303.05 79.1889 302.611 78.9335C302.55 78.8996 302.518 79.2364 302.527 79.25C302.871 79.736 303.881 79.0827 304.119 78.721C304.571 78.0293 305.17 77.0098 305.62 76.318L307.754 72.127C307.792 72.0682 307.695 72.023 307.657 72.0795" fill="#1A1A1B"/>
</g>
</g>
</g>
<g style="mix-blend-mode:multiply" opacity="0.15">
<g style="mix-blend-mode:multiply" opacity="0.15">
<g style="mix-blend-mode:multiply" opacity="0.15">
<path d="M306.503 71.9666C305.807 72.4435 305.113 72.9205 304.417 73.3975C304.077 73.6303 303.745 73.8903 303.39 74.096C302.915 74.3718 302.513 74.044 302.104 73.8089C300.77 73.0449 299.441 72.222 298.417 71.0556C298.372 71.0036 298.284 71.0646 298.329 71.1166C299.407 72.3463 300.341 73.3274 301.747 74.1277C302.011 74.2791 302.807 74.6092 303.128 74.5617C303.517 74.5052 304.247 73.9762 304.559 73.7614L306.562 72.0525C306.618 72.014 306.557 71.9236 306.501 71.9643" fill="#1A1A1B"/>
</g>
</g>
</g>
<g style="mix-blend-mode:multiply" opacity="0.15">
<g style="mix-blend-mode:multiply" opacity="0.15">
<g style="mix-blend-mode:multiply" opacity="0.15">
<path d="M307.419 69.9569C307.419 69.9569 305.197 71.7134 304.926 71.8942C304.654 72.075 304.266 72.4051 303.904 72.3599C303.545 72.3147 303.004 72.1044 303.004 72.179C303.004 72.2536 303.59 72.7193 303.936 72.6605C304.281 72.5995 305.572 71.745 306.368 71.1279C307.164 70.513 307.779 70.1671 307.419 69.9569Z" fill="#1A1A1B"/>
</g>
</g>
</g>
<path d="M306.266 116.859C305.975 115.912 305.107 115.16 304.123 115.04C303.139 114.921 302.101 115.46 301.66 116.346C301.043 117.585 301.731 119.129 302.407 120.336C303.488 122.263 304.421 123.74 306.434 124.648C305.211 123.41 305.826 121.881 306.043 120.295C306.2 119.146 306.606 117.966 306.266 116.858V116.859Z" fill="#269235"/>
<path d="M306.009 124.32C306.03 124.31 305.571 123.997 305.435 123.889C303.998 122.945 302.884 122.283 301.168 121.561C300.123 121.121 299.01 120.775 297.877 120.807C296.743 120.838 295.579 121.294 294.901 122.205C294.223 123.115 294.164 124.506 294.929 125.342C295.555 126.027 296.571 126.224 297.492 126.119C298.412 126.015 299.311 125.732 300.164 125.374C302.186 124.524 303.374 123.634 305.982 124.599L306.009 124.32Z" fill="#269235"/>
<path d="M311.968 128.849C310.441 127.508 309.055 127.176 307.38 127.082C305.491 126.976 303.506 127.95 302.329 129.429C301.662 130.267 301.35 131.578 302.077 132.365C302.8 133.147 304.088 132.958 305.056 132.513C306.373 131.907 307.499 130.96 308.73 130.196C309.795 129.535 310.83 128.979 312.018 128.979L311.971 128.85L311.968 128.849Z" fill="#269235"/>
<path d="M319.924 140.127C319.871 138.23 320.686 136.482 321.647 134.725C322.789 132.636 324.216 130.675 324.968 128.416C325.359 127.24 325.556 125.959 325.244 124.758C324.933 123.559 324.031 122.461 322.825 122.172C321.521 121.859 320.129 122.546 319.286 123.59C318.443 124.632 318.06 125.971 317.819 127.289C317.042 131.552 317.548 135.788 319.295 139.688C319.526 139.848 319.746 140.001 319.926 140.127H319.924Z" fill="#269235"/>
<path d="M317.995 134.75C316.804 134.817 312.168 137.765 310.794 138.355C310.078 138.662 309.287 138.854 308.52 138.722C307.753 138.59 307.019 138.084 306.773 137.345C306.508 136.545 306.864 135.638 307.472 135.055C308.081 134.472 308.897 134.161 309.71 133.941C312.336 133.228 315.014 133.321 317.547 134.207C317.659 134.343 317.905 134.644 317.995 134.75Z" fill="#269235"/>
<path d="M311.934 128.821C311.893 126.203 313.786 123.587 314.111 120.94C314.254 119.776 313.975 118.41 312.952 117.836C311.929 117.26 310.551 117.776 309.856 118.724C309.161 119.671 309.022 120.917 309.086 122.09C309.203 124.261 309.956 126.39 311.211 128.166C311.427 128.296 311.699 128.68 311.934 128.822V128.821Z" fill="#269235"/>
<path d="M318.138 135.132C314.618 130.764 312.428 128.693 304.344 123.344" stroke="#269235" stroke-width="0.678168"/>
<path d="M438.046 118.123C438.337 117.176 439.205 116.424 440.189 116.304C441.173 116.185 442.211 116.723 442.652 117.61C443.269 118.849 442.581 120.393 441.905 121.6C440.824 123.527 439.891 125.004 437.878 125.912C439.101 124.674 438.486 123.145 438.269 121.559C438.112 120.41 437.706 119.23 438.046 118.122V118.123Z" fill="#269235"/>
<path d="M438.303 125.584C438.282 125.574 438.741 125.261 438.877 125.153C440.314 124.209 441.428 123.546 443.144 122.825C444.189 122.385 445.302 122.039 446.435 122.07C447.569 122.102 448.733 122.558 449.411 123.469C450.089 124.379 450.148 125.77 449.383 126.606C448.757 127.291 447.741 127.488 446.82 127.383C445.9 127.278 445.001 126.996 444.148 126.638C442.126 125.788 440.937 124.898 438.33 125.863L438.303 125.584Z" fill="#269235"/>
<path d="M432.343 130.113C433.871 128.772 435.257 128.44 436.932 128.346C438.82 128.24 440.806 129.214 441.982 130.693C442.65 131.531 442.962 132.842 442.235 133.629C441.512 134.411 440.224 134.222 439.256 133.777C437.939 133.171 436.813 132.224 435.582 131.46C434.517 130.799 433.482 130.243 432.294 130.243L432.341 130.114L432.343 130.113Z" fill="#269235"/>
<path d="M424.388 141.391C424.441 139.494 423.626 137.746 422.665 135.989C421.523 133.9 420.095 131.939 419.344 129.68C418.953 128.504 418.756 127.223 419.067 126.022C419.379 124.823 420.281 123.725 421.486 123.436C422.791 123.123 424.183 123.81 425.026 124.854C425.869 125.896 426.252 127.234 426.493 128.553C427.27 132.815 426.764 137.052 425.017 140.951C424.786 141.112 424.566 141.265 424.386 141.391H424.388Z" fill="#269235"/>
<path d="M426.317 136.014C427.508 136.081 432.144 139.029 433.518 139.619C434.234 139.926 435.025 140.118 435.792 139.986C436.559 139.854 437.293 139.348 437.539 138.609C437.804 137.809 437.448 136.902 436.84 136.319C436.231 135.736 435.415 135.424 434.602 135.205C431.976 134.491 429.298 134.585 426.765 135.471C426.653 135.607 426.407 135.908 426.317 136.014Z" fill="#269235"/>
<path d="M432.377 130.085C432.419 127.467 430.526 124.851 430.201 122.204C430.058 121.04 430.337 119.674 431.359 119.1C432.383 118.524 433.761 119.04 434.456 119.988C435.151 120.935 435.29 122.181 435.226 123.354C435.108 125.525 434.355 127.654 433.101 129.429C432.885 129.56 432.613 129.944 432.377 130.086V130.085Z" fill="#269235"/>
<path d="M426.174 136.396C429.694 132.028 431.884 129.957 439.968 124.608" stroke="#269235" stroke-width="0.678168"/>
</g>
<defs>
<clipPath id="clip0_2_18072">
<rect width="571" height="138" fill="white" transform="translate(0.5)"/>
</clipPath>
</defs>
</svg>
