<svg width="381" height="138" viewBox="0 0 381 138" fill="none" xmlns="http://www.w3.org/2000/svg">
<g clip-path="url(#clip0_2_18374)">
<path d="M25.6196 133.667C17.5924 122.352 9.1243 114.572 6.7055 116.287C4.43138 117.901 8.32858 127.355 15.4878 137.894H28.4815C27.5863 136.508 26.6301 135.093 25.6173 133.667" fill="#19892B"/>
<path d="M29.1167 123.263C24.191 110.295 17.9518 100.635 15.1804 101.686C12.4089 102.74 14.1564 114.106 19.0821 127.075C20.5989 131.067 22.2401 134.745 23.8655 137.894H33.4954C32.6387 133.698 31.149 128.619 29.1145 123.263" fill="#89C240"/>
<path d="M37.1576 121.74C37.1576 107.867 34.7546 96.6206 31.791 96.6206C28.8274 96.6206 26.4244 107.867 26.4244 121.74C26.4244 127.893 26.8969 133.529 27.6836 137.896H35.9007C36.6851 133.529 37.1598 127.893 37.1598 121.74" fill="#19892B"/>
<path d="M39.1559 134.878C45.6618 122.626 48.8152 111.567 46.1975 110.177C43.5798 108.787 36.1832 117.592 29.6773 129.844C28.2012 132.622 26.9014 135.337 25.7982 137.894H37.4966C38.0527 136.915 38.6088 135.909 39.1559 134.878Z" fill="#89C240"/>
<path d="M52.9521 122.57C50.7073 120.754 42.1669 127.572 33.6627 137.896H46.9548C52.1202 130.244 54.7017 123.987 52.9521 122.57Z" fill="#19892B"/>
<path d="M185.959 135.491C178.972 129.055 171.602 124.63 169.497 125.606C167.517 126.524 170.909 131.901 177.141 137.895H188.45C187.671 137.107 186.838 136.302 185.957 135.491" fill="#19892B"/>
<path d="M189.003 129.573C184.715 122.197 179.285 116.703 176.873 117.301C174.461 117.9 175.982 124.365 180.269 131.741C181.589 134.012 183.017 136.104 184.432 137.895H192.814C192.068 135.509 190.771 132.619 189.001 129.573" fill="#89C240"/>
<path d="M196.001 128.707C196.001 120.816 193.91 114.419 191.33 114.419C188.751 114.419 186.659 120.816 186.659 128.707C186.659 132.207 187.071 135.412 187.755 137.896H194.907C195.59 135.412 196.003 132.207 196.003 128.707" fill="#19892B"/>
<path d="M197.74 136.18C203.403 129.211 206.148 122.921 203.869 122.13C201.591 121.339 195.153 126.347 189.491 133.316C188.206 134.897 187.075 136.441 186.114 137.895H196.296C196.78 137.338 197.264 136.766 197.74 136.18Z" fill="#89C240"/>
<path d="M209.748 129.179C207.795 128.146 200.361 132.024 192.959 137.896H204.529C209.024 133.544 211.271 129.985 209.748 129.179Z" fill="#19892B"/>
<path d="M68.8622 48.4427C68.8622 64.3683 81.7722 77.2806 97.7001 77.2806C113.628 77.2806 126.538 64.3706 126.538 48.4427C126.538 32.5148 113.628 19.6047 97.7001 19.6047C81.7722 19.6047 68.8622 32.5148 68.8622 48.4427Z" fill="#3CB54A"/>
<path d="M78.0603 20.4229C78.0603 31.2691 86.8539 40.0627 97.7 40.0627C108.546 40.0627 117.34 31.2691 117.34 20.4229C117.34 9.57678 108.546 0.783203 97.7 0.783203C86.8539 0.783203 78.0603 9.57678 78.0603 20.4229Z" fill="#89C240"/>
<path d="M97.7001 54.2137L109.238 42.6736H118.531" stroke="#19892B" stroke-width="1.13028" stroke-linecap="round" stroke-linejoin="round"/>
<path d="M97.7001 20.5654V137.599" stroke="#19892B" stroke-width="1.13028" stroke-linecap="round" stroke-linejoin="round"/>
<path d="M97.7002 70.6029L83.6146 56.5173" stroke="#19892B" stroke-width="1.13028" stroke-linecap="round" stroke-linejoin="round"/>
<path d="M307.672 69.1077C307.672 81.286 297.8 91.16 285.62 91.16C273.44 91.16 263.567 81.2878 263.567 69.1077C263.567 56.9277 273.44 47.0554 285.62 47.0554C297.8 47.0554 307.672 56.9277 307.672 69.1077Z" fill="#3CB54A"/>
<path d="M300.638 47.6813C300.638 55.9753 293.914 62.6998 285.62 62.6998C277.326 62.6998 270.601 55.9753 270.601 47.6813C270.601 39.3873 277.326 32.6628 285.62 32.6628C293.914 32.6628 300.638 39.3873 300.638 47.6813Z" fill="#A1DAA6"/>
<path d="M285.62 73.521L276.797 64.6963H269.69" stroke="#19892B" stroke-width="0.864322" stroke-linecap="round" stroke-linejoin="round"/>
<path d="M285.62 47.7903V137.286" stroke="#19892B" stroke-width="0.864322" stroke-linecap="round" stroke-linejoin="round"/>
<path d="M285.62 86.0537L296.391 75.2825" stroke="#19892B" stroke-width="0.864322" stroke-linecap="round" stroke-linejoin="round"/>
<path d="M0.915405 73.5059C0.915405 90.1417 14.4025 103.629 31.0383 103.629C47.6741 103.629 61.1612 90.1417 61.1612 73.5059C61.1612 56.8702 47.6741 43.3831 31.0383 43.3831C14.4025 43.3831 0.915405 56.8702 0.915405 73.5059Z" fill="#27A627"/>
<path d="M8.2002 40.8557C8.2002 53.468 18.4242 63.692 31.0366 63.692C43.6489 63.692 53.8729 53.468 53.8729 40.8557C53.8729 28.2433 43.6489 18.0193 31.0366 18.0193C18.4242 18.0193 8.2002 28.2433 8.2002 40.8557Z" fill="#3CB54A"/>
<path d="M18.6812 13.6578C18.6812 20.6152 24.3203 26.2543 31.2777 26.2543C38.2351 26.2543 43.8742 20.6152 43.8742 13.6578C43.8742 6.70041 38.2351 1.06128 31.2777 1.06128C24.3203 1.06128 18.6812 6.70041 18.6812 13.6578Z" fill="#3CB54A"/>
<path d="M31.0383 61.1487L40.7607 51.4263" stroke="#19892B" stroke-width="0.880014" stroke-linecap="round" stroke-linejoin="round"/>
<path d="M31.0383 38.9617V137.599" stroke="#19892B" stroke-width="0.880014" stroke-linecap="round" stroke-linejoin="round"/>
<path d="M31.0383 81.125L19.1687 69.2571" stroke="#19892B" stroke-width="0.880014" stroke-linecap="round" stroke-linejoin="round"/>
<path d="M145.376 67.5727C145.376 82.9099 157.81 95.3442 173.147 95.3442C188.484 95.3442 200.919 82.9099 200.919 67.5727C200.919 52.2355 188.484 39.8013 173.147 39.8013C157.81 39.8013 145.376 52.2355 145.376 67.5727Z" fill="#27A627"/>
<path d="M152.092 37.4712C152.092 49.099 161.518 58.5249 173.146 58.5249C184.774 58.5249 194.199 49.099 194.199 37.4712C194.199 25.8434 184.774 16.4175 173.146 16.4175C161.518 16.4175 152.092 25.8434 152.092 37.4712Z" fill="#3CB54A"/>
<path d="M142.443 54.214C142.443 60.6283 147.642 65.8273 154.056 65.8273C160.47 65.8273 165.669 60.6283 165.669 54.214C165.669 47.7998 160.47 42.6008 154.056 42.6008C147.642 42.6008 142.443 47.7998 142.443 54.214Z" fill="#70D17B"/>
<path d="M173.147 56.1802L182.111 47.2168" stroke="#19892B" stroke-width="0.811319" stroke-linecap="round" stroke-linejoin="round"/>
<path d="M173.147 35.7253L173.147 136.944" stroke="#19892B" stroke-width="0.811319" stroke-linecap="round" stroke-linejoin="round"/>
<path d="M173.147 74.5972L162.204 63.6558" stroke="#19892B" stroke-width="0.811319" stroke-linecap="round" stroke-linejoin="round"/>
<path d="M75.3499 108.771C75.9806 115.594 72.3885 123.255 72.1286 123.28C71.9703 123.293 66.9315 116.43 66.3008 109.61C65.6701 102.79 65.3831 98.9627 68.8508 98.5264C72.7073 98.0404 74.7192 101.951 75.3499 108.774" fill="#269035"/>
<path d="M72.0901 127.339C70.1619 123.879 67.4243 120.969 63.9996 118.763C62.6975 117.924 61.2666 117.192 59.7226 117.079C58.1786 116.966 56.4991 117.596 55.735 118.944C55.0274 120.189 55.2399 121.812 56.0062 123.024C56.7703 124.236 58.0068 125.079 59.3067 125.678C61.8046 126.829 64.5828 127.172 67.2435 127.859C69.0655 128.33 70.7994 128.883 72.2235 129.901L72.0901 127.339Z" fill="#89C240"/>
<path d="M72.8632 134.578C73.8398 132.338 75.7432 130.748 77.8229 129.229C80.2959 127.421 83.029 125.918 85.1403 123.698C86.239 122.54 87.1703 121.157 87.4619 119.588C87.7535 118.019 87.3059 116.249 86.0604 115.252C84.7131 114.174 82.7147 114.212 81.164 114.967C79.611 115.72 78.4332 117.07 77.4318 118.474C74.1947 123.013 72.4676 128.223 72.3682 133.721C72.549 134.033 72.7231 134.331 72.8632 134.578Z" fill="#61B967"/>
<path d="M69.5651 104.139C71.4232 112.449 72.5761 125.083 72.5761 137.894" stroke="#61B967" stroke-width="0.666865" stroke-miterlimit="10" stroke-linecap="round"/>
<path d="M263.252 48.7041C263.252 64.1233 250.754 76.622 235.334 76.622C219.915 76.622 207.417 64.1233 207.417 48.7041C207.417 33.2849 219.915 20.7861 235.334 20.7861C250.754 20.7861 263.252 33.2849 263.252 48.7041Z" fill="#C3DF9E"/>
<path d="M262.454 21.9478C262.454 33.6376 252.977 43.1123 241.289 43.1123C229.602 43.1123 220.125 33.6355 220.125 21.9478C220.125 10.26 229.599 0.783203 241.289 0.783203C252.979 0.783203 262.454 10.26 262.454 21.9478Z" fill="#3CB54A"/>
<path d="M243.33 39.5947L234.318 30.5825" stroke="#19892B" stroke-width="1.03707" stroke-linecap="round" stroke-linejoin="round"/>
<path d="M243.33 19.0315V136.943" stroke="#19892B" stroke-width="1.03707" stroke-linecap="round" stroke-linejoin="round"/>
<path d="M243.33 58.1088L254.329 47.1096" stroke="#19892B" stroke-width="1.03707" stroke-linecap="round" stroke-linejoin="round"/>
<path d="M119.284 90.2153C119.284 98.4953 125.996 105.207 134.276 105.207C142.555 105.207 149.267 98.4953 149.267 90.2153C149.267 81.9354 142.555 75.2236 134.276 75.2236C125.996 75.2236 119.284 81.9354 119.284 90.2153Z" fill="#C3DF9E"/>
<path d="M119.713 75.8474C119.713 82.1247 124.801 87.2125 131.078 87.2125C137.354 87.2125 142.443 82.1236 142.443 75.8474C142.443 69.5711 137.355 64.4822 131.078 64.4822C124.8 64.4822 119.713 69.5711 119.713 75.8474Z" fill="#3CB54A"/>
<path d="M129.982 85.3236L134.821 80.4841" stroke="#19892B" stroke-width="0.556899" stroke-linecap="round" stroke-linejoin="round"/>
<path d="M129.982 74.2812V137.599" stroke="#19892B" stroke-width="0.556899" stroke-linecap="round" stroke-linejoin="round"/>
<path d="M129.982 95.2654L124.075 89.3589" stroke="#19892B" stroke-width="0.556899" stroke-linecap="round" stroke-linejoin="round"/>
<path d="M367.546 18.7257C367.546 28.4817 359.637 36.3901 349.881 36.3901C340.125 36.3901 332.217 28.4817 332.217 18.7257C332.217 8.96961 340.125 1.06128 349.881 1.06128C359.637 1.06128 367.546 8.96961 367.546 18.7257Z" fill="#27A627"/>
<path d="M380.008 58.3792C380.008 75.7849 365.897 89.8955 348.492 89.8955C331.086 89.8955 316.976 75.7849 316.976 58.3792C316.976 40.9736 331.086 26.863 348.492 26.863C365.897 26.863 380.008 40.9736 380.008 58.3792Z" fill="#3CB54A"/>
<path d="M354.904 38.7306C354.904 53.2275 343.151 64.9799 328.654 64.9799C314.158 64.9799 302.405 53.2275 302.405 38.7306C302.405 24.2338 314.158 12.4832 328.654 12.4832C343.151 12.4832 354.904 24.2355 354.904 38.7306Z" fill="#27A627"/>
<path d="M338.828 57.6064L328.656 47.4343" stroke="#19892B" stroke-width="0.874042" stroke-linecap="round" stroke-linejoin="round"/>
<path d="M338.828 34.3938V137.622" stroke="#19892B" stroke-width="0.874042" stroke-linecap="round" stroke-linejoin="round"/>
<path d="M338.828 78.5065L351.247 66.0881" stroke="#19892B" stroke-width="0.874042" stroke-linecap="round" stroke-linejoin="round"/>
<path d="M267.946 134.673C261.829 126.051 255.375 120.121 253.533 121.428C251.799 122.658 254.77 129.862 260.227 137.894H270.128C269.445 136.838 268.717 135.76 267.946 134.673Z" fill="#3CB54A"/>
<path d="M270.611 126.745C266.857 116.862 262.103 109.501 259.991 110.301C257.88 111.104 259.211 119.766 262.964 129.647C264.119 132.69 265.371 135.493 266.61 137.892H273.948C273.297 134.695 272.16 130.823 270.611 126.743" fill="#19892B"/>
<path d="M276.738 125.583C276.738 115.01 274.907 106.44 272.648 106.44C270.39 106.44 268.559 115.01 268.559 125.583C268.559 130.274 268.921 134.566 269.517 137.894H275.779C276.378 134.566 276.738 130.271 276.738 125.583Z" fill="#3CB54A"/>
<path d="M278.261 135.597C283.219 126.261 285.622 117.834 283.628 116.773C281.634 115.713 275.996 122.425 271.039 131.761C269.915 133.879 268.923 135.948 268.082 137.896H276.998C277.423 137.15 277.845 136.384 278.263 135.597" fill="#89C240"/>
<path d="M288.775 126.216C287.064 124.832 280.556 130.027 274.075 137.896H284.204C288.14 132.064 290.109 127.296 288.775 126.216Z" fill="#3CB54A"/>
<path d="M309.587 106.402C309.587 111.803 313.866 122.538 319.264 122.416C323.684 122.317 329.138 111.807 329.141 106.407C329.141 101.006 326.084 91.8058 319.35 91.7764C312.363 91.7493 309.589 101.002 309.589 106.4" fill="#269035"/>
<path d="M309.854 130.92C311.393 132.322 316.656 133.965 317.551 133.072C318.444 132.177 316.705 127.012 315.184 125.59C313.109 123.652 309.833 122.952 308.362 124.423C306.89 125.895 307.955 129.189 309.854 130.92Z" fill="#3CB54A"/>
<path d="M331.675 126.591C330.104 128.162 325.847 129.871 324.276 128.3C322.705 126.729 324.414 122.472 325.985 120.901C327.556 119.33 330.104 119.33 331.675 120.901C333.246 122.472 333.246 125.02 331.675 126.591Z" fill="#269035"/>
<path d="M319.714 98.7568C319.714 98.7568 319.52 113.774 319.524 124.794C319.527 132.019 319.509 137.661 319.509 137.661" stroke="#7EC680" stroke-width="0.793456" stroke-miterlimit="10" stroke-linecap="round"/>
<path d="M330.237 122.552L319.635 133.348" stroke="#7EC680" stroke-width="0.793456" stroke-miterlimit="10" stroke-linecap="round"/>
<path d="M326.297 104.334L319.588 116.288" stroke="#7EC680" stroke-width="0.793456" stroke-miterlimit="10" stroke-linecap="round"/>
<path d="M310.478 126.245L319.269 134.878" stroke="#7EC680" stroke-width="0.793456" stroke-miterlimit="10" stroke-linecap="round"/>
<path d="M314.052 102.824L319.447 109.567" stroke="#7EC680" stroke-width="0.793456" stroke-miterlimit="10" stroke-linecap="round"/>
<path d="M357.115 91.9187C357.093 91.9368 357.068 91.9413 357.045 91.9481V91.9006C357.068 91.9119 357.09 91.9187 357.115 91.9187Z" fill="#E20613"/>
<g opacity="0.13">
<g opacity="0.13">
<path opacity="0.13" d="M346.217 96.2274C344.28 96.7405 342.718 97.1587 341.493 97.491C341.64 95.0609 342.548 92.3822 342.689 91.8939C345.955 91.4192 350.309 91.5073 352.854 91.6294C353.575 91.6995 354.025 91.7605 354.046 91.7695C353.991 91.713 353.856 93.1914 353.878 93.1733C354.378 93.2525 354.837 93.3203 355.273 93.3858C354.018 93.8538 350.686 95.0428 346.22 96.2251" fill="#1A1A1B"/>
</g>
</g>
<g style="mix-blend-mode:multiply" opacity="0.15">
<g style="mix-blend-mode:multiply" opacity="0.15">
<g style="mix-blend-mode:multiply" opacity="0.15">
<path d="M286.952 65.7517L287.492 65.4443L288.591 65.2815C288.591 65.2815 288.202 66.3847 287.011 66.5226L286.952 65.7517Z" fill="#333333"/>
</g>
</g>
</g>
<g style="mix-blend-mode:multiply" opacity="0.15">
<g style="mix-blend-mode:multiply" opacity="0.15">
<g style="mix-blend-mode:multiply" opacity="0.15">
<path d="M111.024 68.0149C112.588 69.4888 114.351 68.6275 114.351 68.6275L114.329 68.2161C112.83 68.9666 111.024 68.0149 111.024 68.0149Z" fill="black"/>
</g>
</g>
</g>
<path d="M118.517 78.9229C118.517 78.9229 118.513 78.9229 118.508 78.9271C118.513 78.925 118.515 78.925 118.517 78.9229Z" fill="#C6AD7F"/>
<g style="mix-blend-mode:multiply" opacity="0.15">
<g style="mix-blend-mode:multiply" opacity="0.15">
<g style="mix-blend-mode:multiply" opacity="0.15">
<path d="M116.709 72.0796C115.923 73.2845 115.138 74.4871 114.352 75.692L113.201 77.453C113.004 77.7536 112.808 78.0543 112.611 78.3549C112.412 78.6601 112.1 79.1891 111.662 78.9336C111.601 78.8997 111.569 79.2365 111.578 79.2501C111.922 79.7361 112.932 79.0828 113.169 78.7211C113.621 78.0294 114.221 77.0099 114.67 76.3182L116.804 72.1271C116.843 72.0683 116.746 72.0231 116.707 72.0796" fill="#1A1A1B"/>
</g>
</g>
</g>
<g style="mix-blend-mode:multiply" opacity="0.15">
<g style="mix-blend-mode:multiply" opacity="0.15">
<g style="mix-blend-mode:multiply" opacity="0.15">
<path d="M115.554 71.9667C114.857 72.4437 114.163 72.9206 113.467 73.3976C113.128 73.6305 112.796 73.8904 112.441 74.0961C111.966 74.3719 111.564 74.0441 111.154 73.809C109.821 73.045 108.492 72.2221 107.468 71.0557C107.422 71.0037 107.334 71.0647 107.379 71.1167C108.458 72.3465 109.391 73.3275 110.797 74.1278C111.062 74.2792 111.858 74.6093 112.179 74.5618C112.567 74.5053 113.298 73.9763 113.609 73.7616L115.612 72.0526C115.669 72.0142 115.608 71.9237 115.551 71.9644" fill="#1A1A1B"/>
</g>
</g>
</g>
<g style="mix-blend-mode:multiply" opacity="0.15">
<g style="mix-blend-mode:multiply" opacity="0.15">
<g style="mix-blend-mode:multiply" opacity="0.15">
<path d="M116.47 69.957C116.47 69.957 114.248 71.7135 113.976 71.8943C113.705 72.0752 113.316 72.4052 112.955 72.36C112.595 72.3148 112.055 72.1046 112.055 72.1792C112.055 72.2537 112.64 72.7194 112.986 72.6607C113.332 72.5996 114.623 71.7451 115.419 71.128C116.214 70.5131 116.829 70.1673 116.47 69.957Z" fill="#1A1A1B"/>
</g>
</g>
</g>
<path d="M115.316 116.859C115.025 115.912 114.158 115.16 113.174 115.04C112.19 114.921 111.152 115.46 110.711 116.346C110.094 117.585 110.782 119.129 111.458 120.336C112.538 122.263 113.471 123.74 115.485 124.648C114.261 123.41 114.877 121.881 115.094 120.295C115.251 119.146 115.656 117.966 115.316 116.858V116.859Z" fill="#269235"/>
<path d="M115.059 124.32C115.081 124.31 114.621 123.997 114.485 123.889C113.049 122.945 111.934 122.283 110.219 121.561C109.174 121.121 108.061 120.775 106.928 120.807C105.793 120.838 104.629 121.294 103.951 122.205C103.274 123.115 103.214 124.506 103.98 125.343C104.605 126.027 105.622 126.225 106.542 126.12C107.462 126.015 108.361 125.733 109.215 125.374C111.237 124.524 112.425 123.634 115.033 124.6L115.059 124.32Z" fill="#269235"/>
<path d="M121.019 128.849C119.492 127.508 118.105 127.176 116.431 127.082C114.542 126.976 112.557 127.95 111.38 129.429C110.712 130.267 110.4 131.578 111.128 132.365C111.851 133.147 113.138 132.958 114.107 132.513C115.424 131.907 116.55 130.96 117.78 130.196C118.845 129.535 119.88 128.979 121.069 128.979L121.022 128.85L121.019 128.849Z" fill="#269235"/>
<path d="M128.975 140.127C128.921 138.23 129.736 136.482 130.698 134.725C131.839 132.636 133.267 130.675 134.018 128.416C134.41 127.24 134.607 125.959 134.295 124.758C133.983 123.559 133.081 122.461 131.876 122.172C130.572 121.859 129.179 122.546 128.337 123.59C127.493 124.632 127.11 125.971 126.869 127.289C126.092 131.552 126.599 135.788 128.345 139.688C128.577 139.848 128.796 140.001 128.976 140.127H128.975Z" fill="#269235"/>
<path d="M127.045 134.751C125.854 134.817 121.219 137.765 119.845 138.355C119.129 138.663 118.338 138.854 117.571 138.722C116.804 138.59 116.069 138.084 115.824 137.345C115.559 136.546 115.914 135.638 116.523 135.055C117.131 134.473 117.948 134.161 118.76 133.941C121.386 133.228 124.065 133.321 126.597 134.207C126.709 134.344 126.956 134.644 127.045 134.751Z" fill="#269235"/>
<path d="M120.985 128.821C120.944 126.203 122.837 123.587 123.161 120.94C123.305 119.776 123.025 118.41 122.003 117.836C120.979 117.26 119.601 117.776 118.906 118.724C118.211 119.671 118.073 120.917 118.136 122.09C118.254 124.261 119.007 126.39 120.262 128.166C120.477 128.296 120.75 128.68 120.985 128.822V128.821Z" fill="#269235"/>
<path d="M127.188 135.132C123.668 130.764 121.479 128.693 113.394 123.344" stroke="#269235" stroke-width="0.678168"/>
<path d="M247.097 118.123C247.388 117.176 248.255 116.424 249.239 116.304C250.223 116.185 251.261 116.723 251.702 117.61C252.319 118.849 251.631 120.393 250.955 121.6C249.875 123.527 248.942 125.004 246.928 125.912C248.152 124.674 247.537 123.145 247.32 121.559C247.162 120.41 246.757 119.23 247.097 118.122V118.123Z" fill="#269235"/>
<path d="M247.354 125.584C247.332 125.574 247.792 125.261 247.928 125.153C249.364 124.209 250.479 123.547 252.194 122.825C253.239 122.385 254.352 122.039 255.485 122.071C256.62 122.102 257.784 122.558 258.462 123.469C259.139 124.379 259.199 125.77 258.433 126.606C257.808 127.291 256.791 127.488 255.871 127.384C254.951 127.279 254.052 126.996 253.198 126.638C251.176 125.788 249.988 124.898 247.381 125.864L247.354 125.584Z" fill="#269235"/>
<path d="M241.394 130.113C242.921 128.771 244.308 128.44 245.982 128.346C247.871 128.24 249.856 129.214 251.033 130.693C251.701 131.531 252.013 132.842 251.285 133.629C250.562 134.411 249.275 134.222 248.306 133.777C246.989 133.171 245.863 132.224 244.633 131.46C243.568 130.799 242.533 130.243 241.344 130.243L241.391 130.114L241.394 130.113Z" fill="#269235"/>
<path d="M233.438 141.391C233.492 139.494 232.677 137.746 231.715 135.989C230.574 133.9 229.146 131.939 228.395 129.68C228.003 128.504 227.806 127.223 228.118 126.022C228.43 124.823 229.332 123.725 230.537 123.436C231.842 123.123 233.234 123.81 234.076 124.854C234.92 125.896 235.303 127.234 235.544 128.553C236.321 132.815 235.815 137.052 234.068 140.951C233.837 141.112 233.617 141.265 233.437 141.391H233.438Z" fill="#269235"/>
<path d="M235.368 136.014C236.559 136.081 241.194 139.029 242.568 139.619C243.284 139.926 244.075 140.118 244.842 139.986C245.61 139.854 246.344 139.348 246.589 138.609C246.854 137.81 246.499 136.902 245.89 136.319C245.282 135.737 244.465 135.425 243.653 135.205C241.027 134.492 238.348 134.585 235.816 135.471C235.704 135.608 235.457 135.908 235.368 136.014Z" fill="#269235"/>
<path d="M241.428 130.085C241.469 127.467 239.576 124.851 239.252 122.204C239.108 121.04 239.388 119.674 240.41 119.1C241.434 118.524 242.812 119.04 243.507 119.988C244.202 120.935 244.341 122.181 244.277 123.354C244.159 125.525 243.406 127.654 242.151 129.429C241.936 129.56 241.664 129.944 241.428 130.086V130.085Z" fill="#269235"/>
<path d="M235.225 136.395C238.745 132.028 240.934 129.957 249.019 124.608" stroke="#269235" stroke-width="0.678168"/>
</g>
<defs>
<clipPath id="clip0_2_18374">
<rect width="380" height="137.894" fill="white" transform="translate(0.0505371)"/>
</clipPath>
</defs>
</svg>
