<svg width="210" height="62" viewBox="0 0 210 62" fill="none" xmlns="http://www.w3.org/2000/svg">
<g clip-path="url(#clip0_2_18014)">
<path d="M196.668 0C195.695 0 194.762 0.36824 194.074 1.02371C193.386 1.67918 193 2.56819 193 3.49517V14L196.668 10.5048H200.332C201.305 10.5048 202.238 10.1366 202.926 9.48112C203.614 8.82564 204 7.93663 204 7.00966V0H196.668ZM200.332 6.98552H196.668V3.49517H200.332V6.98552Z" fill="#27AA27"/>
<path d="M181.584 16.9057V15.2649L181.911 15.23H182.223C182.721 15.211 183.214 15.3393 183.641 15.599C183.839 15.7513 183.995 15.9526 184.093 16.1833C184.191 16.414 184.229 16.6663 184.201 16.9157V25.8181H182.332C182.03 25.8181 181.837 25.7333 181.762 25.5687C181.665 25.3422 181.617 25.0972 181.623 24.8505V24.6411C181.466 24.806 181.301 24.9625 181.128 25.1099C180.919 25.2816 180.695 25.4335 180.458 25.5637C180.188 25.7175 179.898 25.8333 179.596 25.9079C179.235 26.002 178.863 26.0473 178.49 26.0425C177.94 26.0803 177.387 25.9953 176.873 25.7936C176.359 25.5918 175.896 25.2783 175.516 24.8755C174.81 23.9819 174.457 22.8578 174.524 21.7185V15.2649L174.846 15.23H175.159C175.657 15.2105 176.15 15.3388 176.577 15.599C176.775 15.7513 176.931 15.9526 177.029 16.1833C177.127 16.414 177.164 16.6663 177.137 16.9157V21.6985C177.119 21.9807 177.158 22.2636 177.252 22.5302C177.346 22.7968 177.492 23.0415 177.682 23.2496C177.867 23.4326 178.088 23.5756 178.33 23.6699C178.572 23.7642 178.831 23.8079 179.09 23.7982C179.429 23.7993 179.763 23.7283 180.073 23.5899C180.382 23.4515 180.659 23.2489 180.885 22.9952C181.111 22.7358 181.287 22.4365 181.405 22.1125C181.532 21.7661 181.596 21.3995 181.594 21.0302L181.584 16.9057ZM171.738 25.1647C171.198 25.4691 170.626 25.7132 170.033 25.8929C169.397 26.0812 168.737 26.1753 168.075 26.1722C167.064 26.1842 166.061 25.9926 165.125 25.6086C164.257 25.2511 163.472 24.7161 162.82 24.0376C162.172 23.3539 161.666 22.5468 161.332 21.6636C160.963 20.7102 160.78 19.6943 160.792 18.6712C160.782 17.6483 160.965 16.6327 161.332 15.6788C161.859 14.2868 162.798 13.0914 164.023 12.2546C165.248 11.4178 166.698 10.98 168.179 11.0007C168.832 10.9935 169.483 11.0706 170.117 11.2301C170.672 11.3815 171.207 11.6009 171.708 11.8835C172.177 12.1293 172.609 12.4399 172.992 12.8061C173.141 12.9557 173.349 13.1752 173.424 13.2699C173.508 13.3821 173.575 13.5066 173.622 13.639C173.671 13.7747 173.682 13.9216 173.652 14.0629C173.598 14.3069 173.465 14.5261 173.275 14.6863C172.862 15.0294 172.425 15.3411 171.966 15.619C171.548 15.0289 171.026 14.5217 170.424 14.1228C169.744 13.7029 168.956 13.4947 168.159 13.5243C167.51 13.513 166.868 13.6565 166.285 13.9432C165.741 14.2111 165.258 14.5899 164.867 15.0554C164.468 15.5341 164.165 16.0863 163.975 16.6813C163.765 17.3131 163.66 17.9752 163.662 18.6413C163.657 19.2978 163.763 19.9505 163.975 20.5714C164.164 21.1467 164.463 21.6789 164.857 22.1374C165.238 22.5786 165.705 22.9353 166.23 23.1848C166.793 23.4494 167.409 23.5808 168.03 23.5688C168.56 23.5798 169.088 23.5092 169.597 23.3593C170.317 23.1304 170.964 22.7121 171.47 22.1474C171.674 21.913 171.862 21.7085 172.031 21.534C172.436 21.8072 172.824 22.1036 173.196 22.4217C173.292 22.5097 173.383 22.603 173.468 22.701C173.543 22.7786 173.599 22.8724 173.632 22.9753C173.661 23.0915 173.661 23.2132 173.632 23.3294C173.597 23.4579 173.547 23.5818 173.483 23.6985C173.415 23.8083 173.337 23.9118 173.25 24.0077C172.791 24.4559 172.278 24.8446 171.723 25.1647H171.738ZM159.33 15.1901C159.142 15.1681 158.953 15.1564 158.764 15.1552C158.379 15.1501 157.994 15.2039 157.624 15.3147C157.318 15.4072 157.024 15.5344 156.747 15.6938C156.512 15.8341 156.294 16.0015 156.097 16.1925C155.935 16.3492 155.783 16.5158 155.641 16.6913C155.639 16.5725 155.627 16.4541 155.607 16.3372C155.572 16.1775 155.502 16.0276 155.402 15.8982C155.303 15.7689 155.176 15.6633 155.031 15.5891C154.696 15.4208 154.325 15.337 153.951 15.3447H153.579L153.366 15.3746L153.128 15.4145V25.8181H155.745V20.1724C155.74 19.8124 155.811 19.4555 155.954 19.1251C156.091 18.8244 156.282 18.5521 156.519 18.3221C156.764 18.1012 157.05 17.9317 157.361 17.8234C157.689 17.7038 158.034 17.6431 158.383 17.6438C158.602 17.6414 158.821 17.6564 159.037 17.6887C159.223 17.718 159.404 17.7699 159.577 17.8433C159.667 17.6488 159.964 16.796 160.048 16.5217C160.121 16.2828 160.151 16.033 160.138 15.7836C160.132 15.6672 160.091 15.5555 160.019 15.4644C159.943 15.382 159.85 15.3173 159.746 15.2748C159.631 15.2353 159.511 15.2102 159.389 15.2L159.33 15.1901ZM132.629 22.9553C133.259 23.5677 134.103 23.9063 134.979 23.898C135.416 23.9047 135.848 23.8091 136.243 23.6187C136.603 23.4407 136.923 23.1913 137.185 22.8855C137.441 22.5822 137.639 22.2339 137.77 21.8581C137.903 21.4699 137.97 21.0619 137.968 20.6512C137.972 20.2312 137.924 19.8122 137.824 19.4044C137.739 19.0432 137.58 18.7037 137.358 18.4069C137.139 18.1002 136.848 17.8533 136.51 17.6887C136.114 17.5078 135.681 17.4207 135.246 17.4344C134.869 17.4285 134.496 17.5159 134.161 17.6887C133.848 17.859 133.572 18.0895 133.348 18.367C133.122 18.6266 132.942 18.9236 132.817 19.2448C132.698 19.5396 132.634 19.8541 132.629 20.1724V22.9553ZM130.036 15.4045L130.269 15.3646L130.542 15.3347H130.913C131.29 15.3272 131.662 15.411 131.999 15.5791C132.143 15.6542 132.269 15.76 132.369 15.8892C132.468 16.0184 132.538 16.1679 132.574 16.3272C132.59 16.4045 132.599 16.4828 132.604 16.5616C132.765 16.3808 132.941 16.2139 133.129 16.0628C133.347 15.885 133.585 15.7343 133.838 15.614C134.136 15.4732 134.446 15.3614 134.765 15.2798C135.147 15.1862 135.538 15.141 135.93 15.1452C136.613 15.124 137.29 15.2699 137.904 15.5706C138.518 15.8712 139.051 16.3174 139.455 16.8708C139.846 17.3946 140.139 17.9863 140.318 18.6164C140.511 19.2754 140.607 19.9592 140.605 20.6462C140.624 21.3624 140.505 22.0756 140.253 22.7459C140.033 23.2862 139.734 23.7905 139.366 24.2421C138.855 24.8969 138.188 25.4115 137.428 25.7383C136.741 26.0185 136.007 26.1624 135.266 26.1622C134.323 26.1426 133.406 25.8462 132.629 25.3094V28.9402C132.511 28.9774 132.39 28.9975 132.267 29C132.088 29 131.89 29 131.677 29C131.467 29.0001 131.257 28.9767 131.052 28.9302C130.862 28.8894 130.683 28.8039 130.532 28.6808C130.369 28.5498 130.244 28.3776 130.17 28.1821C130.072 27.9314 130.026 27.6632 130.036 27.3941V15.4045ZM186.809 15.3746V13.245C186.8 13.0092 186.853 12.7752 186.963 12.5667C187.061 12.3963 187.201 12.2538 187.369 12.1528C187.54 12.0517 187.728 11.9841 187.924 11.9533C188.135 11.9114 188.349 11.8881 188.564 11.8835H188.871L189.164 11.9084L189.451 11.9433V15.3746H192.386L190.259 17.5142H189.451V22.0826C189.423 22.5586 189.526 23.0331 189.749 23.4541C189.869 23.6312 190.035 23.7716 190.229 23.8596C190.423 23.9476 190.638 23.9799 190.849 23.9528C191.03 23.954 191.21 23.9219 191.38 23.8581C191.538 23.8033 191.691 23.7331 191.836 23.6486C191.96 23.5793 192.078 23.4992 192.188 23.4092C192.287 23.3244 192.356 23.2596 192.396 23.2197C192.568 23.4755 192.724 23.742 192.862 24.0177C192.962 24.2156 193.016 24.4339 193.021 24.656C193.016 24.8545 192.942 25.045 192.812 25.1947C192.646 25.3958 192.444 25.5648 192.217 25.6934C191.927 25.8563 191.615 25.9772 191.29 26.0525C190.902 26.1542 190.502 26.2012 190.101 26.1921C189.612 26.1907 189.128 26.0976 188.673 25.9178C188.24 25.7399 187.86 25.451 187.572 25.08C187.29 24.7191 187.091 24.3002 186.987 23.8531C186.864 23.3303 186.804 22.7944 186.809 22.2571V17.4992H185.039V15.3746H186.809ZM126.055 22.1125C126.056 22.3796 125.984 22.6418 125.847 22.8706C125.704 23.1111 125.519 23.3239 125.302 23.499C124.823 23.8786 124.23 24.0827 123.621 24.0775C123.123 24.1141 122.627 23.9805 122.213 23.6985C122.053 23.5762 121.925 23.4174 121.839 23.2352C121.753 23.0531 121.711 22.8528 121.717 22.6511C121.717 22.4352 121.761 22.2216 121.847 22.0235C121.932 21.8253 122.057 21.6468 122.213 21.499C122.721 21.1128 123.355 20.9345 123.988 21.0003H124.578L125.232 21.0352L126.005 21.0801L126.055 22.1125ZM120.899 15.6289C120.628 15.7532 120.378 15.9217 120.161 16.1277C120.085 16.1873 120.024 16.2629 119.981 16.3491C119.938 16.4353 119.915 16.53 119.913 16.6264C119.946 16.8164 120.014 16.9989 120.111 17.165C120.312 17.5213 120.568 17.8429 120.87 18.1176C121.242 17.8741 121.635 17.6638 122.044 17.4892C122.61 17.2763 123.211 17.178 123.814 17.2C124.388 17.1734 124.956 17.3305 125.435 17.6488C125.632 17.7829 125.792 17.9647 125.9 18.1774C126.009 18.3901 126.062 18.6268 126.055 18.8657V19.1101L125.237 19.0652L124.503 19.0303H123.814C123.186 19.0226 122.56 19.1049 121.955 19.2747C121.432 19.4195 120.942 19.6651 120.513 19.9979C120.119 20.3175 119.8 20.7213 119.581 21.1799C119.354 21.6806 119.241 22.2257 119.248 22.7758C119.24 23.2928 119.35 23.8048 119.571 24.272C119.769 24.684 120.057 25.0455 120.413 25.3293C120.756 25.6055 121.148 25.8137 121.569 25.9428C121.98 26.0769 122.41 26.1459 122.843 26.1472C123.507 26.1563 124.165 26.0184 124.771 25.7433C125.259 25.5436 125.697 25.2389 126.055 24.8505C126.043 25.1006 126.083 25.3505 126.174 25.5837C126.253 25.7483 126.442 25.833 126.744 25.833H128.578V18.7909C128.582 18.2663 128.478 17.7465 128.271 17.2648C128.067 16.8033 127.764 16.3929 127.384 16.0628C126.977 15.7125 126.505 15.4464 125.996 15.2798C125.413 15.0873 124.804 14.9929 124.191 15.0005C123.645 14.9938 123.099 15.0355 122.56 15.1252C122.378 15.1526 122.198 15.1892 122.02 15.2349C121.642 15.3309 121.274 15.4611 120.919 15.624L120.899 15.6289ZM118.901 14.9158C118.726 14.3008 118.423 13.7298 118.014 13.24C117.534 12.6788 116.939 12.2294 116.269 11.9234C115.372 11.5294 114.397 11.3453 113.418 11.3847H110.732C110.526 11.384 110.32 11.4007 110.117 11.4346C109.92 11.4632 109.732 11.531 109.562 11.6341C109.395 11.7346 109.255 11.8751 109.155 12.0431C109.044 12.2528 108.991 12.4888 109.001 12.7263V25.8181H111.723V21.8282H113.642C114.304 21.8254 114.962 21.7246 115.595 21.529C116.242 21.3369 116.847 21.0202 117.375 20.5963C117.917 20.157 118.356 19.6016 118.659 18.9705C119.008 18.2242 119.177 17.4059 119.154 16.5815C119.144 16.0259 119.061 15.4741 118.906 14.9407L118.901 14.9158ZM115.491 18.6912C115.211 18.9543 114.882 19.1583 114.523 19.2911C114.163 19.4239 113.781 19.4828 113.399 19.4642H111.723V13.7387H113.399C113.782 13.726 114.163 13.793 114.519 13.9355C114.875 14.078 115.198 14.293 115.467 14.5669C115.737 14.8409 115.947 15.1678 116.085 15.5274C116.223 15.8869 116.286 16.2713 116.269 16.6563C116.282 17.0248 116.22 17.392 116.086 17.7352C115.952 18.0784 115.749 18.3902 115.491 18.6513V18.6912ZM194.215 24.7757H193.848V24.6012H194.766V24.7757H194.399V25.8031H194.215V24.7757ZM195.817 25.0301L195.574 25.6535H195.341L195.088 24.9852V25.8031H194.894V24.6161H195.123L195.46 25.5288L195.802 24.6161H196V25.8181H195.807L195.817 25.0301ZM150.252 22.681C150.556 22.9644 150.842 23.2659 151.11 23.5838C151.18 23.6656 151.245 23.7523 151.303 23.8431C151.352 23.9196 151.387 24.0039 151.408 24.0925C151.423 24.1911 151.414 24.292 151.383 24.3867C151.34 24.4904 151.283 24.5878 151.214 24.676C151.146 24.7618 151.07 24.8403 150.986 24.9104C150.4 25.376 149.725 25.7155 149.003 25.9079C148.323 26.1008 147.618 26.1915 146.911 26.1772C146.137 26.1882 145.369 26.0441 144.651 25.7532C143.996 25.4887 143.403 25.0895 142.91 24.5812C142.419 24.0702 142.04 23.4599 141.8 22.7908C141.535 22.0469 141.404 21.2616 141.413 20.4717C141.407 19.7354 141.538 19.0045 141.8 18.3171C142.047 17.6762 142.415 17.09 142.886 16.5915C143.358 16.0953 143.924 15.7001 144.551 15.4295C145.227 15.1414 145.954 14.9971 146.688 15.0055C147.52 14.9795 148.346 15.1594 149.092 15.5292C149.722 15.8535 150.266 16.3235 150.679 16.9007C151.083 17.4807 151.376 18.1321 151.541 18.8208C151.72 19.5351 151.81 20.2688 151.809 21.0053V21.3594H144.021C144.016 21.725 144.104 22.0858 144.279 22.4067C144.44 22.7237 144.664 23.0038 144.938 23.2297C145.215 23.45 145.529 23.6188 145.865 23.7284C146.197 23.8451 146.545 23.9058 146.896 23.9079C147.686 23.9187 148.467 23.7482 149.182 23.4092C149.415 23.3033 149.635 23.1693 149.836 23.0102C150.005 22.8706 150.134 22.7559 150.223 22.6661L150.252 22.681ZM149.092 19.4542C149.089 19.1795 149.037 18.9075 148.939 18.6513C148.834 18.3831 148.679 18.1376 148.483 17.9281C148.266 17.6994 148.007 17.5163 147.719 17.3895C147.383 17.2446 147.019 17.1732 146.653 17.18C146.263 17.173 145.876 17.2442 145.513 17.3895C145.205 17.516 144.923 17.6986 144.68 17.9281C144.471 18.1355 144.303 18.3809 144.185 18.6513C144.073 18.9042 144.014 19.1775 144.011 19.4542H149.092Z" fill="white"/>
<path d="M84.2022 42.4649H97V57.0775C95.3766 58.5287 93.5118 59.6919 91.4879 60.5157C89.1952 61.487 86.2672 61.9807 82.7038 61.9969C80.0136 62.0438 77.341 61.5584 74.8433 60.5691C72.6415 59.6839 70.6467 58.3616 68.9824 56.6841C67.3618 55.0221 66.1043 53.0484 65.288 50.8857C64.4148 48.5854 63.9784 46.1455 64.0008 43.6887C63.983 41.2101 64.438 38.7503 65.342 36.4383C66.1951 34.2368 67.477 32.2222 69.115 30.5088C70.8234 28.7376 72.8833 27.3343 75.1658 26.3867C77.4483 25.4391 79.9042 24.9676 82.3796 25.0017C84.0033 24.9885 85.6224 25.1762 87.199 25.5602C88.5856 25.9025 89.9251 26.4096 91.1882 27.0705C92.3519 27.6745 93.4291 28.429 94.3913 29.3141C95.2982 30.1602 96.1208 31.0904 96.8477 32.0919L92.0823 36.2732C91.0156 34.7273 89.6599 33.3971 88.0882 32.3541C86.3759 31.3227 84.3929 30.8158 82.3894 30.8973C80.7637 30.8643 79.153 31.2103 77.6878 31.9074C76.3209 32.5721 75.1081 33.5096 74.1261 34.6609C73.121 35.8454 72.357 37.2108 71.876 38.6819C71.3536 40.2486 71.0914 41.8886 71.0998 43.5382C71.0702 45.2949 71.389 47.0404 72.0381 48.6761C72.6216 50.1296 73.4898 51.4548 74.5928 52.5757C75.6713 53.6643 76.9659 54.5208 78.3953 55.0913C79.8491 55.6756 81.4046 55.9726 82.974 55.9654C86.2492 55.9654 88.7825 55.1884 90.5741 53.6344V48.1273H84.1875L84.2022 42.4649Z" fill="white"/>
<path d="M103 36.491H109.099L109.262 39.7046C109.603 39.2802 109.972 38.8795 110.366 38.5051C110.85 38.0446 111.385 37.6421 111.96 37.3057C112.633 36.9177 113.347 36.6075 114.089 36.3811C114.992 36.114 115.93 35.986 116.871 36.0012C117.421 35.9963 117.97 36.033 118.515 36.1112C119.021 36.1882 119.519 36.3154 120 36.491L118.703 42.5384C118.279 42.3587 117.835 42.2312 117.381 42.1586C116.855 42.0789 116.324 42.0421 115.792 42.0486C114.948 42.0465 114.11 42.1937 113.317 42.4834C112.554 42.7479 111.853 43.1681 111.257 43.7179C110.65 44.2934 110.168 44.9909 109.843 45.7656C109.518 46.5402 109.358 47.3749 109.371 48.2159V62H103V36.491Z" fill="white"/>
<path d="M121 48.4504C120.989 46.6695 121.323 44.9035 121.983 43.2513C122.62 41.655 123.558 40.1984 124.746 38.9623C125.963 37.7271 127.412 36.7484 129.008 36.0832C132.53 34.6389 136.473 34.6389 139.995 36.0832C141.583 36.7499 143.023 37.7304 144.227 38.9667C145.432 40.203 146.379 41.67 147.01 43.2809C148.33 46.6164 148.33 50.3339 147.01 53.6694C146.374 55.2719 145.438 56.7364 144.252 57.983C143.047 59.2437 141.598 60.2436 139.995 60.9215C136.472 62.3595 132.531 62.3595 129.008 60.9215C127.405 60.2436 125.957 59.2437 124.751 57.983C123.566 56.7353 122.628 55.2712 121.988 53.6694C121.324 52.0112 120.988 50.2383 121 48.4504ZM134.499 56.4891C135.599 56.5148 136.687 56.2631 137.665 55.7569C138.536 55.2895 139.294 54.6361 139.887 53.8425C140.472 53.0642 140.916 52.1885 141.2 51.2553C141.481 50.3471 141.625 49.4016 141.627 48.4504C141.62 47.5093 141.476 46.5743 141.2 45.6752C140.922 44.7395 140.478 43.8627 139.887 43.088C139.286 42.3084 138.529 41.6645 137.665 41.1983C136.678 40.7197 135.597 40.4711 134.502 40.4711C133.406 40.4711 132.325 40.7197 131.338 41.1983C130.474 41.6645 129.717 42.3084 129.116 43.088C128.517 43.8671 128.065 44.7509 127.784 45.695C127.508 46.594 127.363 47.5291 127.357 48.4702C127.359 49.4214 127.503 50.3669 127.784 51.2751C128.068 52.2083 128.512 53.084 129.097 53.8623C129.69 54.6559 130.448 55.3093 131.319 55.7767C132.301 56.2861 133.395 56.5379 134.499 56.5089V56.4891Z" fill="white"/>
<path d="M148 36H154.934L159.744 53.3758L165.024 36H170.304L175.638 53.3758L180.384 36H187L178.52 61H172.428L167.309 45.9129L162.347 61H156.475L148 36Z" fill="white"/>
<path d="M191.893 53.911C192.759 54.756 193.782 55.4273 194.904 55.8882C196.217 56.4304 197.629 56.6963 199.051 56.6692C200.18 56.713 201.306 56.5298 202.361 56.1304C202.733 56.0052 203.054 55.7656 203.279 55.4465C203.504 55.1273 203.62 54.7452 203.611 54.3558C203.612 54.0143 203.537 53.6768 203.392 53.3672C203.176 52.99 202.857 52.6814 202.471 52.4775C201.853 52.1238 201.199 51.8355 200.52 51.6174C199.414 51.2553 198.291 50.9485 197.154 50.698C196.233 50.4682 195.327 50.1809 194.441 49.8379C193.496 49.4738 192.608 48.9742 191.808 48.355C191.005 47.7331 190.33 46.9647 189.817 46.0911C189.273 45.1316 189.001 44.0433 189.03 42.9424C189.002 41.7496 189.316 40.5735 189.936 39.5515C190.556 38.5671 191.379 37.7247 192.351 37.08C193.385 36.3987 194.521 35.8817 195.716 35.5477C196.941 35.1893 198.212 35.0062 199.489 35.0039C201.421 34.966 203.349 35.2023 205.214 35.7059C206.745 36.1554 208.185 36.8663 209.47 37.8066L206.16 42.2801C205.323 41.6999 204.41 41.2375 203.447 40.9059C202.174 40.4706 200.835 40.2614 199.489 40.288C197.973 40.288 196.914 40.5121 196.313 40.9603C196.041 41.1413 195.817 41.3852 195.661 41.6711C195.505 41.9569 195.421 42.2762 195.417 42.6014C195.417 43.3922 195.915 44.0151 196.911 44.4599C198.411 45.0717 199.964 45.5497 201.55 45.8885C202.742 46.1437 203.908 46.5044 205.035 46.966C206.003 47.3582 206.901 47.9041 207.693 48.5824C208.421 49.2146 209.003 49.9952 209.4 50.871C209.821 51.8687 210.025 52.9434 209.998 54.0247C210.014 55.1858 209.715 56.3299 209.131 57.3365C208.542 58.3354 207.736 59.1915 206.772 59.8426C205.704 60.556 204.528 61.0935 203.287 61.4342C201.919 61.8165 200.503 62.0062 199.081 61.9977C196.883 62.031 194.696 61.6968 192.61 61.0091C190.841 60.4329 189.252 59.411 188 58.0433L191.893 53.911Z" fill="white"/>
<path d="M24 40H12.7569C10.3594 40.0496 8.04579 40.8882 6.1773 42.3847C2.43776 45.402 1.77784 49.7869 1.0006 54.8678C0.717077 56.6441 0.453109 58.4886 0.0278282 60.3428C-0.00866553 60.4972 -0.00927389 60.6578 0.0260495 60.8124C0.061373 60.967 0.131695 61.1116 0.231654 61.235C0.331613 61.3585 0.458569 61.4576 0.602842 61.5248C0.747114 61.592 0.904892 61.6255 1.06415 61.6227C3.87491 61.5643 6.6759 61.8953 9.48178 61.9829C14.0279 62.1289 18.9015 61.3989 21.8052 57.5396C23.2188 55.6503 23.9864 53.3594 23.9951 51.0036L24 40Z" fill="#33C2AF"/>
<path d="M31 40H42.2345C44.6339 40.0448 46.9509 40.8803 48.8238 42.376C52.5605 45.3996 53.2199 49.7864 53.9965 54.8646C54.2799 56.6466 54.5436 58.487 54.9735 60.3421C55.009 60.4968 55.0088 60.6576 54.9729 60.8122C54.9369 60.9669 54.8662 61.1114 54.7659 61.2347C54.6657 61.3581 54.5386 61.4571 54.3943 61.5243C54.25 61.5915 54.0923 61.6251 53.933 61.6226C51.1244 61.5642 48.3304 61.8952 45.5267 61.9829C40.9841 62.1289 36.1141 61.3986 33.2078 57.5376C31.792 55.6498 31.0185 53.3605 31 51.0036V40Z" fill="#27AA27"/>
<path d="M24 33H12.7576C10.3665 32.9539 8.05813 32.1204 6.19309 30.6299C2.444 27.5931 1.76946 23.2082 1.00205 18.1322C0.718546 16.351 0.454595 14.5114 0.029341 12.6572C-0.0085768 12.5031 -0.00975955 12.3423 0.0258873 12.1876C0.0615341 12.033 0.133022 11.8888 0.234636 11.7666C0.333777 11.6425 0.460317 11.5428 0.60443 11.4753C0.748543 11.4077 0.90635 11.3742 1.06559 11.3773C3.87618 11.4357 6.677 11.1047 9.4827 11.0171C14.0285 10.8711 18.9018 11.6011 21.8053 15.4604C23.2195 17.3512 23.9871 19.6438 23.9951 22.0013L24 33Z" fill="#27AA27"/>
<path d="M31 33H42.245C44.6383 32.9499 46.9481 32.1145 48.816 30.6235C52.5562 27.6041 53.2163 23.2163 53.9937 18.1322C54.2772 16.3546 54.5412 14.5089 54.9715 12.6584C55.0087 12.5033 55.0095 12.3419 54.9739 12.1864C54.9383 12.031 54.8672 11.8859 54.7661 11.7623C54.6652 11.6388 54.5376 11.5397 54.3929 11.4722C54.2481 11.4047 54.0899 11.3707 53.9301 11.3727C51.1188 11.436 48.3222 11.1049 45.5159 11.0172C40.969 10.8711 36.0945 11.5967 33.1854 15.4634C31.7771 17.3528 31.0114 19.6408 31 21.994V33Z" fill="#8EC741"/>
</g>
<defs>
<clipPath id="clip0_2_18014">
<rect width="210" height="62" fill="white"/>
</clipPath>
</defs>
</svg>
